<svg width="286" height="449" viewBox="0 0 286 449" fill="none" xmlns="http://www.w3.org/2000/svg">
<g opacity="0.3">
<path d="M158.845 193.938L211.149 223.797L266.589 255.428C291.274 268.483 292.069 303.413 268.157 317.467L53.5663 444.03C47.7412 447.452 41.5903 449 35.6022 449C17.0475 449 0 434.172 0 413.438V364.291L43.3826 338.527V399.649L233.655 287.466L161.351 246.323L114.872 219.887L154.609 196.444L158.845 193.938Z" fill="#C1DDFF"/>
<path d="M43.403 262.021L103.079 226.826L146.564 251.573L0 337.971V164.665L43.403 187.66V262.021Z" fill="#C1DDFF"/>
<path d="M0 89.7197L114.078 150.191L70.2268 176.057L0 138.846V89.7197Z" fill="#C1DDFF"/>
<path d="M266.739 117.887C291.261 130.84 292.055 165.791 268.144 179.865L228.366 203.328L214.028 211.78L170.604 186.993L179.953 181.494L233.947 149.639L43.4099 48.6374V87.9465L0.0273438 64.9517V35.5411C0.0273438 14.9293 16.973 -0.0203466 35.5685 2.0786e-05C41.0677 2.0786e-05 46.7298 1.30353 52.1883 4.1957L266.739 117.887Z" fill="#C1DDFF"/>
</g>
</svg>
