<svg width="64" height="65" viewBox="0 0 64 65" fill="none" xmlns="http://www.w3.org/2000/svg">
<g filter="url(#filter0_d_57_1408)">
<rect x="4" y="2.5" width="56" height="56" rx="28" fill="#2575D6" shape-rendering="crispEdges"/>
<g filter="url(#filter1_d_57_1408)">
<path d="M45.191 30.0694C45.191 33.7156 43.2634 37.0895 40.1229 38.9423L25.6168 47.4965C22.6067 49.2719 18.8096 47.103 18.8096 43.6104V17.3902C18.8096 13.9866 22.4325 11.81 25.4362 13.4008L39.7152 20.9668C43.0827 22.7537 45.191 26.2554 45.191 30.0694Z" fill="white"/>
</g>
<path d="M38.6796 23.9161L25.0857 16.7115C23.3374 15.7851 21.2305 17.0521 21.2305 19.0313V21.1202L24.7309 22.9756V20.4867L35.6591 26.2773L32.8168 27.9533L31.6659 28.632L31.2104 28.9003L28.1319 30.7157L24.7309 32.7207V28.4423L21.2305 26.5869V38.848L31.6414 32.7104L34.6566 30.9324L35.1676 30.6292L36.263 29.9841L38.7841 28.4978C40.553 27.4553 40.4937 24.8774 38.6796 23.9161Z" stroke="#2B6CBA" stroke-miterlimit="10"/>
<path d="M21.2305 21.8389V25.8012L26.0637 28.3636L29.6028 26.2773L21.2305 21.8389Z" stroke="#2B6CBA" stroke-miterlimit="10"/>
<path d="M38.7841 37.2158L25.1902 45.232C23.4393 46.2629 21.2305 45.0023 21.2305 42.9702V39.6414L24.7309 37.5641V41.4387L35.6591 34.9953L31.6414 32.7116L28.1319 30.7156L31.2104 28.9002L31.6659 28.6318L35.1689 30.6317L38.6796 32.6354C40.4937 33.5954 40.553 36.1732 38.7841 37.2158Z" stroke="#2B6CBA" stroke-miterlimit="10"/>
<mask id="mask0_57_1408" style="mask-type:luminance" maskUnits="userSpaceOnUse" x="21" y="42" width="5" height="4">
<path d="M25.0051 44.9067L25.1961 45.2305C24.7677 45.4834 24.311 45.5982 23.8671 45.5982C22.4969 45.5982 21.2363 44.5028 21.2363 42.9688H21.6131C21.6131 44.2835 22.693 45.2228 23.8684 45.2215C24.2464 45.2215 24.6361 45.1234 25.0051 44.9067Z" fill="white"/>
</mask>
<g mask="url(#mask0_57_1408)">
<path d="M25.0051 44.9067L25.1961 45.2305C24.7677 45.4834 24.311 45.5982 23.8671 45.5982C22.4969 45.5982 21.2363 44.5028 21.2363 42.9688H21.6131C21.6131 44.2835 22.693 45.2228 23.8684 45.2215C24.2464 45.2215 24.6361 45.1234 25.0051 44.9067Z" fill="#164883"/>
</g>
<path d="M21.6108 42.9694H21.2354V39.6406L21.6108 39.8548V42.9694Z" fill="#174985"/>
<path d="M21.6108 39.8543L21.2354 39.6401L24.7358 37.5615L24.3603 38.2234L21.6108 39.8543Z" fill="#1A5499"/>
<path d="M24.3604 38.2234L24.7358 37.5615V41.4361L24.3604 42.0941V38.2234Z" fill="#174B89"/>
<path d="M38.5967 36.8905L25.002 44.9062L25.1933 45.2308L38.788 37.215L38.5967 36.8905Z" fill="#16457F"/>
<path d="M24.3604 42.0939L24.7358 41.4359L35.6628 34.9938L36.4137 34.9873L24.3604 42.0939Z" fill="#1A5499"/>
<mask id="mask1_57_1408" style="mask-type:luminance" maskUnits="userSpaceOnUse" x="38" y="32" width="3" height="6">
<path d="M38.4951 32.9592L38.6822 32.6328C40.4963 33.594 40.5556 36.1706 38.7867 37.2131L38.5958 36.8893C40.1105 35.999 40.0589 33.7863 38.4951 32.9592Z" fill="white"/>
</mask>
<g mask="url(#mask1_57_1408)">
<path d="M38.4951 32.9592L38.6822 32.6328C38.8615 32.7283 39.0241 32.8392 39.1686 32.9631L38.9144 33.2431C38.7906 33.1373 38.6499 33.0418 38.4951 32.9592Z" fill="#1A5397"/>
<path d="M38.916 33.2429L39.1702 32.9629C39.3779 33.1397 39.5495 33.3435 39.6863 33.5641L39.3611 33.7603C39.2437 33.5693 39.0954 33.3951 38.916 33.2429Z" fill="#195092"/>
<path d="M39.3613 33.7596L39.6865 33.5635C39.8181 33.7764 39.9174 34.006 39.9832 34.2421L39.6181 34.3415C39.56 34.1389 39.4749 33.9428 39.3613 33.7596Z" fill="#184D8D"/>
<path d="M39.6172 34.3425L39.9823 34.2432C40.061 34.5257 40.0907 34.8199 40.0739 35.1115L39.6972 35.0883C39.7114 34.838 39.6856 34.5851 39.6172 34.3425Z" fill="#174B88"/>
<path d="M39.6966 35.0879L40.0733 35.1111C40.0256 35.9317 39.5985 36.7355 38.7857 37.2142L38.5947 36.8903C39.2915 36.4801 39.6566 35.7924 39.6966 35.0879Z" fill="#164883"/>
</g>
<path d="M30.8953 32.7154L31.6462 32.709L21.2354 38.8466L21.6108 38.1886L30.8953 32.7154Z" fill="#16457F"/>
<path d="M36.4139 34.9878L35.663 34.9942L31.6465 32.7092L31.8323 32.3828L36.4139 34.9878Z" fill="#16457E"/>
<path d="M24.3604 33.3772L24.7358 32.7192L28.1369 30.7129L28.1407 31.1477L24.3604 33.3772Z" fill="#1A5499"/>
<path d="M28.1425 31.1477L28.1387 30.7129L31.6481 32.7089L30.8972 32.7153L28.1425 31.1477Z" fill="#1B569D"/>
<path d="M35.1731 30.6279L34.9863 30.9551L38.4982 32.9595L38.6849 32.6323L35.1731 30.6279Z" fill="#1B569D"/>
<path d="M31.8339 32.3827L31.6481 32.7092L28.1387 30.7132L28.8896 30.708L31.8339 32.3827Z" fill="#16457E"/>
<path d="M36.0782 29.6592L36.2692 29.983L35.1725 30.6294L35.1699 30.1946L36.0782 29.6592Z" fill="#16457F"/>
<path d="M28.8896 30.7083L28.1387 30.7135L31.2159 28.8994L31.4068 29.2233L28.8896 30.7083Z" fill="#1A5499"/>
<path d="M31.4038 29.2234L31.2129 28.8995L31.6683 28.6299L31.6722 29.0647L31.4038 29.2234Z" fill="#1A5499"/>
<path d="M31.6719 29.0645L34.9852 30.9559L38.4972 32.9597C40.061 33.7867 40.1113 35.9995 38.5966 36.8897L25.0027 44.9072C24.6337 45.124 24.244 45.222 23.8647 45.222C22.6893 45.222 21.6094 44.2828 21.6094 42.9693V39.856L24.3576 38.2238V42.0958L36.4109 34.9892L31.8306 32.3829L28.8863 30.7082L31.4035 29.2232L31.6719 29.0645Z" fill="#2575D6"/>
<path d="M35.1703 30.1942L35.1729 30.629L31.6699 28.6292L32.4195 28.624L35.1703 30.1942Z" fill="#16457E"/>
<path d="M32.4195 28.6247L31.6699 28.6298L32.8221 27.9512L33.0131 28.275L32.4195 28.6247Z" fill="#1A5499"/>
<path d="M31.6738 29.0647L31.6699 28.6299L35.1729 30.6297L34.9871 30.9562L31.6738 29.0647Z" fill="#1B569D"/>
<path d="M24.3604 28.6672L24.7358 28.4414V32.7198L24.3604 33.3778V28.6672Z" fill="#174B89"/>
<path d="M38.5987 28.1726L36.0791 29.6582L36.2705 29.9827L38.79 28.4971L38.5987 28.1726Z" fill="#16457F"/>
<path d="M21.6108 27.2104L21.2354 26.5859L24.7358 28.4413L24.3603 28.6671L21.6108 27.2104Z" fill="#1B569D"/>
<path d="M21.6108 38.189L21.2354 38.847V26.5859L21.6108 27.2104V38.189Z" fill="#174985"/>
<path d="M24.3589 33.3773L28.1392 31.1478L30.8939 32.7154L21.6094 38.1886V27.21L24.3589 28.6666V33.3773Z" fill="#2575D6"/>
<path d="M28.8374 26.2925L29.6077 26.2744L26.0686 28.362L26.0596 27.9311L28.8374 26.2925Z" fill="#16457F"/>
<path d="M33.0132 28.2744L32.8223 27.9506L35.6634 26.2746L36.4336 26.2578L33.0132 28.2744Z" fill="#1A5499"/>
<path d="M26.0595 27.9315L26.0686 28.3624L21.2354 25.8L21.6108 25.5742L26.0595 27.9315Z" fill="#16457E"/>
<mask id="mask2_57_1408" style="mask-type:luminance" maskUnits="userSpaceOnUse" x="38" y="23" width="3" height="6">
<path d="M38.5088 24.246L38.6856 23.9131C40.4996 24.8743 40.559 27.4522 38.7901 28.4947L38.5991 28.1709C40.1138 27.2819 40.0622 25.0678 38.5088 24.246Z" fill="white"/>
</mask>
<g mask="url(#mask2_57_1408)">
<path d="M38.5088 24.246L38.6856 23.9131C38.8597 24.006 39.0184 24.1131 39.1604 24.2318L38.9165 24.5182C38.7939 24.4176 38.6585 24.326 38.5088 24.246Z" fill="#1A5397"/>
<path d="M38.915 24.5198L39.1589 24.2334C39.3679 24.4089 39.5408 24.6114 39.6789 24.8308L39.3602 25.0308C39.2428 24.8437 39.0944 24.6695 38.915 24.5198Z" fill="#195092"/>
<path d="M39.3604 25.0301L39.679 24.8301C39.8132 25.043 39.9139 25.2739 39.981 25.5113L39.6184 25.6145C39.5616 25.4107 39.4752 25.2133 39.3604 25.0301Z" fill="#184D8D"/>
<path d="M39.6201 25.6149L39.9827 25.5117C40.0627 25.7956 40.0949 26.0923 40.0781 26.3865L39.7014 26.3646C39.7156 26.113 39.6885 25.8588 39.6201 25.6149Z" fill="#174B88"/>
<path d="M39.7005 26.3643L40.0772 26.3862C40.0308 27.2094 39.6037 28.0158 38.7896 28.4957L38.5986 28.1719C39.2954 27.7616 39.6618 27.0713 39.7005 26.3643Z" fill="#164883"/>
</g>
<path d="M21.6108 25.5744L21.2354 25.8002V21.8379L21.6108 22.4624V25.5744Z" fill="#174985"/>
<path d="M21.6108 22.4624L21.2354 21.8379L29.6077 26.275L28.8374 26.2931L21.6108 22.4624Z" fill="#1B569D"/>
<path d="M21.6094 22.4619L28.836 26.2926L26.0581 27.9312L21.6094 25.574V22.4619Z" fill="#2575D6"/>
<path d="M24.3603 22.3483L24.7358 22.974L21.2354 21.1187L21.6108 20.8916L24.3603 22.3483Z" fill="#16457E"/>
<path d="M36.4331 26.2576L35.6628 26.2744L24.7358 20.4838L24.3604 19.8594L36.4331 26.2576Z" fill="#16457E"/>
<path d="M24.3604 19.8594L24.7358 20.4838V22.974L24.3604 22.3482V19.8594Z" fill="#174B89"/>
<path d="M21.6108 20.8924L21.2354 21.1195V19.0293H21.6108V20.8924Z" fill="#174985"/>
<path d="M25.0884 16.712L24.9121 17.0449L38.5091 24.2434L38.6854 23.9105L25.0884 16.712Z" fill="#1B569D"/>
<path d="M38.5069 24.2462C40.0604 25.0668 40.1107 27.2808 38.596 28.1724L36.0761 29.6587L35.1678 30.1942L32.417 28.624L33.0092 28.2756L36.4297 26.2577L24.3595 19.8594V22.3495L21.6113 20.8929V19.0298C21.6113 17.7241 22.6848 16.777 23.8628 16.7783C24.2111 16.7783 24.5698 16.8609 24.9156 17.0441L38.5069 24.2462Z" fill="#2575D6"/>
<mask id="mask3_57_1408" style="mask-type:luminance" maskUnits="userSpaceOnUse" x="21" y="16" width="5" height="4">
<path d="M21.6082 19.0286H21.2314C21.2314 17.5022 22.4843 16.4004 23.8597 16.4004C24.2687 16.4004 24.688 16.4972 25.088 16.71L24.9125 17.0429C24.568 16.861 24.2093 16.7771 23.8597 16.7771C22.6817 16.7771 21.6082 17.7229 21.6082 19.0286Z" fill="white"/>
</mask>
<g mask="url(#mask3_57_1408)">
<path d="M21.6082 19.0284H21.2314C21.2314 18.8736 21.2443 18.7239 21.2689 18.5781L21.6392 18.6426C21.6198 18.7678 21.6082 18.8968 21.6082 19.0284Z" fill="#164883"/>
<path d="M21.6408 18.6438L21.2705 18.5792C21.3195 18.2902 21.4137 18.0219 21.5466 17.7793L21.8782 17.9586C21.7634 18.1664 21.6821 18.396 21.6408 18.6438Z" fill="#174B88"/>
<path d="M21.8765 17.9574L21.5449 17.778C21.6649 17.5561 21.8159 17.3561 21.9901 17.1807L22.2571 17.4452C22.1088 17.5961 21.9797 17.7677 21.8765 17.9574Z" fill="#184D8D"/>
<path d="M22.2583 17.4469L21.9912 17.1824C22.186 16.9876 22.4092 16.8237 22.6531 16.6973L22.826 17.0314C22.617 17.1398 22.4247 17.2792 22.2583 17.4469Z" fill="#195092"/>
<path d="M22.8262 17.0313L22.6533 16.6971C23.0223 16.5062 23.4352 16.4004 23.861 16.4004C24.27 16.4004 24.6893 16.4972 25.0893 16.71L24.9138 17.0429C24.5693 16.861 24.2106 16.7771 23.861 16.7771C23.4958 16.7771 23.141 16.8675 22.8262 17.0313Z" fill="#1A5397"/>
</g>
</g>
<defs>
<filter id="filter0_d_57_1408" x="0" y="0.5" width="64" height="64" filterUnits="userSpaceOnUse" color-interpolation-filters="sRGB">
<feFlood flood-opacity="0" result="BackgroundImageFix"/>
<feColorMatrix in="SourceAlpha" type="matrix" values="0 0 0 0 0 0 0 0 0 0 0 0 0 0 0 0 0 0 127 0" result="hardAlpha"/>
<feOffset dy="2"/>
<feGaussianBlur stdDeviation="2"/>
<feComposite in2="hardAlpha" operator="out"/>
<feColorMatrix type="matrix" values="0 0 0 0 0 0 0 0 0 0 0 0 0 0 0 0 0 0 0.1 0"/>
<feBlend mode="normal" in2="BackgroundImageFix" result="effect1_dropShadow_57_1408"/>
<feBlend mode="normal" in="SourceGraphic" in2="effect1_dropShadow_57_1408" result="shape"/>
</filter>
<filter id="filter1_d_57_1408" x="16.8096" y="12.8701" width="30.3818" height="39.2598" filterUnits="userSpaceOnUse" color-interpolation-filters="sRGB">
<feFlood flood-opacity="0" result="BackgroundImageFix"/>
<feColorMatrix in="SourceAlpha" type="matrix" values="0 0 0 0 0 0 0 0 0 0 0 0 0 0 0 0 0 0 127 0" result="hardAlpha"/>
<feOffset dy="2"/>
<feGaussianBlur stdDeviation="1"/>
<feComposite in2="hardAlpha" operator="out"/>
<feColorMatrix type="matrix" values="0 0 0 0 0 0 0 0 0 0 0 0 0 0 0 0 0 0 0.15 0"/>
<feBlend mode="normal" in2="BackgroundImageFix" result="effect1_dropShadow_57_1408"/>
<feBlend mode="normal" in="SourceGraphic" in2="effect1_dropShadow_57_1408" result="shape"/>
</filter>
</defs>
</svg>
