<svg width="50" height="50" viewBox="0 0 50 50" fill="none" xmlns="http://www.w3.org/2000/svg">
<path d="M49.1667 39.6667H46.6667V19.8438L48.875 17.6354C50.375 16.1354 50.375 13.6979 48.875 12.1875L46.4792 9.79167C44.9792 8.29167 42.5417 8.29167 41.0312 9.79167L40 10.8229V4.5C40 3.125 38.875 2 37.5 2H12.5C11.125 2 10 3.125 10 4.5V12H7.5C5.19792 12 3.33333 13.8646 3.33333 16.1667V39.6667H0.833333C0.375 39.6667 0 40.0417 0 40.5C0 44.6354 3.36458 48 7.5 48H42.5C46.6354 48 50 44.6354 50 40.5C50 40.0417 49.625 39.6667 49.1667 39.6667ZM43.3333 39.6667V23.1771L45 21.5104V39.6667H43.3333ZM8.33333 39.6667V17.8333C8.33333 17.375 8.70833 17 9.16667 17H10V37.1667C10 37.625 10.375 38 10.8333 38H39.1667C39.625 38 40 37.625 40 37.1667V26.5104L41.6667 24.8438V39.6667H8.33333ZM30.3229 41.3333L29.7187 42.5417C29.5833 42.8229 29.2917 43 28.9688 43H21.0312C20.7187 43 20.4271 42.8229 20.2812 42.5417L19.6771 41.3333H30.3229ZM11.6667 10.3333H38.3333V12.4896L35.4896 15.3333H32.5C32.0417 15.3333 31.6667 15.7083 31.6667 16.1667C31.6667 16.625 32.0417 17 32.5 17H33.8229L29 21.8229C28.9375 21.875 28.8854 21.9375 28.8333 22H22.5C22.0417 22 21.6667 22.375 21.6667 22.8333C21.6667 23.2917 22.0417 23.6667 22.5 23.6667H27.6458C27.3958 24.1458 27.1979 24.6354 27.0625 25.1562L27.0104 25.3333H20.8333C20.375 25.3333 20 25.7083 20 26.1667C20 26.625 20.375 27 20.8333 27H26.5625L26.1042 28.6667H20.8333C20.375 28.6667 20 29.0417 20 29.5C20 29.9583 20.375 30.3333 20.8333 30.3333H25.6562L25.1979 32H22.5C22.0417 32 21.6667 32.375 21.6667 32.8333C21.6667 33.2917 22.0417 33.6667 22.5 33.6667H25.8333L26.0521 33.6354L33.5104 31.6042C34.7708 31.2604 35.9167 30.5938 36.8438 29.6667L38.3333 28.1771V36.3333H11.6667V10.3333ZM45.8333 18.3229L40.3437 12.8333L40.8333 12.3438L46.3229 17.8333L45.8333 18.3229ZM44.6562 19.5L36.25 27.9062L35.3437 27L43.75 18.5938L44.6562 19.5ZM27.6875 29.1979L29.4687 30.9792L27.0208 31.6458L27.6875 29.1979ZM31.3229 30.4687L28.1979 27.3438L28.6771 25.5938C28.875 24.8854 29.1979 24.2292 29.6354 23.6354L35.0417 29.0417C34.4583 29.4792 33.7917 29.8021 33.0833 30L31.3229 30.4687ZM39.1667 14.0104L40.0729 14.9167L31.6667 23.3229L30.7604 22.4167L39.1667 14.0104ZM32.8437 24.5L41.25 16.0938L42.5729 17.4167L34.1667 25.8229L32.8437 24.5ZM43.75 10.3333C44.3333 10.3333 44.8854 10.5625 45.2917 10.9688L47.6875 13.3646C48.5417 14.2188 48.5417 15.6042 47.6875 16.4583L47.4896 16.6562L42.0104 11.1667L42.2083 10.9688C42.6146 10.5625 43.1667 10.3333 43.75 10.3333ZM12.5 3.66667H37.5C37.9583 3.66667 38.3333 4.04167 38.3333 4.5V8.66667H11.6667V4.5C11.6667 4.04167 12.0417 3.66667 12.5 3.66667ZM5 16.1667C5 14.7917 6.125 13.6667 7.5 13.6667H10V15.3333H9.16667C7.79167 15.3333 6.66667 16.4583 6.66667 17.8333V39.6667H5V16.1667ZM42.5 46.3333H7.5C4.60417 46.3333 2.14583 44.1979 1.72917 41.3333H17.8229L18.8021 43.2812C19.2187 44.1354 20.0938 44.6667 21.0417 44.6667H28.9792C29.9271 44.6667 30.7917 44.1354 31.2188 43.2812L32.1979 41.3333H48.2917C47.8542 44.1979 45.3958 46.3333 42.5 46.3333Z" fill="#8DD3A0"/>
<path d="M14.1663 7.00065C14.6266 7.00065 14.9997 6.62756 14.9997 6.16732C14.9997 5.70708 14.6266 5.33398 14.1663 5.33398C13.7061 5.33398 13.333 5.70708 13.333 6.16732C13.333 6.62756 13.7061 7.00065 14.1663 7.00065Z" fill="#8DD3A0"/>
<path d="M17.5003 7.00065C17.9606 7.00065 18.3337 6.62756 18.3337 6.16732C18.3337 5.70708 17.9606 5.33398 17.5003 5.33398C17.0401 5.33398 16.667 5.70708 16.667 6.16732C16.667 6.62756 17.0401 7.00065 17.5003 7.00065Z" fill="#8DD3A0"/>
<path d="M20.8333 7.00065C21.2936 7.00065 21.6667 6.62756 21.6667 6.16732C21.6667 5.70708 21.2936 5.33398 20.8333 5.33398C20.3731 5.33398 20 5.70708 20 6.16732C20 6.62756 20.3731 7.00065 20.8333 7.00065Z" fill="#8DD3A0"/>
<path d="M14.1669 30.3333H15.8335C17.2085 30.3333 18.3335 29.2188 18.3335 27.8333C18.3335 27.2188 18.1044 26.625 17.6981 26.1667C18.6148 25.1354 18.5315 23.5625 17.5106 22.6354C17.0523 22.2188 16.4585 22 15.844 22H14.1773C13.719 22 13.344 22.375 13.344 22.8333V29.5C13.3335 29.9583 13.7085 30.3333 14.1669 30.3333ZM15.8335 28.6667H15.0002V27H15.8335C16.2919 27 16.6669 27.375 16.6669 27.8333C16.6669 28.2917 16.2919 28.6667 15.8335 28.6667ZM15.0002 23.6667H15.8335C16.2919 23.6667 16.6669 24.0417 16.6669 24.5C16.6669 24.9583 16.2919 25.3333 15.8335 25.3333H15.0002V23.6667Z" fill="#8DD3A0"/>
<path d="M14.1663 20.3333H29.1663C29.6247 20.3333 29.9997 19.9583 29.9997 19.5V12.8333C29.9997 12.375 29.6247 12 29.1663 12H14.1663C13.708 12 13.333 12.375 13.333 12.8333V19.5C13.333 19.9583 13.708 20.3333 14.1663 20.3333ZM14.9997 13.6667H28.333V18.6667H14.9997V13.6667Z" fill="#8DD3A0"/>
<path d="M19.1663 32H14.1663C13.708 32 13.333 32.375 13.333 32.8333C13.333 33.2917 13.708 33.6667 14.1663 33.6667H19.1663C19.6247 33.6667 19.9997 33.2917 19.9997 32.8333C19.9997 32.375 19.6247 32 19.1663 32Z" fill="#8DD3A0"/>
<path d="M32.5003 13.6667H35.8337C36.292 13.6667 36.667 13.2917 36.667 12.8333C36.667 12.375 36.292 12 35.8337 12H32.5003C32.042 12 31.667 12.375 31.667 12.8333C31.667 13.2917 32.042 13.6667 32.5003 13.6667Z" fill="#8DD3A0"/>
</svg>
