<svg width="50" height="50" viewBox="0 0 50 50" fill="none" xmlns="http://www.w3.org/2000/svg">
<path d="M47.288 47.998H2.71203C1.21302 47.998 0 46.7865 0 45.2894V42.3345C0 41.9307 0.335306 41.5958 0.739645 41.5958H19.0828C19.4872 41.5958 19.8225 41.9307 19.8225 42.3345C19.8225 42.4724 19.931 42.5808 20.069 42.5808H29.931C30.069 42.5808 30.1775 42.4724 30.1775 42.3345C30.1775 41.9307 30.5128 41.5958 30.9172 41.5958H49.2604C49.6647 41.5958 50 41.9307 50 42.3345V45.2894C50 46.7865 48.787 47.998 47.288 47.998ZM1.47929 43.0733V45.2894C1.47929 45.969 2.03156 46.5206 2.71203 46.5206H47.288C47.9684 46.5206 48.5207 45.969 48.5207 45.2894V43.0733H31.4891C31.213 43.6544 30.6213 44.0582 29.931 44.0582H20.069C19.3787 44.0582 18.787 43.6544 18.5108 43.0733H1.47929Z" fill="#8DD3A0"/>
<path d="M47.2882 42.0879C46.8839 42.0879 46.5486 41.753 46.5486 41.3492V9.83052C46.5486 9.65322 46.5091 9.48578 46.4401 9.32819C46.2725 8.9539 46.4401 8.52052 46.8149 8.35308C47.1896 8.18564 47.6235 8.35308 47.7912 8.72736C47.949 9.0721 48.0279 9.44638 48.0279 9.83052V41.3492C48.0279 41.753 47.6926 42.0879 47.2882 42.0879ZM2.7123 42.0879C2.30796 42.0879 1.97266 41.753 1.97266 41.3492V9.83052C1.97266 8.33338 3.18567 7.12188 4.68469 7.12188H8.23498C8.63932 7.12188 8.97463 7.45677 8.97463 7.8606C8.97463 8.26443 8.63932 8.59932 8.23498 8.59932H4.68469C4.00421 8.59932 3.45195 9.1509 3.45195 9.83052V41.3492C3.45195 41.753 3.11664 42.0879 2.7123 42.0879Z" fill="#8DD3A0"/>
<path d="M46.3022 39.1328H3.69863C3.29429 39.1328 2.95898 38.7979 2.95898 38.3941C2.95898 37.9903 3.29429 37.6554 3.69863 37.6554H46.3022C46.7065 37.6554 47.0418 37.9903 47.0418 38.3941C47.0418 38.7979 46.7065 39.1328 46.3022 39.1328Z" fill="#8DD3A0"/>
<path d="M46.3041 12.5391H44.4008C43.9964 12.5391 43.6611 12.2042 43.6611 11.8003C43.6611 11.3965 43.9964 11.0616 44.4008 11.0616H46.3041C46.7085 11.0616 47.0438 11.3965 47.0438 11.8003C47.0438 12.2042 46.7085 12.5391 46.3041 12.5391ZM8.23707 12.5391H3.70058C3.29624 12.5391 2.96094 12.2042 2.96094 11.8003C2.96094 11.3965 3.29624 11.0616 3.70058 11.0616H8.23707C8.64141 11.0616 8.97672 11.3965 8.97672 11.8003C8.97672 12.2042 8.64141 12.5391 8.23707 12.5391Z" fill="#8DD3A0"/>
<path d="M40.7793 38.1504C40.3749 38.1504 40.0396 37.8155 40.0396 37.4117V15.4865C40.0396 15.0827 40.3749 14.7478 40.7793 14.7478C41.1836 14.7478 41.5189 15.0728 41.5189 15.4767V37.4117C41.5189 37.8155 41.1836 38.1504 40.7793 38.1504ZM9.22109 38.1504C8.81675 38.1504 8.48145 37.8155 8.48145 37.4117V4.71107C8.48145 3.21393 9.69446 2.00243 11.1935 2.00243H38.8069C40.3059 2.00243 41.5189 3.21393 41.5189 4.71107V8.99563C41.5189 9.39947 41.1836 9.73435 40.7793 9.73435C40.3749 9.73435 40.0396 9.39947 40.0396 8.99563V4.71107C40.0396 4.03145 39.4874 3.47987 38.8069 3.47987H11.1935C10.513 3.47987 9.96074 4.03145 9.96074 4.71107V37.4117C9.96074 37.8155 9.62543 38.1504 9.22109 38.1504Z" fill="#8DD3A0"/>
<path d="M29.5352 24.1641C29.338 24.1641 29.1506 24.0853 29.0125 23.9474C28.8153 23.7504 28.7462 23.4549 28.835 23.189L30.3932 18.5203C30.4326 18.4119 30.4918 18.3134 30.5707 18.2346L44.979 3.84438C46.123 2.70183 47.9967 2.70183 49.1407 3.84438C50.2847 4.98693 50.2847 6.85835 49.1407 8.0009L34.7324 22.3911C34.6535 22.4699 34.5549 22.529 34.4464 22.5684L29.7719 24.1247C29.693 24.1542 29.6141 24.1641 29.5352 24.1641ZM31.7443 19.1506L30.7088 22.2532L33.8153 21.219L48.0954 6.95685C48.6674 6.38557 48.6674 5.45971 48.0954 4.88844C47.5234 4.31716 46.5963 4.31716 46.0244 4.88844L31.7443 19.1506Z" fill="#8DD3A0"/>
<path d="M45.8482 10.4316C45.6608 10.4316 45.4734 10.3627 45.3255 10.2149L42.7614 7.65406C42.4754 7.36842 42.4754 6.89564 42.7614 6.61C43.0474 6.32437 43.5207 6.32437 43.8067 6.61L46.3708 9.17089C46.6568 9.45653 46.6568 9.92931 46.3708 10.2149C46.2229 10.3627 46.0355 10.4316 45.8482 10.4316Z" fill="#8DD3A0"/>
<path d="M35.213 21.1172C35.0256 21.1172 34.8382 21.0482 34.6903 20.9005L32.067 18.2805C31.781 17.9949 31.781 17.5221 32.067 17.2365C32.353 16.9508 32.8264 16.9508 33.1124 17.2365L35.7357 19.8564C36.0217 20.1421 36.0217 20.6149 35.7357 20.9005C35.5877 21.0384 35.4004 21.1172 35.213 21.1172Z" fill="#8DD3A0"/>
<path d="M36.9396 8.68555H13.0639C12.6595 8.68555 12.3242 8.35066 12.3242 7.94683C12.3242 7.543 12.6595 7.20811 13.0639 7.20811H36.9396C37.3439 7.20811 37.6792 7.543 37.6792 7.94683C37.6792 8.35066 37.3439 8.68555 36.9396 8.68555Z" fill="#8DD3A0"/>
<path d="M30.8643 12.9277H17.5014C17.097 12.9277 16.7617 12.5928 16.7617 12.189C16.7617 11.7852 17.097 11.4503 17.5014 11.4503H30.8643C31.2686 11.4503 31.6039 11.7852 31.6039 12.189C31.6039 12.5928 31.2686 12.9277 30.8643 12.9277Z" fill="#8DD3A0"/>
<path d="M26.7226 17.1719H13.0639C12.6595 17.1719 12.3242 16.837 12.3242 16.4332C12.3242 16.0293 12.6595 15.6944 13.0639 15.6944H26.7226C27.127 15.6944 27.4623 16.0293 27.4623 16.4332C27.4623 16.837 27.127 17.1719 26.7226 17.1719Z" fill="#8DD3A0"/>
<path d="M23.7641 21.416H13.0639C12.6595 21.416 12.3242 21.0811 12.3242 20.6773C12.3242 20.2735 12.6595 19.9386 13.0639 19.9386H23.7641C24.1684 19.9386 24.5037 20.2735 24.5037 20.6773C24.5037 21.0811 24.1684 21.416 23.7641 21.416Z" fill="#8DD3A0"/>
<path d="M23.7641 25.6602H13.0639C12.6595 25.6602 12.3242 25.3253 12.3242 24.9214C12.3242 24.5176 12.6595 24.1827 13.0639 24.1827H23.7641C24.1684 24.1827 24.5037 24.5176 24.5037 24.9214C24.5037 25.3253 24.1684 25.6602 23.7641 25.6602Z" fill="#8DD3A0"/>
<path d="M36.9396 29.9023H13.0639C12.6595 29.9023 12.3242 29.5675 12.3242 29.1636C12.3242 28.7598 12.6595 28.4249 13.0639 28.4249H36.9396C37.3439 28.4249 37.6792 28.7598 37.6792 29.1636C37.6792 29.5675 37.3439 29.9023 36.9396 29.9023Z" fill="#8DD3A0"/>
<path d="M36.9396 34.1465H13.0639C12.6595 34.1465 12.3242 33.8116 12.3242 33.4078C12.3242 33.0039 12.6595 32.669 13.0639 32.669H36.9396C37.3439 32.669 37.6792 33.0039 37.6792 33.4078C37.6792 33.8116 37.3439 34.1465 36.9396 34.1465Z" fill="#8DD3A0"/>
<path d="M13.0629 12.9297C12.6585 12.9297 12.3232 12.5948 12.3232 12.191C12.3232 11.7871 12.6585 11.4523 13.0629 11.4523C13.4771 11.4523 13.8025 11.7871 13.8025 12.191C13.8025 12.5948 13.4771 12.9297 13.0629 12.9297Z" fill="#8DD3A0"/>
</svg>
