<svg width="42" height="43" viewBox="0 0 42 43" fill="none" xmlns="http://www.w3.org/2000/svg">
<path d="M32.3253 14.1668V9.0359C33.6741 8.40021 34.6508 7.03802 34.6508 5.49419V5.35797C34.6508 3.17846 32.8369 1.4076 30.6044 1.4076H30.5113C28.2788 1.4076 26.4649 3.17846 26.4649 5.35797V5.49419C26.4649 7.08342 27.4416 8.40021 28.7904 9.0359V14.1668C26.7439 14.4847 24.8835 15.302 23.3486 16.4826L8.97666 5.5396C9.06968 5.17635 9.1162 4.81309 9.1162 4.44984C9.1162 1.99789 7.0697 0 4.5581 0C2.04649 0 0 1.99789 0 4.44984C0 6.9018 2.04649 8.89968 4.5581 8.89968C5.3953 8.89968 6.13948 8.67265 6.79064 8.3094L20.93 19.0707C19.7207 20.8416 19.0231 22.9757 19.0231 25.246C19.0231 27.6526 19.8138 29.8775 21.1161 31.6938L16.7905 35.9166C16.465 35.8258 16.0929 35.735 15.7208 35.735C13.6743 35.735 11.9999 37.3696 11.9999 39.3675C11.9999 41.3654 13.6743 43 15.7208 43C17.7673 43 19.4417 41.3654 19.4417 39.3675C19.4417 39.0042 19.3487 38.641 19.2556 38.3231L23.5347 34.1457C25.4881 35.5987 27.8602 36.4615 30.5113 36.4615C36.8369 36.4615 41.9996 31.4213 41.9996 25.246C42.0461 19.6156 37.8601 14.9842 32.3253 14.1668ZM30.5579 30.9673C27.3021 30.9673 24.6509 28.3791 24.6509 25.2006C24.6509 22.0222 27.3021 19.434 30.5579 19.434C33.8136 19.434 36.4648 22.0222 36.4648 25.2006C36.4648 28.3791 33.8136 30.9673 30.5579 30.9673Z" fill="#FF5C35"/>
</svg>
