<svg width="50" height="50" viewBox="0 0 50 50" fill="none" xmlns="http://www.w3.org/2000/svg">
<g clip-path="url(#clip0_232_10810)">
<path d="M47.5 8.33268H46.6667V2.49935C46.6667 2.04102 46.2917 1.66602 45.8333 1.66602H29.9792C27.0312 -0.552734 22.9688 -0.552734 20.0312 1.66602H4.16667C3.70833 1.66602 3.33333 2.04102 3.33333 2.49935V8.33268H2.5C1.125 8.33268 0 9.45768 0 10.8327V39.166C0 40.541 1.125 41.666 2.5 41.666H19.1667V44.9994H13.3333C12.875 44.9994 12.5 45.3744 12.5 45.8327V49.166C12.5 49.6244 12.875 49.9994 13.3333 49.9994H36.6667C37.125 49.9994 37.5 49.6244 37.5 49.166V45.8327C37.5 45.3744 37.125 44.9994 36.6667 44.9994H30.8333V41.666H47.5C48.875 41.666 50 40.541 50 39.166V10.8327C50 9.45768 48.875 8.33268 47.5 8.33268ZM35.0938 27.0306L35.5938 29.9994H13.3333C12.875 29.9994 12.5 29.6244 12.5 29.166V19.166C12.5 18.7077 12.875 18.3327 13.3333 18.3327H23.4062L24.3125 19.6452C24.5729 20.0202 25.0938 20.1139 25.4688 19.8535C25.5521 19.8014 25.6146 19.7285 25.6771 19.6452L26.5833 18.3327H36.6667C37.125 18.3327 37.5 18.7077 37.5 19.166V26.3119L36.0521 26.0827C35.7917 26.041 35.5208 26.1244 35.3229 26.3119C35.1354 26.4994 35.0521 26.7702 35.0938 27.0306ZM43.7812 27.8119C43.6875 27.5098 43.4271 27.291 43.125 27.2494L39.1667 26.5931V19.166C39.1667 17.791 38.0417 16.666 36.6667 16.666H27.7604L28.2083 16.0202C31.3021 14.7181 33.3229 11.6973 33.3333 8.33268H45V32.4369L42.3958 29.8327L43.5729 28.6452C43.8021 28.4369 43.875 28.1139 43.7812 27.8119ZM41.25 28.6243L40.6354 29.2493C40.3125 29.5723 40.3125 30.1035 40.6354 30.4264L45.3437 35.1452L44.1667 36.3223L39.4479 31.6035C39.125 31.2806 38.5938 31.2806 38.2708 31.6035L37.6458 32.2285L36.9271 27.9056L41.25 28.6243ZM45 3.33268V6.66602H33.1667C32.9167 5.45768 32.3958 4.31185 31.6458 3.33268H45ZM25 1.66602C28.6771 1.66602 31.6667 4.6556 31.6667 8.33268C31.6875 11.1035 29.9687 13.5931 27.375 14.5514C27.2187 14.6139 27.0833 14.7181 26.9792 14.8639L25 17.7077L23.0208 14.8535C22.9271 14.7181 22.7812 14.6035 22.625 14.541C20.0312 13.5827 18.3125 11.0931 18.3333 8.32227C18.3333 4.6556 21.3229 1.66602 25 1.66602ZM5 3.33268H18.3542C17.6042 4.31185 17.0833 5.45768 16.8333 6.66602H5V3.33268ZM5 8.33268H16.6667C16.6771 11.6868 18.6979 14.7181 21.7917 16.0202L22.2396 16.666H13.3333C11.9583 16.666 10.8333 17.791 10.8333 19.166V29.166C10.8333 30.541 11.9583 31.666 13.3333 31.666H35.8646L36.2708 34.1035C36.3229 34.416 36.5417 34.666 36.8333 34.7598C37.1354 34.8639 37.4583 34.7806 37.6771 34.5514L38.8646 33.3744L40.4896 34.9994H5V8.33268ZM35.8333 46.666V48.3327H14.1667V46.666H35.8333ZM20.8333 44.9994V41.666H29.1667V44.9994H20.8333ZM48.3333 39.166C48.3333 39.6244 47.9583 39.9994 47.5 39.9994H2.5C2.04167 39.9994 1.66667 39.6244 1.66667 39.166V10.8327C1.66667 10.3743 2.04167 9.99935 2.5 9.99935H3.33333V35.8327C3.33333 36.291 3.70833 36.666 4.16667 36.666H42.1562L43.5729 38.0931C43.9062 38.416 44.4271 38.416 44.7604 38.0931L47.1146 35.7389C47.4375 35.416 47.4375 34.8848 47.1146 34.5514L46.6667 34.1139V9.99935H47.5C47.9583 9.99935 48.3333 10.3743 48.3333 10.8327V39.166Z" fill="#8DD3A0"/>
<path d="M25.833 37.5H24.1663C23.708 37.5 23.333 37.875 23.333 38.3333C23.333 38.7917 23.708 39.1667 24.1663 39.1667H25.833C26.2913 39.1667 26.6663 38.7917 26.6663 38.3333C26.6663 37.875 26.2913 37.5 25.833 37.5Z" fill="#8DD3A0"/>
<path d="M7.49967 4.16602H6.66634C6.20801 4.16602 5.83301 4.54102 5.83301 4.99935C5.83301 5.45768 6.20801 5.83268 6.66634 5.83268H7.49967C7.95801 5.83268 8.33301 5.45768 8.33301 4.99935C8.33301 4.54102 7.95801 4.16602 7.49967 4.16602Z" fill="#8DD3A0"/>
<path d="M10.8337 4.16602H10.0003C9.54199 4.16602 9.16699 4.54102 9.16699 4.99935C9.16699 5.45768 9.54199 5.83268 10.0003 5.83268H10.8337C11.292 5.83268 11.667 5.45768 11.667 4.99935C11.667 4.54102 11.292 4.16602 10.8337 4.16602Z" fill="#8DD3A0"/>
<path d="M14.1667 4.16602H13.3333C12.875 4.16602 12.5 4.54102 12.5 4.99935C12.5 5.45768 12.875 5.83268 13.3333 5.83268H14.1667C14.625 5.83268 15 5.45768 15 4.99935C15 4.54102 14.625 4.16602 14.1667 4.16602Z" fill="#8DD3A0"/>
<path d="M18.3024 20.5417C18.1774 20.2187 17.8753 20 17.5212 20C17.1774 20 16.8649 20.2187 16.7399 20.5417L14.2191 27.2083C14.0524 27.6354 14.2712 28.125 14.6982 28.2812C14.792 28.3125 14.8962 28.3333 14.9899 28.3333C15.3337 28.3333 15.6462 28.1146 15.7712 27.7917L16.1982 26.6667H18.792L19.2087 27.7917C19.3649 28.2187 19.8545 28.4375 20.2816 28.2812C20.7087 28.125 20.9274 27.6354 20.7712 27.2083L18.3024 20.5417ZM16.8337 25L17.5107 23.2083L18.1774 25H16.8337Z" fill="#8DD3A0"/>
<path d="M23.3333 20C22.875 20 22.5 20.375 22.5 20.8333V27.5C22.5 27.9583 22.875 28.3333 23.3333 28.3333H24.1667C26.4688 28.3333 28.3333 26.4688 28.3333 24.1667C28.3333 21.8646 26.4688 20 24.1667 20H23.3333ZM26.6667 24.1667C26.6667 25.5521 25.5521 26.6667 24.1667 26.6667V21.6667C25.5521 21.6667 26.6667 22.7812 26.6667 24.1667Z" fill="#8DD3A0"/>
<path d="M30.8333 28.3333H33.3333C34.25 28.3333 35 27.5833 35 26.6667V25C35 24.0833 34.25 23.3333 33.3333 23.3333H31.6667V21.6667H33.3333C33.3333 22.125 33.7083 22.5 34.1667 22.5C34.625 22.5 35 22.125 35 21.6667V20.8333C35 20.375 34.625 20 34.1667 20H31.6667C30.75 20 30 20.75 30 21.6667V23.3333C30 24.25 30.75 25 31.6667 25H33.3333V26.6667H31.6667C31.6667 26.2083 31.2917 25.8333 30.8333 25.8333C30.375 25.8333 30 26.2083 30 26.6667V27.5C30 27.9583 30.375 28.3333 30.8333 28.3333Z" fill="#8DD3A0"/>
<path d="M25.0003 10.8333C23.9795 10.8333 23.3337 10.3438 23.3337 10C23.3337 9.54167 22.9587 9.16667 22.5003 9.16667C22.042 9.16667 21.667 9.54167 21.667 10C21.667 11.1875 22.7191 12.1458 24.167 12.4167V13.3333C24.167 13.7917 24.542 14.1667 25.0003 14.1667C25.4587 14.1667 25.8337 13.7917 25.8337 13.3333V12.4167C27.2816 12.1458 28.3337 11.1875 28.3337 10C28.3337 8.59375 26.8649 7.5 25.0003 7.5C23.9795 7.5 23.3337 7.01042 23.3337 6.66667C23.3337 6.32292 23.9795 5.83333 25.0003 5.83333C26.0212 5.83333 26.667 6.32292 26.667 6.66667C26.667 7.125 27.042 7.5 27.5003 7.5C27.9587 7.5 28.3337 7.125 28.3337 6.66667C28.3337 5.47917 27.2816 4.52083 25.8337 4.25V3.33333C25.8337 2.875 25.4587 2.5 25.0003 2.5C24.542 2.5 24.167 2.875 24.167 3.33333V4.25C22.7191 4.52083 21.667 5.47917 21.667 6.66667C21.667 8.07292 23.1357 9.16667 25.0003 9.16667C26.0212 9.16667 26.667 9.65625 26.667 10C26.667 10.3438 26.0212 10.8333 25.0003 10.8333Z" fill="#8DD3A0"/>
</g>
<defs>
<clipPath id="clip0_232_10810">
<rect width="50" height="50" fill="white"/>
</clipPath>
</defs>
</svg>
