<svg width="50" height="50" viewBox="0 0 50 50" fill="none" xmlns="http://www.w3.org/2000/svg">
<g clip-path="url(#clip0_232_10716)">
<path d="M47.8125 38.8976H44.7656C44.2969 38.8976 43.9844 38.5827 43.9844 38.1102C43.9844 37.6378 44.2969 37.3228 44.7656 37.3228H47.8125C48.125 37.3228 48.4375 37.0079 48.4375 36.6929V2.20472C48.4375 1.88976 48.125 1.5748 47.8125 1.5748H7.96875C7.65625 1.5748 7.34375 1.88976 7.34375 2.20472V15.2756C7.34375 15.748 7.03125 16.063 6.5625 16.063C6.09375 16.063 5.78125 15.748 5.78125 15.2756V2.20472C5.78125 0.944882 6.79687 0 7.96875 0H47.8125C49.0625 0 50 0.944882 50 2.20472V36.7717C50 37.9528 49.0625 38.8976 47.8125 38.8976Z" fill="#8DD3A0"/>
<path d="M20.8594 38.898H7.96875C6.79687 38.898 5.78125 37.9532 5.78125 36.6933V30.2366C5.78125 29.7642 6.09375 29.4492 6.5625 29.4492C7.03125 29.4492 7.34375 29.7642 7.34375 30.2366V36.6933C7.34375 37.0083 7.65625 37.3232 7.96875 37.3232H20.7813C21.25 37.3232 21.5625 37.6382 21.5625 38.1106C21.5625 38.5831 21.25 38.898 20.8594 38.898Z" fill="#8DD3A0"/>
<path d="M49.2188 12.3619H6.5625C6.09375 12.3619 5.78125 12.047 5.78125 11.5745C5.78125 11.1021 6.09375 10.7871 6.5625 10.7871H49.2188C49.6875 10.7871 50 11.1021 50 11.5745C50 12.047 49.6875 12.3619 49.2188 12.3619Z" fill="#8DD3A0"/>
<path d="M19.8437 8.81917C18.3594 8.81917 17.1875 7.63807 17.1875 6.14201C17.1875 4.64595 18.3594 3.46484 19.8437 3.46484C21.3281 3.46484 22.5 4.64595 22.5 6.14201C22.5 7.63807 21.25 8.81917 19.8437 8.81917ZM19.8437 5.11839C19.2187 5.11839 18.75 5.59083 18.75 6.22075C18.75 6.85067 19.2187 7.32311 19.8437 7.32311C20.4687 7.32311 20.9375 6.85067 20.9375 6.22075C20.8594 5.59083 20.3906 5.11839 19.8437 5.11839Z" fill="#8DD3A0"/>
<path d="M27.2656 8.81917C25.7813 8.81917 24.6094 7.63807 24.6094 6.14201C24.6094 4.64595 25.7813 3.46484 27.2656 3.46484C28.75 3.46484 29.9219 4.64595 29.9219 6.14201C29.9219 7.63807 28.6719 8.81917 27.2656 8.81917ZM27.2656 5.11839C26.6406 5.11839 26.1719 5.59083 26.1719 6.22075C26.1719 6.85067 26.6406 7.32311 27.2656 7.32311C27.8906 7.32311 28.3594 6.85067 28.3594 6.22075C28.3594 5.59083 27.8125 5.11839 27.2656 5.11839Z" fill="#8DD3A0"/>
<path d="M43.4375 8.81917H34.6875C33.2031 8.81917 32.0312 7.63807 32.0312 6.14201C32.0312 4.64595 33.2031 3.46484 34.6875 3.46484H43.4375C44.9219 3.54358 46.0938 4.72469 46.0938 6.22075C46.0938 7.71681 44.9219 8.81917 43.4375 8.81917ZM34.6875 5.11839C34.0625 5.11839 33.5938 5.59083 33.5938 6.22075C33.5938 6.85067 34.0625 7.32311 34.6875 7.32311H43.4375C44.0625 7.32311 44.5312 6.85067 44.5312 6.22075C44.5312 5.59083 44.0625 5.11839 43.4375 5.11839H34.6875Z" fill="#8DD3A0"/>
<path d="M12.3438 8.81917C10.8594 8.81917 9.6875 7.63807 9.6875 6.14201C9.6875 4.64595 10.8594 3.46484 12.3438 3.46484C13.8281 3.46484 15 4.64595 15 6.14201C15 7.63807 13.8281 8.81917 12.3438 8.81917ZM12.3438 5.11839C11.7188 5.11839 11.25 5.59083 11.25 6.22075C11.25 6.85067 11.7188 7.32311 12.3438 7.32311C12.9688 7.32311 13.4375 6.85067 13.4375 6.22075C13.4375 5.59083 12.9688 5.11839 12.3438 5.11839Z" fill="#8DD3A0"/>
<path d="M14.9219 34.724C14.6094 34.724 14.2188 34.5665 13.9844 34.3303L10.625 30.8657H2.96875C2.8125 30.8657 2.65625 30.8657 2.5 30.787C1.09375 30.6295 0 29.2909 0 27.7949V17.7949C0 17.4799 0.078125 17.1649 0.15625 16.85C0.546875 15.5901 1.71875 14.8027 2.96875 14.8027H17.1875C18.8281 14.8027 20.1562 16.1413 20.1562 17.7949V27.7949C20.1562 29.4484 18.8281 30.787 17.1875 30.787H16.25V33.3067C16.25 33.8579 15.9375 34.3303 15.3906 34.5665C15.3125 34.6453 15.0781 34.724 14.9219 34.724ZM2.96875 16.3775C2.34375 16.3775 1.79687 16.7712 1.64062 17.4012C1.5625 17.4799 1.5625 17.6374 1.5625 17.7949V27.7949C1.5625 28.5035 2.10938 29.1334 2.8125 29.2122C2.89062 29.2122 2.96875 29.2122 3.04688 29.2122H10.7812C11.1719 29.2122 11.4844 29.3697 11.7188 29.6059L14.7656 32.7555V30.5508C14.7656 29.8421 15.3906 29.2122 16.0938 29.2122H17.1875C17.9688 29.2122 18.5938 28.5823 18.5938 27.7949V17.7949C18.5938 17.0075 17.9688 16.3775 17.1875 16.3775H2.96875Z" fill="#8DD3A0"/>
<path d="M32.8125 50.0005C32.1094 50.0005 31.4844 49.9217 30.7813 49.843C30.4688 49.7642 30.1562 49.528 30.1562 49.2131L29.8438 47.4808C29.2188 47.2446 28.5937 47.0083 27.9687 46.6934L26.5625 47.717C26.3281 47.8745 25.9375 47.9532 25.625 47.717C24.5312 46.9296 23.5937 45.9847 22.7344 44.8824C22.5 44.6461 22.5 44.2524 22.7344 43.9375L23.8281 42.3627C23.5156 41.7327 23.2812 41.1028 23.0469 40.3942L21.25 40.1579C20.9375 40.0792 20.7031 39.843 20.625 39.528C20.5469 38.8194 20.4688 38.1894 20.4688 37.5595C20.4688 36.8509 20.5469 36.1422 20.625 35.5123C20.7031 35.1973 20.9375 34.9611 21.25 34.8824L23.125 34.5674C23.2812 33.9375 23.5937 33.2288 23.9062 32.5989L22.8125 31.0241C22.6562 30.7091 22.6562 30.3942 22.8125 30.0792C23.5938 28.9768 24.5313 28.032 25.7031 27.2446C25.9375 27.0871 26.3281 27.0871 26.6406 27.2446L28.0469 28.2682C28.6719 27.9532 29.2969 27.6383 29.9219 27.4808L30.2344 25.7485C30.3125 25.4335 30.5469 25.1973 30.8594 25.1186C32.1094 24.8824 33.5156 24.8824 34.8437 25.1186C35.1562 25.1973 35.4688 25.4335 35.4688 25.7485L35.7812 27.4808C36.4062 27.6383 37.0312 27.9532 37.6562 28.2682L39.0625 27.2446C39.2969 27.0083 39.6875 27.0083 40 27.2446C41.0938 28.032 42.1094 28.9768 42.8125 30.0792C43.0469 30.3154 43.0469 30.7091 42.8125 31.0241L41.7188 32.5989C42.0312 33.2288 42.3438 33.8587 42.5 34.5674L44.375 34.8824C44.6875 34.9611 45 35.1973 45 35.5123C45.0781 36.1422 45.1562 36.8509 45.1562 37.5595C45.1562 38.1894 45.0781 38.8981 45 39.528C44.9219 39.843 44.6875 40.1579 44.375 40.1579L42.5 40.4729C42.2656 41.1816 42.0312 41.8115 41.7188 42.4414L42.8125 44.0162C42.9687 44.3312 42.9687 44.6461 42.8125 44.9611C42.0312 46.0635 41.0156 47.0083 40 47.717C39.7656 47.8745 39.375 47.8745 39.0625 47.717L37.6562 46.6934C37.0312 47.0083 36.4062 47.3233 35.7812 47.4808L35.4688 49.2131C35.3906 49.528 35.1562 49.7642 34.8437 49.843C34.1406 50.0005 33.5156 50.0005 32.8125 50.0005ZM31.6406 48.4257C32.4219 48.5044 33.2031 48.5044 34.0625 48.4257L34.375 46.7721C34.4531 46.4572 34.6875 46.2209 34.9219 46.1422C35.7812 45.906 36.5625 45.591 37.2656 45.1186C37.5 44.9611 37.8906 44.9611 38.125 45.1186L39.5312 46.1422C40.1562 45.6698 40.7031 45.1186 41.25 44.4887L40.2344 42.9926C40.0781 42.7564 40.0781 42.4414 40.2344 42.1264C40.7031 41.339 41.0156 40.5516 41.25 39.6855C41.3281 39.3705 41.5625 39.1343 41.875 39.1343L43.75 38.8194C43.8281 38.4257 43.8281 38.032 43.8281 37.6383C43.8281 37.2446 43.8281 36.8509 43.75 36.3784L41.9531 36.0635C41.6406 35.9847 41.4062 35.7485 41.3281 35.4335C41.1719 34.6461 40.7812 33.78 40.3125 32.9926C40.1562 32.7564 40.1562 32.3627 40.3125 32.1264L41.3281 30.6304C40.8594 30.0005 40.2344 29.4493 39.6094 28.9768L38.125 29.9217C37.8906 30.0792 37.5 30.1579 37.2656 29.9217C36.4844 29.4493 35.7031 29.1343 34.9219 28.8981C34.6094 28.8194 34.375 28.5831 34.375 28.2682L34.0625 26.6146C33.2812 26.5359 32.4219 26.5359 31.7187 26.6146L31.3281 28.3469C31.25 28.6619 31.0156 28.8981 30.7813 28.9768C29.9219 29.2131 29.1406 29.528 28.4375 30.0005C28.2031 30.1579 27.8125 30.1579 27.5781 30.0005L26.1719 28.9768C25.5469 29.4493 25 30.0792 24.4531 30.6304L25.4687 32.1264C25.625 32.3627 25.625 32.6776 25.4687 32.9926C25 33.78 24.6875 34.6461 24.4531 35.4335C24.375 35.7485 24.1406 35.9847 23.8281 36.0635L22.0312 36.3784C21.9531 36.7721 21.9531 37.1658 21.9531 37.6383C21.9531 38.032 21.9531 38.4257 22.0312 38.8194L23.9062 39.1343C24.2187 39.2131 24.4531 39.4493 24.5312 39.6855C24.7656 40.5516 25.0781 41.4178 25.5469 42.1264C25.7031 42.3627 25.7031 42.7564 25.5469 42.9926L24.5312 44.4887C25.0781 45.1186 25.625 45.6698 26.25 46.1422L27.6563 45.1186C27.8906 44.9611 28.2812 44.8824 28.5156 45.1186C29.2187 45.591 30.0781 45.906 30.8594 46.1422C31.1719 46.2209 31.4062 46.4572 31.4062 46.7721L31.6406 48.4257Z" fill="#8DD3A0"/>
<path d="M32.8125 43.9375C29.2969 43.9375 26.4844 41.1029 26.4844 37.5596C26.4844 34.0163 29.2969 31.1816 32.8125 31.1816C36.3281 31.1816 39.1406 34.0163 39.1406 37.5596C39.1406 41.1029 36.3281 43.9375 32.8125 43.9375ZM32.8125 32.7564C30.1562 32.7564 28.0469 34.8824 28.0469 37.5596C28.0469 40.2368 30.1562 42.3627 32.8125 42.3627C35.4687 42.3627 37.5781 40.2368 37.5781 37.5596C37.5781 34.8824 35.4687 32.7564 32.8125 32.7564Z" fill="#8DD3A0"/>
<path d="M15.8594 20.7096H4.29688C3.82812 20.7096 3.51562 20.3946 3.51562 19.9222C3.51562 19.4497 3.82812 19.1348 4.29688 19.1348H15.7813C16.25 19.1348 16.5625 19.4497 16.5625 19.9222C16.5625 20.3946 16.25 20.7096 15.8594 20.7096Z" fill="#8DD3A0"/>
<path d="M15.8594 25.8268H4.29688C3.82812 25.8268 3.51562 25.5118 3.51562 25.0394C3.51562 24.5669 3.82812 24.252 4.29688 24.252H15.7813C16.25 24.252 16.5625 24.5669 16.5625 25.0394C16.5625 25.5118 16.25 25.8268 15.8594 25.8268Z" fill="#8DD3A0"/>
<path d="M44.4531 17.4811H25.3906C24.9219 17.4811 24.6094 17.1661 24.6094 16.6937C24.6094 16.2212 24.9219 15.9062 25.3906 15.9062H44.4531C44.9219 15.9062 45.2344 16.2212 45.2344 16.6937C45.2344 17.1661 44.8438 17.4811 44.4531 17.4811Z" fill="#8DD3A0"/>
<path d="M44.4531 22.2838H25.3906C24.9219 22.2838 24.6094 21.9688 24.6094 21.4964C24.6094 21.0239 24.9219 20.709 25.3906 20.709H44.4531C44.9219 20.709 45.2344 21.0239 45.2344 21.4964C45.2344 21.9688 44.8438 22.2838 44.4531 22.2838Z" fill="#8DD3A0"/>
</g>
<defs>
<clipPath id="clip0_232_10716">
<rect width="50" height="50" fill="white"/>
</clipPath>
</defs>
</svg>
