<svg width="50" height="50" viewBox="0 0 50 50" fill="none" xmlns="http://www.w3.org/2000/svg">
<path d="M29.1667 43.3115H27.5V36.118C27.5 35.6582 27.125 35.282 26.6667 35.282C26.2083 35.282 25.8333 35.6582 25.8333 36.118V43.3115H4.16667V27.5902H11.1042C11.5625 27.5902 11.9375 27.2139 11.9375 26.7541C11.9375 26.2943 11.5625 25.918 11.1042 25.918H3.33333C2.875 25.918 2.5 26.2943 2.5 26.7541V43.3115H0.833333C0.375 43.3115 0 43.6877 0 44.1475V45.8197C0 48.1293 1.86458 50 4.16667 50H25.8333C28.1354 50 30 48.1293 30 45.8197V44.1475C30 43.6877 29.625 43.3115 29.1667 43.3115ZM28.3333 45.8197C28.3333 47.2096 27.2187 48.3279 25.8333 48.3279H24.1667V47.4918C24.1667 47.032 23.7917 46.6557 23.3333 46.6557C22.875 46.6557 22.5 47.032 22.5 47.4918V48.3279H7.5V47.4918C7.5 47.032 7.125 46.6557 6.66667 46.6557C6.20833 46.6557 5.83333 47.032 5.83333 47.4918V48.3279H4.16667C2.78125 48.3279 1.66667 47.2096 1.66667 45.8197V44.9836H28.3333V45.8197Z" fill="#8DD3A0"/>
<path d="M43.3333 5.85246H45C45.4583 5.85246 45.8333 5.47623 45.8333 5.01639C45.8333 4.55656 45.4583 4.18033 45 4.18033H43.3333C41.9479 4.18033 40.8333 5.29857 40.8333 6.68852V7.52459H40C39.5417 7.52459 39.1667 7.90082 39.1667 8.36066C39.1667 8.82049 39.5417 9.19672 40 9.19672H40.8333V11.7049C40.8333 12.1648 41.2083 12.541 41.6667 12.541C42.125 12.541 42.5 12.1648 42.5 11.7049V9.19672H43.3333C43.7917 9.19672 44.1667 8.82049 44.1667 8.36066C44.1667 7.90082 43.7917 7.52459 43.3333 7.52459H42.5V6.68852C42.5 6.22869 42.875 5.85246 43.3333 5.85246Z" fill="#8DD3A0"/>
<path d="M47.5 0.836066H37.5C36.1146 0.836066 35 1.9543 35 3.34426V5.01639C35 5.47623 35.375 5.85246 35.8333 5.85246C36.2917 5.85246 36.6667 5.47623 36.6667 5.01639V3.34426C36.6667 2.88443 37.0417 2.5082 37.5 2.5082H47.5C47.9583 2.5082 48.3333 2.88443 48.3333 3.34426V13.377C48.3333 13.8369 47.9583 14.2131 47.5 14.2131H37.5C37.0417 14.2131 36.6667 13.8369 36.6667 13.377V8.36065C36.6667 7.90082 36.2917 7.52459 35.8333 7.52459C35.375 7.52459 35 7.90082 35 8.36065V13.377C35 14.767 36.1146 15.8852 37.5 15.8852H47.5C48.8854 15.8852 50 14.767 50 13.377V3.34426C50 1.9543 48.8854 0.836066 47.5 0.836066Z" fill="#8DD3A0"/>
<path d="M39.1667 34.2787C39.1667 36.1285 40.6562 37.623 42.5 37.623C44.3438 37.623 45.8333 36.1285 45.8333 34.2787C45.8333 32.4289 44.3438 30.9344 42.5 30.9344C40.6562 30.9344 39.1667 32.4289 39.1667 34.2787ZM44.1667 34.2787C44.1667 35.1984 43.4167 35.9508 42.5 35.9508C41.5833 35.9508 40.8333 35.1984 40.8333 34.2787C40.8333 33.359 41.5833 32.6066 42.5 32.6066C43.4167 32.6066 44.1667 33.359 44.1667 34.2787Z" fill="#8DD3A0"/>
<path d="M47.5 26.7541H37.5C36.1146 26.7541 35 27.8723 35 29.2623V39.2951C35 40.685 36.1146 41.8033 37.5 41.8033H47.5C48.8854 41.8033 50 40.685 50 39.2951V37.6229C50 37.1631 49.625 36.7869 49.1667 36.7869C48.7083 36.7869 48.3333 37.1631 48.3333 37.6229V39.2951C48.3333 39.7549 47.9583 40.1311 47.5 40.1311H37.5C37.0417 40.1311 36.6667 39.7549 36.6667 39.2951V29.2623C36.6667 28.8025 37.0417 28.4262 37.5 28.4262H47.5C47.9583 28.4262 48.3333 28.8025 48.3333 29.2623V34.2787C48.3333 34.7385 48.7083 35.1148 49.1667 35.1148C49.625 35.1148 50 34.7385 50 34.2787V29.2623C50 27.8723 48.8854 26.7541 47.5 26.7541Z" fill="#8DD3A0"/>
<path d="M18.7292 10.7434C18.8646 10.827 19.0104 10.8689 19.1667 10.8689C19.3021 10.8689 19.4271 10.8375 19.5417 10.7748L24.5417 8.2666C24.9479 8.05758 25.1146 7.55594 24.9063 7.13791C24.8229 6.98115 24.6979 6.85574 24.5417 6.77213L19.5417 4.26393C19.1354 4.05492 18.625 4.22213 18.4271 4.62971C18.3646 4.74467 18.3333 4.87008 18.3333 5.00594V10.0223C18.3333 10.3254 18.4792 10.5867 18.7292 10.7434ZM20 6.375L22.3021 7.52459L20 8.67418V6.375Z" fill="#8DD3A0"/>
<path d="M20.8333 15.0492C24.9792 15.0492 28.3333 11.684 28.3333 7.52459C28.3333 3.36516 24.9792 0 20.8333 0C16.6875 0 13.3333 3.36516 13.3333 7.52459C13.3333 11.684 16.6875 15.0492 20.8333 15.0492ZM20.8333 1.67213C24.0521 1.67213 26.6667 4.29529 26.6667 7.52459C26.6667 10.7539 24.0521 13.377 20.8333 13.377C17.6146 13.377 15 10.7539 15 7.52459C15 4.29529 17.6146 1.67213 20.8333 1.67213Z" fill="#8DD3A0"/>
<path d="M29.1667 18.3934C29.4271 18.3934 29.6771 18.268 29.8333 18.059L32.3333 14.7148C32.6042 14.349 32.5312 13.816 32.1667 13.5443C31.8021 13.2725 31.2812 13.3457 31 13.7115L28.5 17.0557C28.2188 17.4215 28.3021 17.9441 28.6667 18.2262C28.8125 18.3307 28.9896 18.3934 29.1667 18.3934Z" fill="#8DD3A0"/>
<path d="M31 21.4033C31.1562 21.6123 31.4062 21.7377 31.6667 21.7377C31.8437 21.7377 32.0208 21.675 32.1667 21.5705L35.5 19.0623C35.8646 18.7801 35.9479 18.2576 35.6667 17.8918C35.3854 17.526 34.8646 17.4424 34.5 17.7246L31.1667 20.2328C30.8021 20.515 30.7187 21.0375 31 21.4033Z" fill="#8DD3A0"/>
<path d="M39.1667 23.2426C39.0833 22.7932 38.6562 22.4902 38.1979 22.5633C38.1875 22.5633 38.1771 22.5633 38.1667 22.5738L34 23.4098C33.5417 23.4516 33.2083 23.8697 33.25 24.3295C33.2917 24.7893 33.7083 25.1238 34.1667 25.082H34.3333L38.5 24.2459C38.9479 24.1623 39.25 23.7338 39.1771 23.274C39.1667 23.2635 39.1667 23.2531 39.1667 23.2426Z" fill="#8DD3A0"/>
<path d="M0.833333 23.4098H10.8333C11.2917 23.4098 11.6667 23.0336 11.6667 22.5738V9.19672C11.6667 8.73689 11.2917 8.36066 10.8333 8.36066H0.833333C0.375 8.36066 0 8.73689 0 9.19672V22.5738C0 23.0336 0.375 23.4098 0.833333 23.4098ZM1.66667 10.0328H10V21.7377H1.66667V10.0328Z" fill="#8DD3A0"/>
<path d="M7.5 11.7049H5.83333C5.375 11.7049 5 12.0811 5 12.541C5 13.0008 5.375 13.377 5.83333 13.377H7.5C7.95833 13.377 8.33333 13.0008 8.33333 12.541C8.33333 12.0811 7.95833 11.7049 7.5 11.7049Z" fill="#8DD3A0"/>
<path d="M7.5 15.0492H4.16667C3.70833 15.0492 3.33333 15.4254 3.33333 15.8852C3.33333 16.3451 3.70833 16.7213 4.16667 16.7213H7.5C7.95833 16.7213 8.33333 16.3451 8.33333 15.8852C8.33333 15.4254 7.95833 15.0492 7.5 15.0492Z" fill="#8DD3A0"/>
<path d="M7.5 18.3934H4.16667C3.70833 18.3934 3.33333 18.7697 3.33333 19.2295C3.33333 19.6893 3.70833 20.0656 4.16667 20.0656H7.5C7.95833 20.0656 8.33333 19.6893 8.33333 19.2295C8.33333 18.7697 7.95833 18.3934 7.5 18.3934Z" fill="#8DD3A0"/>
<path d="M28.4375 23.159C28.2083 22.7619 27.6979 22.6156 27.2917 22.8455C26.8958 23.0754 26.75 23.5875 26.9792 23.9951L30.6562 30.3701L17.3229 35.3865C17.3229 35.3865 17.3229 35.3865 17.2604 35.3865H17.1979L15.0312 36.6406L13.5937 37.4766C13.2083 37.6961 12.75 37.7588 12.3229 37.6439C11.8958 37.5289 11.5312 37.2467 11.3125 36.8705L9.64583 33.9756C9.23958 33.1918 9.51042 32.2199 10.2708 31.7705L13.1562 30.0984L15.2396 33.7143C15.3854 33.9756 15.6667 34.1324 15.9687 34.1324C16.4271 34.1324 16.8021 33.7666 16.8021 33.2963C16.8021 33.15 16.7604 33.0037 16.6875 32.8783L14.5417 29.1578L25 20.5045L25.3438 21.1002C25.5729 21.4973 26.0833 21.6436 26.4896 21.4137C26.8854 21.1838 27.0312 20.6717 26.8021 20.2641L25.9688 18.8219C25.8438 18.6129 25.6354 18.4666 25.3958 18.4248C25.1562 18.383 24.9062 18.4457 24.7083 18.6025L13.0417 28.2486L9.47917 30.2865C8.16667 31.0494 7.54167 32.6066 7.94792 34.0697L7.11458 34.5504C5.91667 35.2402 5.5 36.7764 6.1875 37.9783C6.52083 38.5531 7.0625 38.9816 7.70833 39.1488C7.91667 39.201 8.13542 39.2324 8.35417 39.2324C8.79167 39.2324 9.21875 39.1174 9.60417 38.8979L10.4375 38.4172C10.8333 38.8352 11.3438 39.1279 11.8958 39.2846C12.1771 39.3682 12.4792 39.3996 12.7708 39.3996C13.3542 39.3996 13.9271 39.2428 14.4375 38.9502L15.1667 38.5322L16.8333 41.4375C17.5208 42.6289 19.0521 43.0469 20.2396 42.3572C21.4375 41.6674 21.8438 40.1311 21.1562 38.9293L19.6354 36.2748L32.1354 31.5719C32.3646 31.4883 32.5417 31.3002 32.625 31.0703C32.7083 30.8404 32.6875 30.5896 32.5625 30.3805L28.4375 23.159ZM8.75 37.4453C8.5625 37.5602 8.33333 37.5916 8.11458 37.5289C7.90625 37.4766 7.71875 37.3303 7.60417 37.1422C7.48958 36.9541 7.45833 36.7242 7.52083 36.5047C7.58333 36.2852 7.71875 36.1076 7.91667 35.9926L8.64583 35.5746L9.47917 37.0168L8.75 37.4453ZM19.7188 39.7863C19.8333 39.9744 19.8646 40.2043 19.8021 40.4238C19.7396 40.6328 19.6042 40.8209 19.4062 40.9254C19.0104 41.1553 18.5 41.0195 18.2708 40.6223L16.6042 37.717L17.9896 36.9227H18.0521L19.7188 39.7863Z" fill="#8DD3A0"/>
</svg>
