<?xml version="1.0" encoding="utf-8"?>
<!-- Generator: Adobe Illustrator 26.0.2, SVG Export Plug-In . SVG Version: 6.00 Build 0)  -->
<svg version="1.1" id="Layer_1" xmlns="http://www.w3.org/2000/svg" xmlns:xlink="http://www.w3.org/1999/xlink" x="0px" y="0px"
	 viewBox="0 0 246 246" style="enable-background:new 0 0 246 246;" xml:space="preserve">
<style type="text/css">
	.st0{fill:#FFFFFF;}
</style>
<path class="st0" d="M94.5,192L39,136.9l25.3-25.1l30.2,30.1L182.7,54L208,79.1L94.5,192z"/>
<g>
	<path class="st0" d="M123,246C55.2,246,0,190.8,0,123S55.2,0,123,0s123,55.2,123,123S190.8,246,123,246z M123,3
		C56.8,3,3,56.8,3,123c0,66.2,53.8,120,120,120c66.2,0,120-53.8,120-120C243,56.8,189.2,3,123,3z"/>
</g>
</svg>
