<svg width="50" height="50" viewBox="0 0 50 50" fill="none" xmlns="http://www.w3.org/2000/svg">
<path d="M26.3103 34.6774H23.6897C23.2035 34.6774 22.8793 35 22.8793 35.4839C22.8793 35.9677 23.2035 36.2903 23.6897 36.2903H26.3103C26.7966 36.2903 27.1207 35.9677 27.1207 35.4839C27.1207 35 26.7966 34.6774 26.3103 34.6774Z" fill="#8DD3A0"/>
<path d="M44.9483 3.46774V2.41935C44.9483 1.04839 43.8948 0 42.5172 0H39.2759C38.7897 0 38.4655 0.322581 38.4655 0.806452C38.4655 1.29032 38.7897 1.6129 39.2759 1.6129H42.5172C43.0034 1.6129 43.3276 1.93548 43.3276 2.41935V8.06452H6.67241V2.41935C6.67241 1.93548 6.99655 1.6129 7.48276 1.6129H31.9828C32.469 1.6129 32.7931 1.29032 32.7931 0.806452C32.7931 0.322581 32.469 0 31.9828 0H7.48276C6.10517 0 5.05172 1.04839 5.05172 2.41935V3.46774C2.62069 4.19355 1 6.37097 1 8.87097V34.6774C1 37.8226 3.51207 40.3226 6.67241 40.3226H18.3414L15.5862 48.3871H14.7759C14.2897 48.3871 13.9655 48.7097 13.9655 49.1936C13.9655 49.6774 14.2897 50 14.7759 50H35.2241C35.7103 50 36.0345 49.6774 36.0345 49.1936C36.0345 48.7097 35.7103 48.3871 35.2241 48.3871H34.4138L31.6586 40.3226H43.3276C46.4879 40.3226 49 37.8226 49 34.6774V8.87097C49 6.37097 47.3793 4.19355 44.9483 3.46774ZM43.3276 9.67742V25.8065C43.3276 26.2903 43.0034 26.6129 42.5172 26.6129H7.48276C6.99655 26.6129 6.67241 26.2903 6.67241 25.8065V9.67742H43.3276ZM5.05172 5.16129V25.8065C5.05172 27.1774 6.10517 28.2258 7.48276 28.2258H42.5172C43.8948 28.2258 44.9483 27.1774 44.9483 25.8065V5.16129C46.4069 5.80645 47.3793 7.25806 47.3793 8.87097V30.6452H2.62069V8.87097C2.62069 7.25806 3.5931 5.80645 5.05172 5.16129ZM32.7121 48.3871H17.2879L20.0431 40.3226H29.8759L32.7121 48.3871ZM43.3276 38.7097H6.67241C4.40345 38.7097 2.62069 36.9355 2.62069 34.6774V32.2581H47.3793V34.6774C47.3793 36.9355 45.5966 38.7097 43.3276 38.7097Z" fill="#8DD3A0"/>
<path d="M35.2241 1.6129H36.0345C36.5207 1.6129 36.8448 1.29032 36.8448 0.806452C36.8448 0.322581 36.5207 0 36.0345 0H35.2241C34.7379 0 34.4138 0.322581 34.4138 0.806452C34.4138 1.29032 34.7379 1.6129 35.2241 1.6129Z" fill="#8DD3A0"/>
<path d="M39.2759 6.45161C40.1709 6.45161 40.8966 5.72949 40.8966 4.83871C40.8966 3.94793 40.1709 3.22581 39.2759 3.22581C38.3808 3.22581 37.6552 3.94793 37.6552 4.83871C37.6552 5.72949 38.3808 6.45161 39.2759 6.45161Z" fill="#8DD3A0"/>
<path d="M34.4138 6.45161C35.3089 6.45161 36.0345 5.72949 36.0345 4.83871C36.0345 3.94793 35.3089 3.22581 34.4138 3.22581C33.5187 3.22581 32.7931 3.94793 32.7931 4.83871C32.7931 5.72949 33.5187 6.45161 34.4138 6.45161Z" fill="#8DD3A0"/>
<path d="M29.5517 6.45161C30.4468 6.45161 31.1724 5.72949 31.1724 4.83871C31.1724 3.94793 30.4468 3.22581 29.5517 3.22581C28.6566 3.22581 27.931 3.94793 27.931 4.83871C27.931 5.72949 28.6566 6.45161 29.5517 6.45161Z" fill="#8DD3A0"/>
<path d="M9.91379 4.03226C9.42759 4.03226 9.10345 4.35484 9.10345 4.83871C9.10345 5.32258 9.42759 5.64516 9.91379 5.64516H23.6897C24.1759 5.64516 24.5 5.32258 24.5 4.83871C24.5 4.35484 24.1759 4.03226 23.6897 4.03226H9.91379Z" fill="#8DD3A0"/>
<path d="M10.0759 21.371C10.2379 21.6129 10.481 21.6935 10.7241 21.7742C10.8862 21.7742 11.0483 21.6935 11.2103 21.6129C11.6155 21.371 11.6966 20.8871 11.4534 20.4839L10.0759 18.5484L11.3724 16.5323C11.6155 16.129 11.4534 15.6452 11.0483 15.4032C10.7241 15.2419 10.319 15.3226 9.99483 15.6452L8.37414 18.0645C8.21207 18.3065 8.21207 18.7097 8.37414 18.9516L10.0759 21.371Z" fill="#8DD3A0"/>
<path d="M16.8017 21.6129C16.9638 21.6935 17.1259 21.7742 17.2069 21.7742C17.45 21.7742 17.6931 21.6129 17.8552 21.371L19.4759 18.9516C19.6379 18.7097 19.6379 18.3065 19.4759 18.0645L17.8552 15.6452C17.6931 15.3226 17.2069 15.1613 16.8017 15.3226C16.3966 15.4839 16.2345 16.0484 16.4776 16.4516C16.4776 16.5323 16.5586 16.5323 16.5586 16.6129L17.8552 18.629L16.5586 20.6452C16.3155 20.8871 16.3966 21.371 16.8017 21.6129Z" fill="#8DD3A0"/>
<path d="M12.9931 22.4194C13.0741 22.4194 13.1552 22.4194 13.1552 22.4194C13.5603 22.4194 13.8845 22.1774 13.9655 21.7742L15.5862 15.5645C15.6672 15.1613 15.4241 14.6774 15.019 14.5968C14.6138 14.5161 14.1276 14.7581 14.0466 15.1613L12.4259 21.371C12.2638 21.8548 12.5069 22.3387 12.9931 22.4194C12.9121 22.4194 12.9121 22.4194 12.9931 22.4194Z" fill="#8DD3A0"/>
<path d="M25.5 25H39.2759C40.6535 25 41.7069 23.9516 41.7069 22.5806V14.5161C41.7069 13.1452 40.6535 12.0968 39.2759 12.0968H25.5C24.1224 12.0968 23.069 13.1452 23.069 14.5161V22.5806C23.069 23.9516 24.1224 25 25.5 25ZM32.3879 23.3871L31.3345 21.8548L33.7655 18.9516C33.9276 18.7903 34.1707 18.629 34.4138 18.629C34.6569 18.629 34.9 18.7097 35.0621 18.871L39.1138 23.3871H32.3879ZM30.4431 23.3871H25.8241L27.931 21.2903C28.0931 21.129 28.3362 21.0484 28.5793 21.0484C28.8224 21.0484 29.0655 21.2097 29.1466 21.4516L30.4431 23.3871ZM25.5 13.7097H39.2759C39.7621 13.7097 40.0862 14.0323 40.0862 14.5161V22.0968L36.2776 17.8226C35.7914 17.3387 35.1431 17.0161 34.4948 17.0161C33.7655 17.0161 33.1172 17.3387 32.631 17.9032L30.4431 20.4839C29.6328 19.4355 28.0931 19.1935 27.0397 19.9194C26.9586 20 26.8776 20.0806 26.7966 20.1613L24.6897 22.2581V14.5161C24.6897 14.0323 25.0138 13.7097 25.5 13.7097Z" fill="#8DD3A0"/>
<path d="M28.7414 18.5484C29.6365 18.5484 30.3621 17.8263 30.3621 16.9355C30.3621 16.0447 29.6365 15.3226 28.7414 15.3226C27.8463 15.3226 27.1207 16.0447 27.1207 16.9355C27.1207 17.8263 27.8463 18.5484 28.7414 18.5484Z" fill="#8DD3A0"/>
</svg>
