<svg width="60" height="60" viewBox="0 0 60 60" fill="none" xmlns="http://www.w3.org/2000/svg">
<path d="M8.82353 0H51.1765C56.1176 0 60 3.88235 60 8.82353V51.1765C60 56.1176 56.1176 60 51.1765 60H8.82353C3.88235 60 0 56.1176 0 51.1765V8.82353C0 3.88235 3.88235 0 8.82353 0Z" fill="#2575D6"/>
<path d="M47.9939 42.5222C47.628 42.8586 47.1645 43.0081 46.7437 43.2385C46.3229 43.4752 45.8899 43.6932 45.4569 43.8988C45.0605 44.0856 44.8104 43.9237 44.8104 43.4814C44.8043 42.6842 44.7982 41.8807 44.8104 41.0834C44.8165 40.8342 44.7373 40.6972 44.5177 40.5789C43.3956 39.9934 43.4017 39.9934 42.2978 40.5976C42.1027 40.7034 42.0356 40.8342 42.0417 41.0522C42.0539 41.8371 42.0478 42.6281 42.0417 43.4192C42.0417 43.9548 41.7977 44.1043 41.322 43.8676C40.8524 43.6309 40.389 43.3693 39.9133 43.1451C39.6144 43.0081 39.6754 42.8461 39.7852 42.6094C39.9072 42.354 40.0352 42.2606 40.2914 42.4288C40.4865 42.5534 40.7 42.6593 40.9134 42.7651C41.2915 42.9582 41.2915 42.9582 41.2976 42.5409C41.2976 41.918 41.3098 41.3014 41.2915 40.6785C41.2854 40.3796 41.3952 40.1865 41.6575 40.0557C42.1393 39.8127 42.621 39.5636 43.0967 39.3082C43.3224 39.1836 43.5358 39.1899 43.7615 39.3082C44.2189 39.5511 44.6702 39.8003 45.1398 40.0183C45.463 40.1678 45.5911 40.4045 45.5911 40.7533C45.585 41.3637 45.5972 41.9741 45.5911 42.5783C45.585 42.8399 45.6459 42.9395 45.9082 42.7901C46.2741 42.5845 46.6583 42.3914 47.0303 42.1983C47.195 42.1174 47.2682 41.9928 47.2621 41.7997C47.256 40.6785 47.256 39.5574 47.2621 38.43C47.2621 38.2182 47.1706 38.1061 46.9937 38.0189C46.3961 37.7199 45.8045 37.396 45.2068 37.1033C44.9202 36.96 44.7921 36.7669 44.7921 36.4368C44.7982 32.139 44.7982 27.8412 44.7921 23.5434C44.7921 23.2133 44.9019 23.014 45.1946 22.8707C45.7862 22.5842 46.3656 22.2603 46.951 21.9738C47.1706 21.8679 47.2621 21.7308 47.256 21.4755C47.2438 20.3917 47.2438 19.3017 47.256 18.2179C47.256 17.9999 47.1828 17.8628 46.9876 17.7694C46.6095 17.5825 46.2314 17.3832 45.8655 17.1777C45.6398 17.0531 45.5789 17.1216 45.5789 17.3645C45.585 17.9625 45.5728 18.5604 45.585 19.1584C45.5911 19.557 45.463 19.8311 45.0788 19.9993C44.6397 20.1924 44.2189 20.4353 43.7981 20.672C43.548 20.809 43.3224 20.8152 43.0662 20.6782C42.6271 20.4291 42.1758 20.1924 41.7184 19.9806C41.4013 19.8124 41.2733 19.5819 41.2854 19.2082C41.3098 18.5978 41.2854 17.9936 41.2915 17.3832C41.2976 17.1278 41.2611 17.0157 40.9866 17.1714C40.6085 17.3894 40.2182 17.5825 39.8279 17.7756C39.6449 17.8628 39.5717 17.9874 39.5717 18.193C39.5778 19.3017 39.5778 20.4166 39.5717 21.5253C39.5717 21.7371 39.651 21.8492 39.8279 21.9426C40.4499 22.2541 41.0598 22.5842 41.6819 22.8956C41.9319 23.0202 42.0417 23.2008 42.0417 23.4873C42.0356 27.8225 42.0356 32.1577 42.0417 36.4866C42.0417 36.7731 41.938 36.9538 41.6819 37.0783C41.1025 37.3649 40.5353 37.6825 39.956 37.9566C39.6754 38.0874 39.523 38.2556 39.5778 38.5857C39.5961 38.704 39.5778 38.8224 39.5778 38.9407C39.5778 39.14 39.5169 39.302 39.3217 39.3643C39.1753 39.4141 39.1265 39.52 39.0778 39.6383C38.8216 40.255 38.8155 40.255 39.2851 40.7408C39.6388 41.1083 39.6388 41.2391 39.2912 41.6004C38.8765 42.0239 38.4679 42.4475 38.0471 42.8648C37.7544 43.1575 37.5958 43.1513 37.3031 42.8648C37.2177 42.7838 37.1262 42.7029 37.0591 42.6094C36.8823 42.3727 36.7054 42.379 36.431 42.4724C36.0041 42.6156 35.8882 42.8523 35.9187 43.2883C35.9553 43.8988 35.8638 43.9673 35.2661 43.9673C34.7051 43.9673 34.144 43.9735 33.5768 43.9673C33.1865 43.961 33.0828 43.8614 33.0401 43.469C33.0341 43.388 33.0219 43.3008 33.028 43.2198C33.0706 42.8523 32.9548 42.6406 32.5828 42.4973C32.2778 42.3727 32.1132 42.4039 31.8936 42.6406C31.3325 43.251 31.2838 43.2385 30.7044 42.6468C30.4543 42.3914 30.1799 42.161 29.9665 41.8807C29.6188 41.426 29.1919 41.2889 28.6309 41.3139C27.5575 41.3637 26.4781 41.3325 25.3986 41.3263C25.173 41.3263 25.0388 41.4073 24.9168 41.6004C22.947 44.7895 18.6719 44.8019 16.6776 41.6253C16.5435 41.4073 16.391 41.3201 16.1409 41.3263C14.9456 41.3388 13.7503 41.3325 12.555 41.3325C12.3537 41.3325 12.1586 41.3201 12 41.1644C12 39.7816 12 38.3926 12 37.0098C12.2622 36.7482 12.5977 36.8479 12.9026 36.8479C13.1648 36.8479 13.2502 36.7545 13.2441 36.4928C13.2319 35.6333 13.2441 34.7737 13.238 33.9142C13.2319 33.6588 13.3051 33.4595 13.4698 33.2664C15.3603 31.1237 17.6961 29.8281 20.5075 29.4669C21.9285 29.2863 23.3617 29.4046 24.7888 29.3984C25.2035 29.3984 25.4718 29.28 25.7279 28.9437C26.4354 28.0218 27.1245 27.0875 27.9112 26.2342C30.1677 23.7676 32.9243 22.198 36.1626 21.5191C36.9311 21.3571 37.7056 21.2326 38.4923 21.2326C38.7606 21.2326 38.8277 21.1204 38.8277 20.8651C38.8277 19.8622 38.846 18.8594 38.8338 17.8566C38.8277 17.5452 38.9436 17.3458 39.218 17.2088C39.9194 16.8538 40.6146 16.4801 41.3159 16.1188C41.816 15.8634 42.0783 16.0191 42.0905 16.5922C42.1027 17.3708 42.1027 18.1431 42.0905 18.9217C42.0905 19.1522 42.1575 19.2892 42.3649 19.4013C43.4383 19.9868 43.4383 19.9868 44.5482 19.3826C44.7373 19.2767 44.8165 19.1522 44.8104 18.9342C44.7982 18.1493 44.8043 17.3583 44.8104 16.5735C44.8104 16.0378 45.0605 15.8759 45.524 16.1063C46.2375 16.4676 46.9449 16.8351 47.6524 17.2088C47.7744 17.2711 47.878 17.3708 47.9939 17.458C47.9939 19.0837 47.9939 20.7031 47.9939 22.3288C47.3048 22.6838 46.6278 23.0576 45.9326 23.3939C45.6459 23.5309 45.5545 23.7053 45.5545 24.023C45.5667 27.8723 45.5545 31.7217 45.5667 35.571C45.5667 36.58 45.4081 36.2811 46.2802 36.7669C46.8535 37.0846 47.4816 37.3026 48 37.7261C47.9939 39.3207 47.9939 40.9214 47.9939 42.5222ZM40.0474 23.014C40.0535 22.9953 40.0596 22.9704 40.0657 22.9517C39.9864 22.9081 39.895 22.8707 39.8218 22.8209C39.4742 22.5842 38.9802 22.5468 38.8033 22.061C38.7728 21.9738 38.6631 21.9987 38.5838 22.0049C38.1874 22.0423 37.791 22.0672 37.3945 22.117C34.3635 22.497 31.7168 23.7427 29.4359 25.8106C28.1308 26.9941 27.1367 28.4516 26.039 29.8157C25.8499 30.0524 25.6548 30.152 25.3559 30.1583C23.8923 30.177 22.4286 30.0898 20.9649 30.2143C19.5318 30.3389 18.1901 30.7562 16.9277 31.4538C16.8728 31.485 16.7874 31.4912 16.7874 31.6033C17.1045 31.6033 17.4156 31.5971 17.7327 31.6033C18.1169 31.6096 18.2267 31.7341 18.2206 32.1328C18.2084 33.1418 17.3058 34.0574 16.2873 34.0823C15.6409 34.0948 15.0005 34.0948 14.3541 34.0823C14.104 34.0761 13.9942 34.1509 14.0003 34.4249C14.0125 35.1163 14.0125 35.8077 14.0003 36.4991C13.9942 36.7482 14.0857 36.8354 14.3297 36.8292C14.9395 36.8167 15.5494 36.8105 16.1592 36.8292C16.4154 36.8354 16.5556 36.7358 16.6898 36.524C18.6841 33.3474 22.9409 33.366 24.929 36.5614C25.0388 36.742 25.1547 36.8354 25.3742 36.8292C26.3317 36.8167 27.2953 36.823 28.2528 36.823C28.3442 36.823 28.4723 36.8603 28.5211 36.7731C28.7528 36.3496 29.1492 36.4243 29.5152 36.4243C29.7286 36.4243 29.8506 36.3496 29.936 36.1378C30.1555 35.5772 30.1677 35.5835 29.7469 35.1537C29.7042 35.1101 29.6676 35.0665 29.6249 35.0291C29.3871 34.7924 29.3871 34.5557 29.6188 34.319C29.9604 33.9765 30.2958 33.6276 30.6373 33.2788C31.3021 32.5999 31.3021 32.5999 31.9851 33.2664C32.0827 33.366 32.1681 33.4782 32.3388 33.4408C32.9121 33.3162 33.0584 33.1418 33.0584 32.5314C33.0584 32.494 33.0584 32.4567 33.0584 32.4255C33.0645 31.9895 33.1865 31.8525 33.6256 31.84C34.083 31.8276 34.5404 31.8338 34.9978 31.8338C35.9065 31.8338 35.937 31.8649 35.9614 32.7992C35.9675 32.9363 35.9431 33.0795 36.0833 33.1854C36.5042 33.4968 36.803 33.4844 37.175 33.1107C37.1994 33.0858 37.2238 33.0608 37.2482 33.0359C37.6263 32.656 37.7483 32.656 38.1142 33.0235C38.4374 33.3536 38.7606 33.6837 39.0839 34.0138C39.712 34.6554 39.7181 34.6616 39.0839 35.2969C38.9009 35.4838 38.8338 35.6395 38.9619 35.8887C39.0961 36.144 39.1204 36.4742 39.5413 36.4243C39.7913 36.3932 40.0718 36.3558 40.2853 36.5489C40.4255 36.6797 40.5292 36.8043 40.7244 36.6548C40.95 36.4804 41.2915 36.4617 41.2915 36.0257C41.2793 32.0642 41.2794 28.0966 41.2854 24.1351C41.2854 23.8673 41.2245 23.7489 40.9317 23.7552C39.7852 23.7925 38.6387 23.7365 37.4921 23.805C35.1808 23.9545 33.1499 24.7954 31.3813 26.3152C30.9849 26.6577 30.6007 27.019 30.2531 27.5048C30.5885 27.5048 30.8691 27.5048 31.1435 27.5048C31.9729 27.5111 32.5462 28.109 32.4547 28.9561C32.412 29.3548 32.5523 29.3735 32.8633 29.3735C35.193 29.361 37.5226 29.3672 39.8584 29.3672C40.1023 29.3672 40.2853 29.3672 40.2853 29.7098C40.2853 30.0337 40.1938 30.1396 39.8645 30.1396C36.9615 30.1271 34.0525 30.1334 31.1496 30.1334C30.1189 30.1334 29.0883 30.1334 28.0576 30.1334C27.6002 30.1334 27.5087 30.0337 27.5026 29.5603C27.5026 29.3236 27.5026 29.0807 27.5026 28.844C27.5148 28.0592 28.0332 27.5048 28.8016 27.5111C29.0883 27.5111 29.2712 27.4114 29.4542 27.1934C31.729 24.4341 34.6197 23.014 38.1691 22.9953C38.8033 23.0077 39.4254 23.014 40.0474 23.014ZM39.4864 37.2465C39.2973 37.2465 39.1144 37.2465 38.9253 37.2465C38.6813 37.2527 38.5228 37.1344 38.4618 36.8977C38.3581 36.5115 38.2057 36.1565 38.0166 35.8077C37.9007 35.5897 37.9312 35.4091 38.0959 35.2222C38.5655 34.6741 38.5655 34.6741 38.0593 34.1571C37.6202 33.7086 37.6873 33.7273 37.2848 34.1571C37.0286 34.4312 36.7786 34.5059 36.4493 34.2817C36.2114 34.1259 35.9492 34.0076 35.6747 33.9515C35.2844 33.8706 35.132 33.6276 35.1381 33.2415C35.1564 32.5812 35.0954 32.6747 34.5526 32.6684C34.516 32.6684 34.4794 32.6684 34.4489 32.6684C33.7415 32.6747 33.8208 32.6124 33.8269 33.2975C33.833 33.6339 33.7049 33.8394 33.3817 33.9266C33.0402 34.0138 32.7169 34.1633 32.412 34.3377C32.1985 34.4561 32.0156 34.4312 31.8326 34.2692C31.2838 33.7958 31.2838 33.8021 30.7837 34.3128C30.7105 34.3875 30.6373 34.4685 30.558 34.5433C30.4421 34.6554 30.4421 34.7675 30.558 34.8796C30.6434 34.9606 30.7166 35.054 30.8081 35.135C31.0581 35.3592 31.1008 35.5959 30.9239 35.8949C30.7532 36.1814 30.6312 36.4928 30.5519 36.8167C30.4787 37.1406 30.2775 37.2527 29.9665 37.2527C29.259 37.2527 29.3261 37.1469 29.3261 37.9317C29.3261 37.9441 29.3261 37.9566 29.3261 37.969C29.3322 38.5608 29.2346 38.5981 29.8994 38.5981C30.1799 38.5981 30.4421 38.648 30.5275 38.9906C30.6251 39.3705 30.7776 39.7318 30.9727 40.0806C31.0825 40.2799 31.052 40.4605 30.9117 40.6412C30.7654 40.8342 30.43 40.9526 30.497 41.208C30.5519 41.4197 30.8081 41.5817 30.9727 41.7623C31.0154 41.8059 31.0581 41.8433 31.0947 41.8869C31.2411 42.0738 31.3874 42.0987 31.546 41.8994C31.6253 41.7997 31.729 41.7125 31.8204 41.6191C32.0034 41.4322 32.1985 41.4073 32.4242 41.5381C32.7352 41.7312 33.0767 41.8682 33.4244 41.9679C33.7049 42.0426 33.8208 42.217 33.8208 42.516C33.8269 43.2198 33.8391 43.2261 34.5404 43.2198C35.2783 43.2198 35.1747 43.2759 35.1686 42.5658C35.1686 42.2419 35.2844 42.0488 35.5955 41.9679C35.937 41.8807 36.2602 41.7374 36.5651 41.5568C36.7908 41.426 36.9798 41.4571 37.1689 41.6315C37.6934 42.0987 37.6934 42.0924 38.1935 41.5817C38.1996 41.5755 38.2118 41.563 38.2179 41.5568C38.5899 41.1831 38.5899 41.1831 38.2118 40.7906C37.8702 40.4356 37.8458 40.3546 38.102 39.9249C38.3581 39.4888 38.3581 38.9283 38.7423 38.5483C38.7789 38.5109 38.7789 38.4113 38.7667 38.3428C38.7118 37.8569 38.9131 37.5393 39.3644 37.3773C39.4254 37.3524 39.5047 37.3462 39.4864 37.2465ZM20.8125 43.2074C23.1238 43.1139 24.8253 41.3948 24.8253 39.084C24.8253 36.7295 23.0689 34.9917 20.7759 34.9668C18.5682 34.9419 16.7142 36.8479 16.7508 39.084C16.7996 41.4447 18.5377 43.1389 20.8125 43.2074ZM27.7588 40.5602C28.393 40.5602 29.0212 40.5664 29.6554 40.5602C30.064 40.554 30.1616 40.3546 30.0579 39.9685C29.9238 39.4951 29.6737 39.2958 29.198 39.3892C29.1431 39.4016 29.0822 39.3892 29.0212 39.3892C28.7162 39.3892 28.5699 39.2335 28.5699 38.922C28.5699 38.5981 28.5577 38.2805 28.5699 37.9566C28.5821 37.7074 28.515 37.5891 28.2406 37.5953C27.466 37.6078 26.6976 37.6078 25.9231 37.5953C25.6487 37.5891 25.5877 37.7012 25.5877 37.9566C25.5999 38.7103 25.5999 39.4577 25.5877 40.2114C25.5816 40.473 25.6669 40.5726 25.9292 40.5664C26.5451 40.554 27.155 40.5602 27.7588 40.5602ZM14.3663 40.5602C14.8115 40.5602 15.2566 40.554 15.7018 40.5602C15.9092 40.5664 16.0007 40.4917 15.9946 40.2674C15.9885 39.4702 15.9885 38.6667 15.9946 37.8694C15.9946 37.6701 15.9092 37.5953 15.7201 37.5953C14.8176 37.6016 13.915 37.6016 13.0124 37.5953C12.8233 37.5953 12.7379 37.6638 12.7379 37.8694C12.744 38.6667 12.744 39.4702 12.7379 40.2674C12.7379 40.4854 12.8233 40.5602 13.0307 40.5602C13.4759 40.554 13.9211 40.5602 14.3663 40.5602ZM29.8079 29.3859V29.3797C30.2653 29.3797 30.7166 29.3984 31.174 29.3735C31.4728 29.361 31.6741 29.1804 31.7107 28.8627C31.7411 28.6011 31.5155 28.3644 31.2167 28.3083C31.1496 28.2959 31.0764 28.2959 31.0093 28.2959C30.3446 28.2959 29.6798 28.2897 29.0151 28.2959C28.4723 28.3021 28.2589 28.5388 28.265 29.0932C28.265 29.3361 28.3686 29.3984 28.5821 29.3921C28.9907 29.3797 29.3993 29.3859 29.8079 29.3859ZM14.5858 33.3224C15.153 33.3224 15.6104 33.3349 16.0678 33.3162C16.4764 33.3038 16.8606 33.1916 17.135 32.8553C17.2387 32.7307 17.3973 32.5812 17.3241 32.4255C17.257 32.2947 17.0679 32.4068 16.9338 32.4131C16.8423 32.4193 16.7447 32.4255 16.6532 32.438C15.9092 32.5314 15.2566 32.8179 14.5858 33.3224ZM34.4855 40.828C32.8877 40.828 31.6558 39.5511 31.6619 37.9068C31.668 36.2998 32.9182 35.0478 34.5099 35.0478C36.1077 35.0478 37.3397 36.3247 37.3336 37.969C37.3275 39.5698 36.0772 40.828 34.4855 40.828ZM34.4977 37.6016C33.9244 37.6016 33.3512 37.614 32.7779 37.5953C32.4913 37.5891 32.412 37.7324 32.4242 37.9877C32.4791 39.1276 33.4061 40.0494 34.5038 40.0494C35.6016 40.0494 36.5285 39.1214 36.5773 37.9877C36.5895 37.7261 36.5042 37.5891 36.2175 37.5953C35.6442 37.614 35.071 37.6016 34.4977 37.6016ZM34.4977 36.8354C34.9917 36.8354 35.4796 36.8354 35.9736 36.8354C36.0407 36.8354 36.126 36.8603 36.1687 36.7856C36.2114 36.7109 36.1382 36.6548 36.0955 36.605C35.3454 35.5897 33.6622 35.5835 32.906 36.605C32.8633 36.661 32.7901 36.7109 32.8328 36.7856C32.8694 36.8603 32.9548 36.8354 33.0219 36.8354C33.5158 36.8354 34.0098 36.8354 34.4977 36.8354ZM23.4227 39.1027C23.4166 40.5976 22.2578 41.7623 20.7759 41.7561C19.3122 41.7499 18.1657 40.5664 18.1718 39.0591C18.1779 37.5642 19.3366 36.3994 20.8186 36.4056C22.2822 36.4119 23.4227 37.5953 23.4227 39.1027ZM20.7881 37.178C19.7879 37.1905 18.9219 38.0812 18.9341 39.0902C18.9463 40.1117 19.8245 40.9962 20.8125 40.9837C21.8126 40.9713 22.6786 40.0806 22.6664 39.0715C22.6481 38.05 21.776 37.1655 20.7881 37.178Z" fill="white"/>
</svg>
