<svg width="60" height="60" viewBox="0 0 60 60" fill="none" xmlns="http://www.w3.org/2000/svg">
<path d="M8.82353 0H51.1765C56.1176 0 60 3.88235 60 8.82353V51.1765C60 56.1176 56.1176 60 51.1765 60H8.82353C3.88235 60 0 56.1176 0 51.1765V8.82353C0 3.88235 3.88235 0 8.82353 0Z" fill="#2575D6"/>
<path d="M27.0701 36.1519C26.8785 36.1519 26.7272 36.1519 26.586 36.1519C22.3494 36.1519 18.1027 36.1519 13.8661 36.1519C12.6355 36.1519 12 35.5149 12 34.2614C12 28.1377 12 22.0141 12 15.8802C12 14.637 12.6355 14 13.8661 14C22.6923 14 31.5085 14 40.3347 14C41.5754 14 42.221 14.6473 42.221 15.9213C42.221 20.2264 42.221 24.5314 42.221 28.8364C42.221 29.0008 42.221 29.1652 42.221 29.381C42.3824 29.381 42.5135 29.381 42.6446 29.381C43.6937 29.381 44.7327 29.381 45.7817 29.381C46.5484 29.381 47.0225 29.8125 47.083 30.5728C47.2847 33.0387 47.4764 35.5046 47.6781 37.9705C47.7689 39.1212 47.8395 40.272 47.9606 41.4124C48.1219 42.892 47.8092 44.1865 46.6291 45.1729C46.0037 45.6969 45.2774 45.9743 44.4805 45.9846C42.1605 46.0051 39.8505 46.0051 37.5305 45.9846C36.6126 45.9743 35.8258 45.6147 35.1398 44.988C35.0087 44.8647 34.7969 44.7722 34.6254 44.7722C33.2535 44.7516 31.8817 44.7619 30.5098 44.7619C28.1898 44.7516 26.6061 43.0461 26.7474 40.6932C26.818 39.45 26.939 38.2171 27.0298 36.9738C27.0399 36.7272 27.05 36.4704 27.0701 36.1519ZM34.817 31.6311C34.8473 31.292 34.8776 30.9941 34.8977 30.7064C34.9583 29.833 35.4122 29.381 36.2797 29.381C37.712 29.381 39.1444 29.381 40.5869 29.381C40.718 29.381 40.8491 29.3707 40.9803 29.3604C40.9803 25.8568 40.9803 22.4046 40.9803 18.942C31.7203 18.942 22.4704 18.942 13.2105 18.942C13.2105 19.0962 13.2105 19.2195 13.2105 19.3428C13.2105 24.3053 13.2105 29.2577 13.2105 34.2203C13.2105 34.8162 13.3012 34.9087 13.8863 34.9087C18.1733 34.9087 22.4704 34.9087 26.7574 34.9087C26.8886 34.9087 27.0298 34.9087 27.171 34.9087C27.2013 34.6107 27.2215 34.3538 27.2517 34.1072C27.3324 33.388 27.6855 33.0695 28.4016 33.0695C28.785 33.0695 29.1784 33.0695 29.5516 33.0695C30.1669 30.6961 32.9106 29.7714 34.817 31.6311ZM36.1284 30.6345C36.1183 30.7269 36.1082 30.7988 36.1082 30.8708C35.9165 33.2956 35.7148 35.7203 35.5231 38.1451C35.4223 39.3986 35.3315 40.6521 35.2306 41.8953C35.0995 43.4673 36.1082 44.7311 37.5607 44.7516C39.8606 44.7722 42.1706 44.7722 44.4704 44.7516C45.5094 44.7414 46.4475 44.0016 46.6795 42.9844C46.7904 42.5221 46.7703 42.0186 46.74 41.5357C46.5282 38.7102 46.3063 35.895 46.0843 33.0695C46.0238 32.2578 45.9532 31.4461 45.8826 30.6242C42.6043 30.6345 39.3764 30.6345 36.1284 30.6345ZM41.0004 17.6783C41.0004 17.0926 41.0004 16.5378 41.0004 15.9933C41.0004 15.3357 40.9097 15.2432 40.2641 15.2432C31.4883 15.2432 22.7125 15.2432 13.9468 15.2432C13.8359 15.2432 13.6946 15.2021 13.6139 15.2535C13.4626 15.3562 13.2407 15.5001 13.2306 15.6439C13.1903 16.3015 13.2105 16.9796 13.2105 17.6783C22.4805 17.6783 31.7203 17.6783 41.0004 17.6783ZM30.7519 34.323C30.6914 34.8059 30.873 35.4738 30.1669 35.5046C29.3498 35.5457 29.5818 34.7956 29.5112 34.323C29.138 34.323 28.8051 34.323 28.4521 34.323C28.4319 34.6312 28.4016 34.9087 28.3815 35.1861C28.2302 37.0869 28.0688 38.9876 27.9477 40.8987C27.8569 42.2447 28.785 43.416 30.0963 43.4982C31.448 43.5804 32.8097 43.5187 34.1816 43.5187C34.1109 43.0974 34.0403 42.6865 33.9798 42.296C32.9106 42.296 31.8615 42.296 30.8226 42.296C30.3989 42.296 30.1467 42.0597 30.1467 41.6898C30.1467 41.32 30.3989 41.0734 30.8125 41.0734C31.9019 41.0631 32.9812 41.0734 34.0908 41.0734C34.2623 38.8438 34.4438 36.5937 34.6254 34.323C33.2939 34.323 32.033 34.323 30.7519 34.323ZM30.8831 33.049C32.0027 33.049 33.0922 33.049 34.2017 33.049C33.9395 32.3195 33.2838 31.8571 32.5474 31.8571C31.801 31.8571 31.1252 32.3297 30.8831 33.049Z" fill="white"/>
<path d="M25.9 27.6343C25.9 28.97 25.9 30.2337 25.9 31.4975C25.9 32.6483 25.4764 33.0695 24.3466 33.0695C22.5007 33.0695 20.6447 33.0695 18.7987 33.0695C17.9211 33.0695 17.447 32.5866 17.447 31.6927C17.447 30.357 17.447 29.0316 17.447 27.7062C17.3966 27.6959 17.3663 27.6857 17.3563 27.6857C16.3475 28.1275 15.702 27.8295 15.3489 26.761C15.1169 26.0417 14.8748 25.3328 14.6428 24.6136C14.4108 23.8944 14.5722 23.4115 15.1875 22.9902C16.1862 22.3018 17.1949 21.6237 18.2036 20.9456C18.7987 20.5449 19.8276 20.7195 20.2513 21.2744C20.9775 22.2299 22.3696 22.2299 23.0958 21.2846C23.4993 20.7504 24.5181 20.5449 25.083 20.9148C26.1623 21.6237 27.2215 22.3532 28.2806 23.093C28.7648 23.432 28.9161 23.9355 28.7345 24.5211C28.4723 25.3533 28.21 26.1753 27.9275 26.9973C27.6552 27.809 26.9491 28.1069 26.1724 27.7576C26.0917 27.7165 26.0211 27.6959 25.9 27.6343ZM15.7322 24.0999C16.0147 24.9629 16.287 25.7952 16.5795 26.6685C16.9225 26.4938 17.2251 26.3397 17.5277 26.1856C18.2439 25.8157 18.6474 26.0623 18.6474 26.8843C18.6474 28.3946 18.6474 29.905 18.6474 31.4153C18.6474 31.5489 18.6575 31.6825 18.6676 31.8366C20.685 31.8366 22.6621 31.8366 24.6896 31.8366C24.6896 31.6825 24.6896 31.5489 24.6896 31.405C24.6896 29.8536 24.6896 28.3021 24.6896 26.7507C24.6896 26.1034 25.0931 25.8465 25.668 26.1239C26.0211 26.2883 26.364 26.4733 26.7474 26.6582C27.0298 25.7849 27.3122 24.9424 27.5846 24.0896C26.5759 23.4012 25.5974 22.7333 24.6089 22.0758C24.3769 21.9217 24.1348 21.9319 23.9028 22.1785C22.6318 23.5656 20.7052 23.5656 19.4039 22.1682C19.1921 21.9319 18.95 21.9217 18.7281 22.0655C17.7396 22.7231 16.751 23.4115 15.7322 24.0999Z" fill="white"/>
<path d="M33.7276 22.6203C32.7895 22.6203 31.8413 22.6203 30.9032 22.6203C30.409 22.6203 30.1467 22.4148 30.1366 22.0244C30.1265 21.6134 30.3989 21.3977 30.9032 21.3977C32.7996 21.3977 34.696 21.3977 36.6025 21.3977C37.0766 21.3977 37.3489 21.6237 37.3489 22.0141C37.3489 22.4046 37.0766 22.6203 36.6025 22.6306C35.6442 22.6203 34.6859 22.6203 33.7276 22.6203Z" fill="white"/>
<path d="M33.768 23.843C34.7061 23.843 35.6543 23.843 36.5924 23.843C37.0766 23.843 37.3388 24.069 37.3489 24.4492C37.3489 24.8396 37.0866 25.0657 36.6126 25.0657C34.7061 25.0657 32.7895 25.0657 30.8831 25.0657C30.409 25.0657 30.1467 24.8396 30.1467 24.4389C30.1568 24.0588 30.409 23.843 30.8629 23.8327C31.8313 23.843 32.7996 23.843 33.768 23.843Z" fill="white"/>
<path d="M33.7377 26.3089C34.696 26.3089 35.6442 26.3089 36.6025 26.3089C37.0766 26.3089 37.3489 26.5349 37.3489 26.9253C37.3489 27.3158 37.0766 27.5418 36.6025 27.5418C34.696 27.5418 32.7795 27.5418 30.873 27.5418C30.3989 27.5418 30.1366 27.3055 30.1467 26.9151C30.1568 26.5349 30.409 26.3192 30.873 26.3192C31.8212 26.3089 32.7794 26.3089 33.7377 26.3089Z" fill="white"/>
<path d="M41.0408 36.7375C39.0234 36.7375 37.48 35.2785 37.3893 33.3058C37.3691 32.7921 37.5708 32.4941 37.9541 32.4736C38.3173 32.4633 38.5493 32.7407 38.5896 33.2236C38.6905 34.436 39.5076 35.3094 40.6877 35.4943C41.9285 35.6792 43.1591 34.7751 43.3709 33.5113C43.3911 33.3572 43.4113 33.2031 43.4314 33.049C43.4819 32.6791 43.724 32.4428 44.0568 32.4633C44.3998 32.4839 44.6419 32.7716 44.6318 33.1414C44.5915 35.073 43.2398 36.5423 41.3535 36.7067C41.2224 36.717 41.1114 36.7272 41.0408 36.7375Z" fill="white"/>
<path d="M40.9803 42.9228C40.2237 42.9228 39.4672 42.9228 38.7208 42.9228C38.2668 42.9228 38.0046 42.707 37.9945 42.3269C37.9844 41.9262 38.2467 41.7001 38.7208 41.7001C40.2338 41.7001 41.7368 41.7001 43.2499 41.7001C43.724 41.7001 43.9963 41.9262 43.9963 42.3166C43.9963 42.707 43.724 42.9228 43.2499 42.9331C42.4933 42.9228 41.7368 42.9228 40.9803 42.9228Z" fill="white"/>
<path d="M34.9381 16.4556C34.9381 16.7947 34.6657 17.0721 34.343 17.0721C34.0202 17.0618 33.7579 16.7844 33.768 16.4453C33.7781 16.1166 34.0303 15.8597 34.343 15.8494C34.6557 15.8391 34.9381 16.1268 34.9381 16.4556Z" fill="white"/>
<path d="M36.784 15.8494C37.1068 15.8597 37.3691 16.1576 37.359 16.4864C37.3489 16.8049 37.0766 17.0721 36.7739 17.0721C36.4512 17.0721 36.1889 16.7947 36.1889 16.4453C36.1889 16.1063 36.4612 15.8391 36.784 15.8494Z" fill="white"/>
<path d="M39.1747 17.0721C38.8519 17.0618 38.5896 16.7844 38.5997 16.4453C38.6098 16.1063 38.8822 15.8391 39.215 15.8494C39.5277 15.8597 39.7799 16.1371 39.7799 16.4556C39.7698 16.7947 39.4975 17.0824 39.1747 17.0721Z" fill="white"/>
</svg>
