<svg width="60" height="60" viewBox="0 0 60 60" fill="none" xmlns="http://www.w3.org/2000/svg">
<path d="M8.82353 0H51.1765C56.1176 0 60 3.88235 60 8.82353V51.1765C60 56.1176 56.1176 60 51.1765 60H8.82353C3.88235 60 0 56.1176 0 51.1765V8.82353C0 3.88235 3.88235 0 8.82353 0Z" fill="#2575D6"/>
<path d="M44.0332 45C43.545 45 43.2338 44.6106 43.2277 44.017V43.8574C43.2277 43.2511 43.2216 42.6255 43.2338 42.0064C43.2399 41.7 43.1422 41.4511 42.9286 41.2277C42.0987 40.366 41.2626 39.4915 40.457 38.6489C39.9444 38.1128 39.9444 37.6915 40.4509 37.1553C41.2504 36.3128 42.0743 35.4447 42.8981 34.6021C43.13 34.366 43.2338 34.0979 43.2338 33.766C43.2277 30.8489 43.2277 27.983 43.2338 25.2574C43.2338 25.0851 43.2216 24.8872 43.0934 24.7532C43.0385 24.6957 42.9469 24.6319 42.8005 24.6319C42.7089 24.6319 42.6174 24.6574 42.4892 24.7085C41.8423 24.9766 41.2565 25.2 40.695 25.3787C40.1824 25.5447 40.1214 25.9213 40.1214 26.234C40.1275 27.1021 40.1275 27.9766 40.1214 28.8447C40.1214 30.1149 40.1214 31.4298 40.1336 32.7255C40.1397 33.2553 39.9627 33.6574 39.566 34.034C38.4065 35.1319 36.9235 35.8915 34.9035 36.4277C33.5426 36.7851 32.0841 36.983 30.3082 37.0404C29.9786 37.0532 29.6491 37.0596 29.3379 37.0596C27.3911 37.0596 25.664 36.8553 24.0529 36.4404C22.277 35.9809 20.8612 35.2851 19.7139 34.3149C19.1036 33.7979 18.8534 33.2617 18.8778 32.5149C18.9144 31.1489 18.9083 29.7574 18.9022 28.4106C18.9022 27.6766 18.8961 26.9106 18.9022 26.1638C18.9022 25.717 18.7374 25.4617 18.3407 25.3149C17.2361 24.8936 16.1193 24.4596 15.0392 24.0447C14.2336 23.7319 13.428 23.4191 12.6225 23.1064C12.3295 22.9979 12.1343 22.8128 12 22.5319V21.9255C12.1465 21.6574 12.3723 21.4787 12.7506 21.3319C17.8891 19.3915 23.2839 17.3489 29.2463 15.083C29.3989 15.0255 29.5453 15 29.6857 15C29.8261 15 29.9725 15.0255 30.1251 15.0894C33.744 16.4617 37.3629 17.834 40.9819 19.2064L46.7184 21.383C47.3287 21.6128 47.408 21.983 47.408 22.2383C47.4141 22.6404 47.1944 22.9277 46.7367 23.1064C46.2119 23.3106 45.7786 23.4766 45.3697 23.617C45.0097 23.7447 44.8388 23.9936 44.8388 24.383C44.8449 27.2681 44.8449 30.3574 44.8388 33.8234C44.8388 34.1234 44.9364 34.3596 45.1622 34.5894C46.0471 35.5085 46.9076 36.4085 47.6338 37.1745C48.1221 37.6851 48.1221 38.1255 47.6338 38.6426C46.7184 39.6064 45.9434 40.417 45.1622 41.2213C44.9364 41.4511 44.8327 41.7128 44.8388 42.0319C44.851 42.5681 44.8449 43.117 44.8449 43.6468V43.9979C44.8449 44.6106 44.5337 45 44.0393 45H44.0332ZM44.0393 36.0319C43.8318 36.0319 43.6915 36.1851 43.6488 36.2298C43.2582 36.6511 42.8554 37.0723 42.4465 37.4872C42.3977 37.5383 42.2573 37.6787 42.2573 37.8957C42.2573 38.0872 42.3672 38.2277 42.4526 38.3106C42.715 38.5723 42.9714 38.8468 43.2277 39.1149C43.3741 39.2681 43.5206 39.4213 43.661 39.5681C43.7098 39.6191 43.7586 39.6574 43.8074 39.6894C43.8257 39.7021 43.844 39.7149 43.8623 39.7277L44.021 39.8553L44.1919 39.7468C44.2041 39.7404 44.2163 39.734 44.2285 39.7277C44.2651 39.7085 44.3201 39.6766 44.375 39.6255C44.7533 39.2298 45.1378 38.834 45.5162 38.4319L45.7115 38.2277C45.9007 38.0298 45.8579 37.8255 45.8335 37.7489C45.7969 37.634 45.7176 37.5574 45.6627 37.5C45.5345 37.366 45.4124 37.2383 45.2904 37.1106C45.0158 36.8234 44.7289 36.5234 44.4543 36.2298C44.3567 36.1532 44.2224 36.0319 44.0393 36.0319ZM20.971 26.3809C20.5682 26.3809 20.5682 26.8213 20.5682 27.0638C20.5682 27.683 20.5682 28.2957 20.5682 28.9149V29.6745C20.5682 29.917 20.5682 30.1596 20.5682 30.4021C20.5682 31.0085 20.5743 31.6277 20.5621 32.2404C20.556 32.6362 20.6964 32.9426 21.0015 33.1787C21.4714 33.5489 22.0146 33.8617 22.6554 34.1362C24.3519 34.8511 26.2316 35.2149 28.7459 35.3234C29.051 35.3362 29.3562 35.3426 29.6613 35.3426C31.248 35.3426 32.8042 35.1638 34.275 34.8C35.9044 34.4043 37.07 33.8809 38.0648 33.1085C38.3455 32.8915 38.4736 32.6106 38.4736 32.2404C38.4675 30.9957 38.4675 29.7255 38.4675 28.5V27.134C38.4675 26.834 38.4675 26.4128 38.0709 26.4128C37.9549 26.4128 37.8329 26.4574 37.6376 26.534L35.941 27.1723C34.0248 27.8936 32.0414 28.6404 30.0946 29.3872C29.8749 29.4702 29.6735 29.5149 29.4721 29.5149C29.2707 29.5149 29.0632 29.4702 28.8435 29.3872C26.9639 28.6404 25.0415 27.9 23.1863 27.1851C22.576 26.9489 21.9658 26.7128 21.3555 26.4766C21.1968 26.4255 21.0809 26.3809 20.971 26.3809ZM29.6918 16.8511C29.5209 16.8511 29.344 16.883 29.1609 16.9596C26.9151 17.8213 24.6326 18.683 22.4174 19.5191L15.2711 22.2255L15.9302 22.5255C15.9912 22.5511 16.04 22.5766 16.0766 22.5957C16.156 22.634 16.217 22.6596 16.278 22.6851L19.2867 23.8468C22.4235 25.0596 25.664 26.3106 28.8496 27.5553C29.0632 27.6383 29.2707 27.683 29.4721 27.683C29.6735 27.683 29.881 27.6447 30.1068 27.5553C33.1826 26.3872 36.2645 25.2255 39.3463 24.0638L43.1544 22.6277C43.4413 22.5511 43.4901 22.3404 43.4962 22.2191L43.5023 22.0085L43.3192 21.9319L43.2399 21.9C43.1788 21.8745 43.1178 21.8426 43.0507 21.8234L40.2678 20.7702C36.9724 19.5255 33.5609 18.2362 30.2166 16.9596C30.0275 16.883 29.8566 16.8511 29.6918 16.8511Z" fill="white"/>
</svg>
