<svg width="60" height="60" viewBox="0 0 60 60" fill="none" xmlns="http://www.w3.org/2000/svg">
<path d="M8.82353 0H51.1765C56.1176 0 60 3.88235 60 8.82353V51.1765C60 56.1176 56.1176 60 51.1765 60H8.82353C3.88235 60 0 56.1176 0 51.1765V8.82353C0 3.88235 3.88235 0 8.82353 0Z" fill="#2575D6"/>
<path d="M37.8746 48C36.1728 48 34.7638 47.9939 33.4463 47.9878C31.7445 47.9756 30.4392 47.1703 29.573 45.5841C29.2802 45.0473 29.1278 44.4128 29.0973 43.5831C29.0851 43.272 28.896 43.1988 28.7435 43.1866C28.7191 43.1866 28.7008 43.1866 28.6825 43.1866C28.591 43.1866 28.3165 43.1866 28.2494 43.516C28.1945 43.7966 28.0786 44.0529 27.9078 44.2725C27.7431 44.486 27.8651 44.669 27.9322 44.7667C28.3775 45.4316 28.4141 46.1088 28.0359 46.7616C27.6699 47.4021 27.0966 47.7072 26.2731 47.7072H26.2609C24.9861 47.7011 23.7113 47.7011 22.4365 47.7011C21.6679 47.7011 18.5998 47.7011 17.8312 47.7011H16.6967C15.489 47.7011 14.4094 47.2618 13.4822 46.3894C12.6771 45.6512 12.1891 44.6873 12 43.4672V42.4972L12.0122 42.4545C12.0244 42.4118 12.0366 42.3691 12.0427 42.3325C12.4514 40.0874 13.7567 38.7148 15.9221 38.2511C16.1782 38.1962 16.2941 38.0559 16.2941 37.7997C16.2941 37.391 16.4039 37.0249 16.6235 36.726C16.8126 36.4637 16.7333 36.2623 16.6113 36.0793C16.3368 35.6584 16.2392 35.2191 16.3246 34.7738C16.5137 33.7916 17.2274 33.2303 18.3375 33.1876C18.8499 33.1693 18.9048 33.1144 18.9048 32.608C18.9048 31.4855 18.9048 30.3569 18.9048 29.2344V27.88C18.9048 26.6965 18.9048 25.513 18.9048 24.3233C18.9048 21.395 18.9048 18.363 18.9109 15.3798C18.917 13.8973 19.594 12.8297 20.9238 12.2196C21.0579 12.1586 21.2043 12.1098 21.3446 12.061C21.4056 12.0427 21.4727 12.0183 21.5337 12H35.1298C35.8861 12.2196 36.429 12.5247 36.8377 12.9578C37.2708 13.4154 37.7038 13.8729 38.1308 14.3244C38.7591 14.9832 39.4056 15.6665 40.0339 16.3376C40.6377 16.9781 40.9427 17.7712 40.9366 18.6802C40.9305 19.3757 40.9305 20.0834 40.9366 20.7667C40.9366 21.578 40.9366 22.4138 40.9305 23.2313C40.9305 23.4326 40.9671 23.5608 41.0525 23.6523C41.1318 23.7377 41.2538 23.7743 41.4368 23.7743C41.449 23.7743 41.4612 23.7743 41.4795 23.7743C41.7662 23.7682 42.0712 23.7621 42.431 23.7621C42.736 23.7621 43.041 23.7621 43.346 23.7682H43.5961C44.7672 23.7804 45.8651 24.2318 46.6886 25.0432C47.5181 25.8607 47.9756 26.9466 47.9817 28.1118C48.0061 33.6024 48.0061 38.6904 47.9817 43.6807C47.9695 46.0966 46.042 47.9939 43.59 47.9939C42.8946 47.9939 42.1993 47.9939 41.5039 47.9939C40.284 48 39.0823 48 37.8746 48ZM39.5093 24.7504C37.5391 24.7504 35.5629 24.7504 33.5927 24.7565C33.3365 24.7565 33.1047 24.7626 32.8729 24.8053C31.165 25.1347 30.061 26.5074 30.061 28.3071C30.0549 31.9065 30.061 35.5058 30.061 39.1052V43.4794C30.061 43.8088 30.0976 44.1383 30.1769 44.4433C30.5856 46.0783 31.9214 47.0605 33.7635 47.0666C35.1237 47.0727 36.4839 47.0727 37.8441 47.0727C39.5947 47.0727 41.3758 47.0727 43.2972 47.0666C43.7059 47.0666 44.0535 47.03 44.3646 46.9568C45.9383 46.5907 46.9997 45.2486 47.0058 43.6136C47.0119 41.8566 47.0119 40.0691 47.0058 38.3427C47.0058 37.5252 47.0058 36.7016 47.0058 35.8841V33.6024C47.0058 31.8332 47.0058 30.0641 47.0058 28.301C47.0058 26.2206 45.554 24.7626 43.4802 24.7626C42.1505 24.7504 40.8268 24.7504 39.5093 24.7504ZM18.7218 39.1235C17.7032 39.1235 16.7516 39.5201 16.0319 40.24C15.3121 40.9598 14.9156 41.9176 14.9217 42.9365C14.9278 45.0778 16.593 46.7494 18.7218 46.7494C19.7648 46.7494 20.7286 46.3589 21.43 45.6512C22.1376 44.9375 22.528 43.9614 22.528 42.8998C22.5219 40.8256 20.8262 39.1357 18.7462 39.1235H18.7218ZM23.3697 45.0229C23.1318 45.0229 22.9732 45.1144 22.8634 45.3157C22.6987 45.6268 22.4853 45.8953 22.2108 46.2064C22.1986 46.2186 22.1803 46.2369 22.162 46.2491C22.101 46.2979 21.9668 46.4077 22.0583 46.5663C22.101 46.6396 22.1742 46.6762 22.2779 46.6762C22.3084 46.6762 22.3389 46.6762 22.3633 46.6701C22.3877 46.6701 22.406 46.664 22.4304 46.664C22.7475 46.664 23.0708 46.664 23.388 46.664H24.4676V46.6579C24.6384 46.6579 24.8092 46.6579 24.9739 46.6579C25.1752 46.6579 25.3765 46.6579 25.5778 46.6579C25.8889 46.6579 26.145 46.6579 26.3829 46.6518C26.9075 46.6396 27.2247 46.3406 27.2247 45.8526C27.2247 45.3584 26.8831 45.0229 26.3646 45.0168C25.9254 45.0107 25.4985 45.0107 25.1386 45.0107H24.242C23.9553 45.0229 23.6625 45.0229 23.3697 45.0229ZM13.6957 44.5226C13.714 44.5226 13.7384 44.5226 13.7628 44.5287C13.7933 44.5287 13.8238 44.5348 13.8543 44.5348C14.0251 44.5348 14.1105 44.4372 14.1166 44.2481C14.1166 43.9431 14.0617 43.5404 13.5188 43.5343H13.5005L13.4761 43.5404C13.47 43.5404 13.4517 43.5465 13.4334 43.5465C13.4212 43.5465 13.409 43.5465 13.3907 43.5465C13.3724 43.5465 13.3602 43.5465 13.3419 43.5465C13.1589 43.5465 13.0674 43.6441 13.0613 43.8333C13.0552 44.0468 13.1223 44.2359 13.2504 44.364C13.3602 44.4738 13.5005 44.5348 13.6652 44.5348L13.6957 44.5226ZM23.8577 42.3386C23.6198 42.3386 23.4856 42.4728 23.4856 42.7107C23.4856 42.7778 23.4856 42.851 23.4856 42.9182C23.4856 43.1134 23.4917 43.3147 23.4612 43.5038C23.4307 43.6685 23.449 43.7844 23.5161 43.8638C23.6015 43.9675 23.7418 43.9797 23.8577 43.9797H23.8943C24.059 43.9736 24.2237 43.9736 24.3883 43.9736C24.5103 43.9736 24.6323 43.9736 24.7543 43.9736C24.8763 43.9736 24.9983 43.9736 25.1203 43.9736H25.2118V43.9675C25.3155 43.9675 25.4192 43.9675 25.5229 43.9675C25.6571 43.9675 25.7974 43.9675 25.9315 43.9675C26.1328 43.9675 26.3036 43.9614 26.4622 43.9553C26.9136 43.937 27.2186 43.6136 27.2247 43.1439C27.2247 42.6741 26.9136 42.3447 26.4622 42.3325C26.1084 42.3264 25.7242 42.3203 25.224 42.3203C25.0227 42.3203 24.8214 42.3203 24.6201 42.3203C24.4188 42.3203 24.2176 42.3203 24.0163 42.3203L23.8577 42.3386ZM13.4029 42.5521C13.4151 42.5521 13.4334 42.5521 13.4456 42.5521H13.47C13.9214 42.5521 14.0129 42.3691 14.0434 41.9603C14.0495 41.8444 14.0312 41.759 13.9763 41.698C13.897 41.6126 13.7811 41.6126 13.7079 41.6126H13.6103C13.2321 41.6126 13.0613 41.7956 13.0308 42.2166C13.0247 42.3325 13.0491 42.4118 13.0979 42.4667C13.1711 42.546 13.2809 42.546 13.348 42.546L13.4029 42.5521ZM26.2548 33.1815C27.0905 33.1815 27.7614 33.5719 28.0908 34.2491C28.4019 34.8836 28.3348 35.6279 27.9322 36.1464C27.798 36.3172 27.798 36.482 27.9261 36.6711C28.408 37.3849 28.408 38.1169 27.9322 38.8429C27.8468 38.9771 27.7736 39.1357 27.9078 39.331C28.4263 40.0874 28.4202 40.8317 27.9017 41.5943C27.8224 41.7102 27.8041 41.8139 27.8346 41.9054C27.8712 42.0092 27.9688 42.0824 28.1274 42.1251C28.286 42.1678 28.4202 42.1922 28.5361 42.1922C29.0424 42.1922 29.0973 41.7407 29.0973 41.3991V38.2572C29.0973 35.0788 29.0973 31.9004 29.1034 28.7219C29.1034 28.2949 29.1034 27.8495 29.1765 27.4347C29.5547 25.2811 31.348 23.7682 33.55 23.7621C34.4161 23.7621 35.2762 23.756 36.1423 23.756C37.1976 23.756 38.2833 23.756 39.3751 23.7621C39.5154 23.7621 39.6801 23.7499 39.7838 23.6401C39.8631 23.5608 39.8997 23.4387 39.8997 23.2679C39.8936 22.426 39.8936 21.5658 39.8936 20.7361C39.8936 20.0285 39.8936 19.3208 39.8936 18.6131C39.8936 18.0824 39.8143 18.0092 39.2592 18.0092C39.0335 18.0092 38.8079 18.0092 38.5822 18.0092H37.2647C36.8682 18.0092 36.4778 18.0092 36.0813 18.0092C35.2823 18.0031 35.1542 17.8749 35.1542 17.088C35.1542 16.4901 35.1542 15.8922 35.1542 15.3005C35.1542 14.7209 35.1542 14.1413 35.1542 13.5618C35.1542 13.0188 35.0993 12.9639 34.5686 12.9639C33.9953 12.9639 31.8421 12.9639 31.8421 12.9639H30.8295C30.0061 12.9639 29.1765 12.9639 28.3531 12.9639C27.5236 12.9639 26.694 12.9639 25.8645 12.9639C24.5591 12.9639 23.4917 12.9578 22.4975 12.9517H22.467C21.7045 12.9517 21.064 13.1957 20.6127 13.6533C20.1613 14.1108 19.9234 14.7697 19.9356 15.4957C19.9722 17.4723 19.9661 19.4855 19.96 21.4316C19.9539 22.243 19.9539 23.0483 19.9539 23.8597V32.5104C19.9539 33.1266 19.9966 33.1693 20.6249 33.1693C21.1677 33.1693 21.7045 33.1693 22.2474 33.1693C22.8695 33.1693 23.4917 33.1693 24.12 33.1693C24.9312 33.1693 25.6022 33.1693 26.2365 33.1632L26.2548 33.1815ZM22.6987 39.636C22.656 39.636 22.5402 39.636 22.467 39.7458C22.3694 39.8983 22.4792 40.0142 22.5402 40.0752C22.5524 40.0935 22.5707 40.1057 22.5829 40.124C22.8024 40.4352 22.9488 40.6792 23.0525 40.9232C23.1562 41.1795 23.3331 41.2893 23.6137 41.2893H23.6259C23.9614 41.2832 24.309 41.2832 24.6506 41.2832H25.59C25.834 41.2832 26.084 41.2832 26.328 41.2832C26.877 41.2771 27.2308 40.9537 27.2308 40.4535C27.2308 39.9471 26.9014 39.6482 26.328 39.6421C26.1023 39.636 25.8767 39.636 25.651 39.636C25.4741 39.636 25.3033 39.636 25.1264 39.636C24.98 39.636 24.8397 39.636 24.6933 39.636H24.6018H23.6991C23.4124 39.636 23.1257 39.636 22.8451 39.636C22.8268 39.636 22.8024 39.636 22.7841 39.6299C22.7475 39.636 22.7231 39.636 22.6987 39.636ZM25.9193 38.5989C25.9681 38.5989 26.0108 38.5989 26.0596 38.5989C26.1084 38.5989 26.1511 38.5989 26.1999 38.5989C26.3158 38.5989 26.4073 38.5928 26.4927 38.5867C26.9014 38.5379 27.2064 38.2267 27.2308 37.8241C27.2552 37.3788 27.0173 37.0615 26.5842 36.9639C26.4378 36.9334 26.2792 36.9151 26.0718 36.9151C25.4192 36.9151 24.7604 36.9151 24.1078 36.9151H20.3748C19.7343 36.9151 19.0939 36.9151 18.4534 36.9151C18.2338 36.9151 18.0081 36.9273 17.7946 37.031C17.4714 37.1835 17.264 37.5923 17.3555 37.9034C17.4104 38.0986 17.5385 38.1962 17.7397 38.1962C17.7946 38.1962 17.8434 38.1901 17.8922 38.184C17.9349 38.1718 17.9776 38.1718 18.0081 38.1718C18.124 38.1718 18.2338 38.1718 18.3497 38.1718C18.9841 38.1718 19.716 38.1962 20.4053 38.4769C20.6127 38.5623 20.8323 38.605 21.0884 38.605C21.9363 38.605 22.7841 38.605 23.6259 38.605H25.9193V38.5989ZM18.4961 35.9146C19.8746 35.9146 21.2531 35.9146 22.6317 35.9146H26.0962C26.267 35.9146 26.4744 35.9146 26.6696 35.8414C27.0234 35.7133 27.2125 35.4631 27.2308 35.1032C27.2491 34.7433 27.0844 34.4809 26.7428 34.3101C26.5659 34.2247 26.3707 34.2247 26.2182 34.2247H18.5266H18.3558C18.307 34.2247 18.2521 34.2247 18.2033 34.2308C17.7215 34.2552 17.3738 34.5602 17.3433 34.9934C17.3067 35.4631 17.5934 35.8109 18.0935 35.8963C18.2094 35.9146 18.3253 35.9207 18.4595 35.9207H18.4961V35.9146ZM36.1972 14.1047V14.8307C36.1972 15.4286 36.1972 16.0264 36.1972 16.6182C36.1972 16.8378 36.3131 16.972 36.5083 16.9781C36.8865 16.9781 37.2647 16.9781 37.655 16.9781H39.2165L36.3985 14.001L36.1972 14.1047ZM25.4375 32.3152C25.6998 32.3091 25.8584 32.1444 25.8706 31.8577C25.8828 31.5404 26.0474 31.4123 26.2853 31.3269C26.8587 31.1195 27.2125 30.6924 27.3467 30.0519C27.5906 28.8866 27.1515 28.0569 26.0413 27.5811C25.9193 27.5262 25.7852 27.4835 25.6632 27.4347C25.407 27.3432 25.1386 27.2456 24.8946 27.093C24.5713 26.8917 24.431 26.5867 24.4859 26.2206C24.5408 25.8607 24.7726 25.6289 25.163 25.5374C25.3033 25.5008 25.4497 25.4886 25.5961 25.4886C25.9011 25.4886 26.2182 25.5618 26.5598 25.7204C26.6757 25.7753 26.7733 25.7997 26.8587 25.7997C26.999 25.7997 27.1027 25.7265 27.1759 25.5679C27.3223 25.2628 27.121 25.0676 26.9319 24.9517C26.755 24.848 26.5476 24.7809 26.2975 24.7382C26.0108 24.6894 25.8767 24.543 25.8645 24.2562C25.8523 23.9695 25.6693 23.7804 25.4253 23.7804H25.407C25.1447 23.7865 24.9739 23.9878 24.9739 24.2806C24.9739 24.6162 24.8031 24.7626 24.5408 24.8785C23.9553 25.1347 23.6503 25.5984 23.6137 26.3C23.571 27.0991 23.9126 27.6543 24.6628 27.9959C24.8336 28.0752 25.0105 28.1485 25.1813 28.2156C25.407 28.3071 25.6388 28.4047 25.8584 28.5084C26.3036 28.7219 26.5293 29.0941 26.511 29.5882C26.511 30.2227 26.1694 30.5826 25.5168 30.6253C25.4558 30.6314 25.4009 30.6314 25.346 30.6314C24.8458 30.6314 24.4554 30.4545 24.1444 30.1007C24.0407 29.9847 23.9431 29.9237 23.8455 29.9237C23.7845 29.9237 23.7174 29.9481 23.6564 29.997C23.449 30.1556 23.3941 30.3569 23.5039 30.607C23.5588 30.7412 23.6686 30.8449 23.7601 30.9304C23.9858 31.1317 24.2542 31.2781 24.553 31.3574C24.8275 31.4306 24.9495 31.577 24.9678 31.8516C24.9861 32.1505 25.1447 32.3152 25.4131 32.3152H25.4375ZM32.452 20.2054C32.6716 20.2054 32.8546 20.1993 33.0254 20.1566C33.1596 20.1261 33.2633 20.0468 33.3243 19.9248C33.3853 19.8027 33.3914 19.6624 33.3365 19.5404C33.245 19.3269 33.0864 19.2415 32.757 19.2415C32.0373 19.2415 31.3114 19.2415 30.5917 19.2415H28.2067H24.9129C24.7848 19.2415 24.6567 19.2415 24.5286 19.2415C24.4005 19.2415 24.2724 19.2415 24.1505 19.2415C23.8821 19.2415 23.6747 19.2415 23.4795 19.2476C23.2111 19.2537 23.022 19.4184 22.9976 19.6746C22.9732 19.937 23.1501 20.1322 23.4368 20.1749C23.571 20.1932 23.7174 20.2054 23.9126 20.2054C25.2972 20.2054 26.6757 20.2054 28.0603 20.2054C29.5242 20.2115 30.9881 20.2054 32.452 20.2054ZM36.1972 22.847C36.3192 22.847 36.4168 22.8409 36.5083 22.8043C36.7279 22.7189 36.8316 22.5785 36.8255 22.3589C36.8255 22.1393 36.7218 21.999 36.5022 21.9136C36.3985 21.877 36.2887 21.8709 36.185 21.8709H31.8299H27.4992C27.4321 21.8709 27.3528 21.8709 27.2735 21.8831C27.0051 21.9197 26.816 22.1088 26.8099 22.3467C26.8038 22.5968 26.9929 22.7982 27.2735 22.8348C27.3528 22.847 27.4321 22.847 27.5053 22.847H27.6455C28.408 22.847 29.1644 22.847 29.9268 22.847H33.7086C34.4893 22.847 35.264 22.847 36.0447 22.847H36.1972ZM24.0773 22.847C24.1566 22.847 24.2359 22.847 24.3212 22.847H24.4127H25.0227C25.041 22.847 25.0654 22.847 25.0837 22.847C25.4253 22.8165 25.6144 22.6396 25.6144 22.3528C25.6083 22.0722 25.4131 21.8953 25.1081 21.8831C24.8519 21.877 24.5835 21.8709 24.3151 21.8709C24.059 21.8709 23.7967 21.877 23.5283 21.8831C23.205 21.8953 22.9915 22.0905 22.9976 22.3711C23.0037 22.6518 23.2111 22.8287 23.5466 22.847C23.632 22.8531 23.7235 22.8531 23.8394 22.8531C23.9187 22.847 23.998 22.847 24.0773 22.847ZM36.4778 20.1627C36.8133 20.1078 36.8438 19.8271 36.8255 19.6685C36.8072 19.4184 36.6608 19.2781 36.4107 19.2598C36.3314 19.2537 36.2521 19.2476 36.1484 19.2476C36.0752 19.2476 36.002 19.2476 35.9288 19.2537C35.8556 19.2537 35.7824 19.2598 35.7092 19.2598C35.6361 19.2598 35.5568 19.2598 35.4836 19.2537C35.4104 19.2537 35.3372 19.2476 35.264 19.2476C35.1542 19.2476 35.0688 19.2537 34.9895 19.2598C34.7394 19.2842 34.5991 19.4245 34.5747 19.6746C34.5503 19.9492 34.6784 20.12 34.9285 20.1627C35.1847 20.2054 35.4409 20.2298 35.6971 20.2298C35.9593 20.2237 36.2216 20.2054 36.4778 20.1627ZM35.2518 31.455L35.4958 31.4489C35.7336 31.4428 35.8861 31.2903 35.9044 31.0341C35.9288 30.7717 35.8068 30.6009 35.5446 30.5338C35.4104 30.4972 35.264 30.4911 35.1481 30.4911C34.9895 30.4911 34.8309 30.4911 34.6723 30.4911H34.2209C34.0136 30.4911 33.8001 30.4911 33.5927 30.485C33.0315 30.4728 32.7448 30.1861 32.7387 29.6309C32.7326 29.0696 32.7326 28.484 32.7387 27.8983C32.7448 27.3188 33.0498 27.0137 33.6171 27.0137C35.2274 27.0137 36.8316 27.0137 38.4419 27.0137C40.1193 27.0137 41.7906 27.0137 43.468 27.0198C44.023 27.0198 44.3158 27.3066 44.3219 27.88C44.328 28.3437 44.328 28.8134 44.328 29.271V29.5089C44.328 30.2654 44.0901 30.4972 43.3277 30.4972C42.553 30.4972 41.7845 30.4972 41.0098 30.4972C40.0522 30.4972 39.0945 30.4972 38.1369 30.4972C37.9783 30.4972 37.8014 30.5033 37.6367 30.546C37.3927 30.607 37.2708 30.7778 37.283 31.0219C37.3013 31.3208 37.5147 31.4245 37.6977 31.4611C37.7587 31.4733 37.8258 31.4733 37.8868 31.4733H37.9417H39.2531C39.918 31.4733 40.5829 31.4733 41.2477 31.4733C41.9858 31.4733 42.7238 31.4733 43.468 31.4733C44.5537 31.4733 45.2918 30.729 45.304 29.6309C45.3101 29.2161 45.3101 28.7951 45.304 28.3864V28.0447C45.304 26.7392 44.6086 26.0437 43.2972 26.0437C42.6872 26.0437 42.0834 26.0437 41.4734 26.0437H38.4602C37.9905 26.0437 37.5208 26.0437 37.0512 26.0437C36.5815 26.0437 36.1118 26.0437 35.6422 26.0437C34.9773 26.0437 34.3185 26.0437 33.6537 26.0498C32.574 26.0559 31.8726 26.6782 31.7872 27.7214C31.714 28.5816 31.7201 29.3198 31.8055 29.9908C31.9031 30.7656 32.5069 31.3818 33.245 31.4428C33.55 31.4672 33.8733 31.4855 34.2636 31.4855C34.593 31.4733 34.9285 31.4672 35.2518 31.455ZM43.1813 45.7367C43.0349 45.7367 42.919 45.7367 42.8153 45.7306C42.0407 45.7001 41.4307 45.0778 41.4246 44.3213C41.4124 42.485 41.4124 40.606 41.4246 38.5684C41.4307 37.8607 41.9675 37.3177 42.7055 37.275C42.9373 37.2628 43.1691 37.2567 43.3948 37.2567C43.6205 37.2567 43.8523 37.2628 44.0718 37.2811C44.8282 37.3299 45.3406 37.8973 45.365 38.7331C45.365 38.7575 45.365 38.7758 45.365 38.8002V41.4845V42.2349C45.365 42.8327 45.365 43.4306 45.365 44.0285C45.3589 45.1693 44.7855 45.7489 43.6571 45.7489C43.5839 45.7489 43.5107 45.7489 43.4314 45.7489C43.346 45.7367 43.2606 45.7367 43.1813 45.7367ZM43.0959 44.7606C43.1691 44.7606 43.2362 44.7606 43.3094 44.7606C43.3826 44.7606 43.4558 44.7606 43.5229 44.7606C43.59 44.7606 43.651 44.7606 43.7181 44.7606C44.2121 44.7483 44.3768 44.5836 44.3829 44.0956C44.389 43.5099 44.3829 42.9243 44.3829 42.3386C44.3829 42.058 44.3829 40.7097 44.3829 40.7097C44.3829 40.0996 44.3829 39.4896 44.3829 38.8795C44.3829 38.3427 44.2853 38.245 43.7364 38.245C43.6144 38.245 43.4985 38.245 43.3765 38.245C43.2606 38.245 43.1447 38.245 43.0288 38.245C42.492 38.2511 42.3822 38.3549 42.3822 38.8856C42.3761 39.9105 42.3822 40.9415 42.3822 41.9664V42.7595C42.3822 43.1622 42.3822 43.5648 42.3883 43.9675V44.1688C42.3883 44.5531 42.5896 44.7544 42.9739 44.7544C42.9678 44.7605 43.0593 44.7606 43.0959 44.7606ZM39.0884 45.7367C39.003 45.7367 38.9116 45.7367 38.8262 45.7367C38.7347 45.7367 38.6493 45.7367 38.5578 45.7367C38.4663 45.7367 38.3748 45.7367 38.2833 45.7367C38.1918 45.7367 38.1003 45.7367 38.0088 45.7367C37.899 45.7367 37.7892 45.7367 37.6794 45.7367C37.0207 45.7245 36.5876 45.3035 36.5632 44.6629C36.5388 44.0163 36.5388 43.4306 36.5632 42.8693C36.5937 42.2288 37.0085 41.82 37.6489 41.7956C37.9539 41.7834 38.2528 41.7773 38.5517 41.7773C38.8506 41.7773 39.1494 41.7834 39.4422 41.7956C40.0644 41.82 40.4914 42.2593 40.4975 42.8876C40.5097 43.4611 40.5097 44.0529 40.4975 44.6507C40.4853 45.2852 40.0461 45.7245 39.3995 45.7367C39.3019 45.7367 39.1982 45.7367 39.0884 45.7367ZM38.57 44.7606H38.7164C38.7957 44.7606 38.8689 44.7606 38.936 44.7606C39.1982 44.7606 39.3446 44.7422 39.4361 44.6507C39.5398 44.5409 39.5398 44.3762 39.5337 44.0529C39.5337 43.9736 39.5337 43.8882 39.5337 43.7905C39.5337 43.6746 39.5337 43.5709 39.5337 43.4794C39.5398 43.1317 39.5398 42.9609 39.4361 42.851C39.3507 42.7656 39.2287 42.7534 39.0213 42.7534C38.9665 42.7534 38.9055 42.7534 38.8323 42.7534C38.7408 42.7534 38.6432 42.7595 38.5212 42.7595H38.5029C38.3931 42.7595 38.3016 42.7595 38.2162 42.7534C38.1491 42.7534 38.0881 42.7534 38.0332 42.7534C37.8258 42.7534 37.7099 42.7656 37.6306 42.851C37.533 42.9487 37.533 43.1134 37.533 43.4306C37.533 43.516 37.533 43.6197 37.533 43.7356C37.533 43.8577 37.533 43.9675 37.533 44.059C37.533 44.3884 37.5269 44.5531 37.6306 44.6568C37.7221 44.7483 37.8746 44.7606 38.0759 44.7606C38.1308 44.7606 38.1857 44.7606 38.2528 44.7606C38.3321 44.7606 38.4236 44.7606 38.5273 44.7606H38.57ZM38.5273 36.482C38.2223 36.482 37.9051 36.4698 37.594 36.4515C36.9902 36.4148 36.5815 35.9878 36.5632 35.3594C36.5449 34.7616 36.5449 34.1698 36.5632 33.6024C36.5876 32.9558 37.0207 32.5348 37.6733 32.5287C37.7831 32.5287 37.8868 32.5287 37.9966 32.5287C38.1003 32.5287 38.204 32.5287 38.3016 32.5287H38.5761C38.6676 32.5287 38.7591 32.5287 38.8506 32.5287C38.9421 32.5287 39.0335 32.5287 39.125 32.5287C39.2409 32.5287 39.3568 32.5287 39.4727 32.5348C40.0461 32.5531 40.4853 32.9802 40.5036 33.5353C40.5219 34.1454 40.5219 34.786 40.5036 35.4326C40.4853 36.0183 40.0888 36.4209 39.491 36.4576C39.1738 36.4698 38.8506 36.482 38.5273 36.482ZM38.6676 35.4936C38.7347 35.4936 38.7957 35.4936 38.8567 35.4936C38.9055 35.4936 38.9482 35.4936 38.9908 35.4936C39.1982 35.4936 39.3446 35.4875 39.4361 35.396C39.5398 35.2923 39.5398 35.1215 39.5337 34.7616C39.5337 34.6762 39.5337 34.5846 39.5337 34.4748V34.2979C39.5398 33.8892 39.5398 33.7062 39.4239 33.5902C39.3263 33.4926 39.1738 33.4865 38.9848 33.4865C38.936 33.4865 38.8872 33.4865 38.8323 33.4865C38.7652 33.4865 38.6859 33.4865 38.6066 33.4865H38.5578C38.4663 33.4865 38.3809 33.4865 38.3016 33.4865C38.2284 33.4865 38.1613 33.4865 38.1003 33.4865C37.8929 33.4865 37.7282 33.4926 37.6306 33.5902C37.5269 33.7001 37.5269 33.8709 37.533 34.2064C37.533 34.2918 37.533 34.3894 37.533 34.4992C37.533 34.6152 37.533 34.7189 37.533 34.8043C37.5269 35.1276 37.5269 35.2923 37.6245 35.396C37.716 35.4875 37.8624 35.4936 38.0759 35.4936H38.204C38.2589 35.4936 38.3138 35.4936 38.3809 35.4936C38.4236 35.4936 38.4724 35.4936 38.5212 35.4936C38.5761 35.4936 38.6249 35.4936 38.6676 35.4936ZM37.9966 41.2161C37.8929 41.2161 37.7831 41.2161 37.6794 41.2161C37.0268 41.2039 36.5876 40.7829 36.5632 40.1424C36.5388 39.5506 36.5388 38.9527 36.5632 38.3488C36.5876 37.7265 37.0268 37.2933 37.6489 37.275C37.9417 37.2689 38.2406 37.2628 38.5334 37.2628C38.8262 37.2628 39.1189 37.2689 39.4117 37.275C40.0766 37.2933 40.4975 37.7265 40.5036 38.4037C40.5097 38.9405 40.5097 39.4896 40.5036 40.0935C40.4975 40.7707 40.0644 41.2039 39.3751 41.2161C39.2714 41.2161 39.1616 41.2161 39.0579 41.2161C38.9665 41.2161 38.8811 41.2161 38.7896 41.2161C38.7042 41.2161 38.6188 41.2161 38.5273 41.2161C38.4358 41.2161 38.3443 41.2161 38.2589 41.2161C38.1674 41.2161 38.082 41.2161 37.9966 41.2161ZM38.5395 40.2339C38.6371 40.2339 38.7286 40.2339 38.8018 40.2339C38.8689 40.2339 38.9238 40.2339 38.9787 40.2339C39.1799 40.2339 39.3324 40.2278 39.43 40.1301C39.5398 40.0203 39.5337 39.8434 39.5337 39.4896C39.5337 39.4103 39.5337 39.3249 39.5337 39.2273C39.5337 39.1296 39.5337 39.0503 39.5337 38.971C39.5398 38.605 39.5398 38.4403 39.4361 38.3366C39.3446 38.245 39.1982 38.2328 38.9787 38.2328C38.9421 38.2328 38.8994 38.2328 38.8506 38.2328C38.7957 38.2328 38.7347 38.2328 38.6737 38.2328C38.631 38.2328 38.5883 38.2328 38.5395 38.2328C38.4846 38.2328 38.4358 38.2328 38.3931 38.2328C38.326 38.2328 38.2711 38.2328 38.2162 38.2328H38.0881C37.8685 38.2328 37.7221 38.2389 37.6306 38.3305C37.533 38.4342 37.533 38.5928 37.5391 38.9161C37.5391 39.0015 37.5391 39.0991 37.5452 39.2089C37.5452 39.331 37.5452 39.4347 37.5391 39.5201C37.533 39.8495 37.533 40.0142 37.6367 40.1179C37.7282 40.2156 37.8868 40.2217 38.0881 40.2217C38.143 40.2217 38.1979 40.2217 38.265 40.2217C38.3443 40.2217 38.4358 40.2217 38.5395 40.2217V40.2339ZM43.3643 36.482C43.0654 36.482 42.7665 36.4759 42.4798 36.4637C41.815 36.4331 41.4185 36 41.4124 35.3106C41.4124 35.1093 41.4124 34.9141 41.4124 34.7128V34.4626C41.4124 34.3711 41.4124 34.2796 41.4124 34.1881C41.4124 33.999 41.4124 33.8099 41.4124 33.6146C41.4246 32.9619 41.8455 32.5348 42.492 32.5226C42.7665 32.5165 43.041 32.5165 43.3155 32.5165C43.6144 32.5165 43.9132 32.5165 44.2182 32.5226C44.8892 32.5287 45.3101 32.9253 45.3467 33.578C45.3772 34.1759 45.3772 34.7921 45.3467 35.4021C45.3162 36.0122 44.8953 36.427 44.2731 36.4576C43.9681 36.4759 43.6632 36.482 43.3643 36.482ZM43.0593 33.4865C42.7726 33.4865 42.5957 33.4926 42.4859 33.6024C42.3761 33.7123 42.3761 33.8892 42.3822 34.2369C42.3822 34.3101 42.3822 34.3955 42.3822 34.4931C42.3822 34.5846 42.3822 34.664 42.3822 34.7372C42.3822 35.1154 42.3761 35.2862 42.4859 35.396C42.5774 35.4875 42.7238 35.4997 42.9373 35.4997C42.9373 35.4997 43.0227 35.4997 43.0654 35.4997C43.1203 35.4997 43.1813 35.4997 43.2423 35.4997C43.285 35.4997 43.3277 35.4997 43.3704 35.4997C43.4253 35.4997 43.4802 35.4997 43.529 35.4997C43.5961 35.4997 43.6571 35.4997 43.712 35.4997C43.7608 35.4997 43.8035 35.4997 43.8462 35.4997C44.0596 35.4997 44.1999 35.4936 44.2914 35.4021C44.389 35.2984 44.389 35.1398 44.3829 34.8165C44.3829 34.725 44.3768 34.6152 44.3768 34.487C44.3768 34.3711 44.3768 34.2735 44.3829 34.1881C44.389 33.8648 44.3951 33.7062 44.2914 33.6024C44.1938 33.5048 44.0474 33.4926 43.7486 33.4926H43.3826C43.3826 33.4865 43.1081 33.4865 43.0593 33.4865ZM33.7757 45.7428C33.4646 45.7428 33.1413 45.7367 32.8058 45.7306C32.2813 45.7184 31.8787 45.3584 31.8116 44.846C31.7262 44.2054 31.7201 43.5221 31.7994 42.7595C31.8604 42.1983 32.2447 41.8322 32.8119 41.8078C33.1413 41.7895 33.4646 41.7834 33.7696 41.7834C34.0867 41.7834 34.4039 41.7895 34.7028 41.8078C35.2945 41.8383 35.6849 42.2593 35.6971 42.8815C35.7031 43.0951 35.7031 43.3086 35.6971 43.516C35.6971 43.6075 35.6971 43.699 35.6971 43.7966C35.6971 43.8943 35.6971 43.9919 35.6971 44.0895C35.6971 44.2908 35.7032 44.5043 35.691 44.7117C35.6727 45.2913 35.2518 45.7245 34.6906 45.7367C34.41 45.7367 34.0928 45.7428 33.7757 45.7428ZM33.7086 44.7606C33.8062 44.7606 33.8916 44.7606 33.9709 44.7606C34.0441 44.7606 34.1111 44.7606 34.1721 44.7606C34.4344 44.7606 34.5808 44.7422 34.6723 44.6507C34.7882 44.5348 34.7821 44.3457 34.7821 43.9675C34.7821 43.8943 34.7821 43.8088 34.7821 43.7173C34.7821 43.6075 34.7821 43.5099 34.7821 43.4245C34.7882 43.1134 34.7882 42.9609 34.6906 42.8571C34.6113 42.7778 34.4893 42.7595 34.2819 42.7595C34.227 42.7595 34.1599 42.7595 34.0928 42.7595C34.0136 42.7595 33.9221 42.7595 33.8184 42.7656H33.7696C33.6415 42.7656 33.5378 42.7656 33.4402 42.7595C33.367 42.7595 33.2999 42.7595 33.245 42.7595C33.0315 42.7595 32.9095 42.7778 32.8302 42.8571C32.7265 42.9609 32.7326 43.1256 32.7387 43.4489C32.7387 43.5526 32.7448 43.6685 32.7448 43.8149C32.7448 43.9126 32.7448 44.0041 32.7387 44.0834C32.7326 44.4006 32.7326 44.5592 32.8302 44.6629C32.9217 44.7606 33.0803 44.7667 33.2938 44.7667C33.3487 44.7667 33.4158 44.7667 33.4829 44.7667C33.55 44.7605 33.6232 44.7606 33.7086 44.7606ZM33.7757 41.2222C33.4585 41.2222 33.123 41.2161 32.7875 41.2039C32.2813 41.1856 31.8848 40.8256 31.8177 40.3315C31.7262 39.6726 31.7262 38.9771 31.8055 38.2084C31.8665 37.6594 32.2691 37.2933 32.8363 37.275C33.1474 37.2628 33.4585 37.2567 33.7635 37.2567C34.0624 37.2567 34.3673 37.2628 34.6601 37.275C35.2823 37.2994 35.691 37.7265 35.7032 38.3732C35.7093 38.5745 35.7093 38.7819 35.7032 38.9771C35.7032 39.0381 35.7032 39.1601 35.7032 39.1601V39.2517C35.7032 39.3493 35.7032 39.4469 35.7032 39.5506C35.7032 39.7641 35.7092 39.9837 35.6971 40.2034C35.6727 40.7646 35.264 41.1917 34.715 41.21C34.4161 41.2161 34.0989 41.2222 33.7757 41.2222ZM33.2938 38.2389C33.062 38.2389 32.9156 38.245 32.8241 38.3366C32.7265 38.4403 32.7265 38.5928 32.7326 38.91C32.7387 38.9954 32.7387 39.0869 32.7387 39.1967C32.7387 39.3371 32.7387 39.453 32.7326 39.5506C32.7265 39.8739 32.7204 40.0325 32.8241 40.1362C32.9095 40.2217 33.0376 40.24 33.2694 40.24C33.3243 40.24 33.3853 40.24 33.4524 40.24C33.5378 40.24 33.6354 40.24 33.7513 40.24H33.7818C33.8794 40.24 33.9709 40.24 34.0502 40.24C34.1172 40.24 34.1843 40.24 34.2392 40.24C34.4405 40.24 34.593 40.2339 34.6845 40.1362C34.7882 40.0325 34.7821 39.8739 34.776 39.5567C34.776 39.4652 34.7699 39.3615 34.7699 39.2395C34.7699 39.1113 34.7699 39.0015 34.776 38.91C34.7821 38.5928 34.7882 38.4403 34.6845 38.3366C34.593 38.245 34.4405 38.2389 34.2209 38.2389H34.0928C34.038 38.2389 33.977 38.2389 33.9099 38.2389C33.8611 38.2389 33.8123 38.2389 33.7574 38.2389C33.7574 38.2389 33.5988 38.2389 33.5622 38.2389H33.2938ZM33.7635 36.482C33.4524 36.482 33.1352 36.4759 32.8241 36.4576C32.2264 36.4209 31.8421 36.0427 31.7872 35.4448C31.7323 34.7677 31.7323 34.121 31.7933 33.5231C31.8543 32.8887 32.2508 32.5348 32.9034 32.5287C33.1901 32.5287 33.4707 32.5226 33.7574 32.5226C34.038 32.5226 34.3185 32.5226 34.593 32.5287C35.2762 32.5348 35.691 32.9436 35.7032 33.6146C35.7093 33.816 35.7093 34.0173 35.7032 34.2125C35.7032 34.304 35.7032 34.4016 35.7032 34.4931C35.7032 34.5785 35.7032 34.664 35.7032 34.7494C35.7032 34.9446 35.7032 35.1398 35.7032 35.335C35.691 35.9939 35.3067 36.4148 34.6784 36.4515C34.3795 36.4698 34.0746 36.482 33.7635 36.482ZM33.3487 33.4865C33.0986 33.4865 32.9278 33.4926 32.8302 33.5963C32.7265 33.7001 32.7326 33.8587 32.7387 34.1759C32.7387 34.2613 32.7448 34.3528 32.7448 34.4626C32.7448 34.6029 32.7448 34.7189 32.7387 34.8165C32.7326 35.1337 32.7326 35.2984 32.8302 35.396C32.9217 35.4875 33.062 35.4936 33.2755 35.4936C33.3182 35.4936 33.3609 35.4936 33.4097 35.4936C33.4646 35.4936 33.5317 35.4936 33.5988 35.4936C33.6476 35.4936 33.7025 35.4936 33.7635 35.4936C33.7635 35.4936 33.9221 35.4936 33.9587 35.4936H34.2331C34.4588 35.4936 34.6052 35.4875 34.6967 35.396C34.7943 35.2984 34.7943 35.1398 34.7882 34.8226C34.7882 34.7372 34.7821 34.6396 34.7821 34.5297C34.7821 34.3955 34.7821 34.2796 34.7882 34.182C34.7943 33.8587 34.8004 33.7001 34.6967 33.5902C34.5991 33.4865 34.4283 33.4804 34.1843 33.4804C34.1355 33.4804 34.0806 33.4804 34.0197 33.4804C33.9465 33.4804 33.8672 33.4804 33.7757 33.4804C33.7757 33.4804 33.5927 33.4804 33.5317 33.4804C33.4524 33.4865 33.3975 33.4865 33.3487 33.4865ZM18.7157 45.7245C18.9231 45.7245 19.0756 45.6207 19.1488 45.4316C19.2098 45.2852 19.2891 45.1388 19.4659 45.0412C19.8929 44.7972 20.1003 44.4189 20.1064 43.8638C20.1247 43.2354 19.8624 42.8022 19.2952 42.5338C19.1915 42.485 19.0878 42.4362 18.978 42.3935C18.8621 42.3447 18.734 42.2898 18.6181 42.2288C18.4534 42.1495 18.3863 42.0214 18.4168 41.8688C18.4656 41.6614 18.6608 41.6431 18.7462 41.637C18.7706 41.637 18.8011 41.6309 18.8255 41.6309C19.0024 41.6309 19.1671 41.6858 19.3196 41.7407L19.3622 41.759C19.4293 41.7834 19.4964 41.7956 19.5574 41.7956C19.7648 41.7956 19.9356 41.6675 19.9905 41.454C20.0576 41.2161 19.9234 40.9842 19.6489 40.8683C19.3866 40.7585 19.222 40.6121 19.0939 40.3864C19.0146 40.2461 18.8621 40.1546 18.6974 40.1546C18.5449 40.1546 18.4229 40.2278 18.3558 40.3559C18.1789 40.7097 17.9288 40.9415 17.7093 41.1185C17.5934 41.2161 17.5263 41.3686 17.4775 41.4906C17.2457 42.1373 17.4897 42.7595 18.1057 43.0707C18.2216 43.1317 18.3497 43.1866 18.4656 43.2354C18.612 43.2964 18.7584 43.3635 18.9048 43.4428C19.1061 43.5526 19.1976 43.7539 19.1305 43.9736C19.0451 44.2603 18.7767 44.2603 18.6486 44.2664H18.6364C18.4351 44.2664 18.2582 44.1871 18.0813 44.0163C17.9715 43.9126 17.8678 43.8638 17.7641 43.8638C17.6788 43.8638 17.5934 43.9004 17.508 43.9675C17.3189 44.1139 17.264 44.3823 17.386 44.6141C17.4775 44.785 17.6178 44.9192 17.8251 45.0229C18.0081 45.1083 18.1911 45.2181 18.2887 45.4743C18.368 45.6268 18.5144 45.7245 18.7157 45.7245Z" fill="white"/>
</svg>
