<svg width="60" height="60" viewBox="0 0 60 60" fill="none" xmlns="http://www.w3.org/2000/svg">
<path d="M8.82353 0H51.1765C56.1176 0 60 3.88235 60 8.82353V51.1765C60 56.1176 56.1176 60 51.1765 60H8.82353C3.88235 60 0 56.1176 0 51.1765V8.82353C0 3.88235 3.88235 0 8.82353 0Z" fill="#2575D6"/>
<path d="M26.148 38.9141C25.8245 39.0043 25.5709 39.0764 25.4047 39.1124C25.4135 39.0223 25.431 38.9051 25.4572 38.7609C25.6146 37.7784 25.6671 35.8855 25.5534 34.93C25.4135 33.9025 25.1162 32.911 24.6877 31.9645C24.5478 31.6941 24.128 30.964 23.7433 30.342C23.3585 29.7291 22.9475 28.999 22.8513 28.7286C22.7551 28.4762 22.4403 27.3134 22.143 25.9884C21.7145 24.1045 21.5833 23.6358 21.3647 23.3474C21.0412 22.9147 20.6476 22.6894 20.0705 22.5992C19.9481 22.5812 19.8869 22.5632 19.8519 22.5541C19.9131 22.3018 20.3416 20.5891 20.875 18.4709C21.3647 16.533 21.8806 14.3697 21.8806 14.0992C21.8806 13.5043 21.5921 12.9274 21.1111 12.5218C20.5689 12.0892 19.8606 11.9089 19.2048 12.0441C18.6539 12.1703 18.1642 12.4497 17.9281 12.7922C17.7007 13.0987 15.8556 17.2631 14.7275 19.9582C12.8212 24.5101 11.8593 27.674 12.0167 28.8638C12.1129 29.6119 12.7425 31.3336 13.582 33.1543C15.2522 36.8049 15.6457 38.2291 15.6807 40.78L15.6982 41.7805L14.7887 42.0419C13.8181 42.3213 13.4858 42.4475 13.4683 42.8531C13.4683 43.0064 14.0804 45.3139 14.0891 45.3319C14.5963 47.2969 14.7625 47.8107 15.0336 47.9549C15.0948 47.991 15.156 48 15.2085 48C15.2697 48 15.3309 47.982 15.3571 47.973C15.4358 47.9549 15.8905 47.8287 16.9049 47.5493C18.1379 47.2068 19.9918 46.693 22.038 46.1342C23.1399 45.8277 28.6228 44.3224 28.7714 44.2052L28.7889 44.1872C28.8939 44.088 28.9463 43.9438 28.9551 43.7906C28.9551 43.6013 27.9145 39.5541 27.7571 39.0313C27.6171 38.5265 27.0312 38.6617 26.148 38.9141ZM19.5021 41.9337L19.5196 41.9247C19.6245 41.8256 19.677 41.6723 19.6682 41.4921C19.6595 41.3208 19.5895 41.1045 19.4146 40.9873L19.4059 40.9783C19.2223 40.8701 18.9599 40.9062 18.0068 41.1586C17.4996 41.2938 17.0973 41.3839 16.9137 41.42C16.9049 41.3298 16.8874 41.1586 16.8874 40.825C16.8874 39.7164 16.7475 38.6527 16.4415 37.3818C16.1267 36.0658 15.7419 35.0202 14.78 32.911C13.7131 30.5674 13.2147 29.1793 13.2147 28.5393C13.2147 27.4126 14.1066 24.5822 15.602 20.9587C16.3802 19.0748 18.6539 13.8919 18.8113 13.6125C19.0911 13.2519 19.6857 13.1348 20.1754 13.3421C20.4728 13.4683 20.6651 13.7747 20.6564 14.1173C20.6476 14.2975 20.2541 16.0462 19.5895 18.6692C18.6539 22.3468 18.479 22.9327 18.2953 23.14C17.8843 23.5997 17.6657 24.1225 17.6657 24.6183C17.6657 24.9608 19.0998 32.1268 19.301 32.7758C19.3709 33.0191 19.5808 33.1814 19.8344 33.1904C20.088 33.1994 20.3153 33.0552 20.4028 32.8208C20.4203 32.7577 20.464 32.6496 19.6245 28.5663C18.8113 24.7175 18.7938 24.6003 18.9162 24.3479C19.0474 24.0504 19.4321 23.78 19.712 23.78C20.0093 23.78 20.394 23.9873 20.4728 24.1496V24.1586C20.5165 24.2577 20.7089 25.0059 21.0324 26.4301C21.5921 28.9359 21.732 29.3505 22.3966 30.4232C23.7782 32.6586 24.1368 33.4608 24.3291 34.7317C24.5128 35.8855 24.3029 39.0133 24.1193 39.4279C23.9969 39.473 23.5946 39.6082 23.0174 39.7704C22.2392 39.9868 21.7932 40.14 21.7057 40.2211C21.5309 40.3653 21.4696 40.6358 21.5571 40.8791C21.6358 41.1135 21.8282 41.2667 22.0468 41.2667C22.178 41.2667 24.0056 40.771 24.5653 40.6177C25.6758 40.3022 26.4803 40.1039 26.7777 40.0408C26.9438 40.5817 27.4947 42.7179 27.6171 43.2497C27.2936 43.3759 26.0344 43.7725 21.732 44.9534C19.8519 45.4761 18.1467 45.9449 17.0099 46.2513C16.2666 46.4586 15.8905 46.5578 15.7157 46.6119C15.5058 46.0801 14.8937 43.8447 14.815 43.3128C15.121 43.2137 16.1354 42.9253 17.6307 42.5196C17.6919 42.5016 19.3447 42.0599 19.5021 41.9337Z" fill="white"/>
<path d="M45.9634 34.1729C47.3364 31.1623 47.861 29.7742 47.9835 28.8548C48.1409 27.674 47.1702 24.5191 45.2726 19.9582C44.1446 17.2631 42.3082 13.0987 42.0808 12.7922C41.6523 12.2154 40.5942 11.8728 39.8072 12.0621C38.8016 12.3055 38.1195 13.1348 38.1195 14.1173C38.1195 14.3697 38.6267 16.533 39.1251 18.4709C39.6585 20.5891 40.087 22.3108 40.1482 22.5541C40.1133 22.5632 40.0433 22.5812 39.9296 22.5992C39.3525 22.6894 38.9502 22.9147 38.6354 23.3474C38.4255 23.6358 38.2856 24.1045 37.8571 25.9884C37.5598 27.3134 37.245 28.4762 37.1488 28.7286C37.0526 28.99 36.6416 29.7291 36.2569 30.333C35.8721 30.955 35.4524 31.6761 35.3124 31.9555C34.8927 32.8749 34.6041 33.8574 34.4467 34.8669C34.333 35.7683 34.3855 37.8956 34.5429 38.7789C34.5691 38.9141 34.5866 39.0133 34.5954 39.0944C34.4292 39.0583 34.1669 38.9862 33.8521 38.8961C32.9689 38.6437 32.383 38.5175 32.2431 39.0133C32.0769 39.5631 31.045 43.5742 31.045 43.7725C31.0538 43.9168 31.115 44.052 31.2112 44.1601L31.2199 44.1692C31.2549 44.2052 31.3511 44.2863 37.9533 46.1161C40.1133 46.711 42.0546 47.2428 43.2876 47.5854C44.1795 47.8287 44.573 47.9459 44.6517 47.9639C44.678 47.973 44.7304 47.991 44.8004 47.991C44.8529 47.991 44.9141 47.982 44.9753 47.9459C45.2464 47.7927 45.4125 47.2879 45.9197 45.3319C45.9285 45.3049 46.5406 43.0064 46.5406 42.8441C46.5231 42.4385 46.1908 42.3033 45.2201 42.0329L44.302 41.7715L44.2845 41.42C44.2407 40.7349 44.4156 38.9682 44.6168 38.0488C44.8441 36.886 45.2289 35.7954 45.9634 34.1729ZM43.1389 40.3653C43.1127 40.9963 43.0777 41.2757 43.0602 41.4109C42.8678 41.3659 42.4656 41.2757 42.0021 41.1495C41.0402 40.8972 40.7779 40.8611 40.603 40.9693L40.5942 40.9783C40.4456 41.0774 40.3494 41.2847 40.3406 41.5101C40.3319 41.6814 40.3931 41.8346 40.4893 41.9157C40.6379 42.0419 42.7367 42.6188 42.9728 42.6819C44.1271 42.9974 44.8966 43.2227 45.1852 43.3128C45.1502 43.5292 45.0278 44.061 44.7917 44.9984C44.6605 45.4942 44.4331 46.3685 44.3194 46.6119C43.2613 46.3144 33.3799 43.5923 32.383 43.3489C32.4529 42.9523 33.0563 40.6087 33.2312 40.0408C33.5285 40.1039 34.333 40.3113 35.4524 40.6177C36.012 40.771 37.8396 41.2667 37.9708 41.2667C38.1894 41.2667 38.3818 41.1135 38.4693 40.8791C38.5567 40.6358 38.4955 40.3834 38.3294 40.2391C38.1807 40.113 37.0614 39.7975 37.0177 39.7885C36.3531 39.5992 36.0033 39.473 35.8983 39.4279C35.7934 39.1485 35.6185 37.544 35.6185 36.3452C35.6185 34.0016 35.8634 33.2805 37.6298 30.4232C38.2944 29.3415 38.4343 28.9359 38.9939 26.4301C39.3175 25.0059 39.5099 24.2577 39.5536 24.1676L39.5623 24.1586C39.6411 23.9963 40.0171 23.789 40.3231 23.789C40.6117 23.789 40.9877 24.0594 41.1189 24.3569C41.2326 24.6093 41.2238 24.7265 40.4193 28.5753C39.5623 32.6676 39.6148 32.7848 39.6323 32.8298L39.6411 32.8479C39.7023 32.9741 39.7985 33.0732 39.9209 33.1453C40.0695 33.2264 40.2269 33.2355 40.3669 33.1633C40.5592 33.0732 40.7079 32.8659 40.7691 32.5865C41.0489 31.4868 42.3606 25.0329 42.3606 24.6363C42.3606 24.1225 42.1857 23.7079 41.7573 23.2031C41.5299 22.9508 41.3987 22.455 40.4368 18.6872C39.7985 16.1544 39.3787 14.2885 39.37 14.1263C39.3787 13.955 39.4137 13.7928 39.4924 13.6395C39.7372 13.279 40.4543 13.1258 40.8653 13.3421C40.979 13.4052 41.0927 13.4863 41.1889 13.5855C41.39 13.9099 43.4887 18.6692 44.4331 20.9677C45.9547 24.6544 46.8204 27.4306 46.8204 28.5934C46.8204 28.7646 46.7067 29.2874 46.5144 29.8553C46.217 30.7386 45.9897 31.2795 44.8004 33.9475C43.6986 36.3001 43.2264 38.166 43.1389 40.3653ZM32.3305 43.3399C32.3218 43.3399 32.313 43.3399 32.313 43.3309C32.313 43.3309 32.3218 43.3309 32.3305 43.3399Z" fill="white"/>
<path d="M32.6278 28.7286V27.2864H34.0532C35.7234 27.2864 35.8021 27.2052 35.8808 27.1241C35.9333 27.07 36.047 26.9529 36.047 24.6273C36.047 22.2927 35.9333 22.1846 35.8808 22.1215C35.8021 22.0404 35.7234 21.9592 34.0532 21.9592H32.6278V20.499C32.6278 18.9486 32.6191 18.7413 32.418 18.5611C32.2256 18.3808 31.9982 18.3537 29.9869 18.3537C27.9232 18.3537 27.7571 18.3718 27.5734 18.5701C27.3898 18.7684 27.3723 19.0478 27.3723 20.499V21.9592H25.9469C24.2767 21.9592 24.198 22.0404 24.1193 22.1215C24.0668 22.1756 23.9531 22.2927 23.9531 24.6273C23.9531 26.9619 24.0668 27.07 24.1193 27.1241C24.198 27.2052 24.2767 27.2864 25.9469 27.2864H27.3723V28.7286C27.3723 30.2339 27.3723 30.4232 27.5997 30.6665C27.827 30.9009 27.9932 30.9009 29.9957 30.9009C32.007 30.9009 32.1644 30.9009 32.3917 30.6665C32.6278 30.4322 32.6278 30.2339 32.6278 28.7286ZM28.4654 26.3489L28.4566 26.3399C28.308 26.1416 28.0981 26.1146 26.5853 26.0966L25.1424 26.0695L25.1162 24.6003L25.0987 23.1491H26.5241C27.9757 23.1491 28.238 23.122 28.3954 22.9508C28.5528 22.7795 28.5878 22.5091 28.5878 21.0218V19.5436H31.3773V21.0128C31.3773 22.5091 31.4036 22.7795 31.5697 22.9417C31.7359 23.113 31.9982 23.14 33.4411 23.14H34.8665L34.849 24.5913L34.8227 26.0605L33.3799 26.0875C31.8496 26.1056 31.6572 26.1326 31.5173 26.3309C31.4298 26.4481 31.3686 26.6554 31.3686 28.1968V29.6209H28.5791V28.1968C28.6053 26.6825 28.5353 26.4571 28.4654 26.3489Z" fill="white"/>
</svg>
