<svg width="60" height="60" viewBox="0 0 60 60" fill="none" xmlns="http://www.w3.org/2000/svg">
<path d="M8.82353 0H51.1765C56.1176 0 60 3.88235 60 8.82353V51.1765C60 56.1176 56.1176 60 51.1765 60H8.82353C3.88235 60 0 56.1176 0 51.1765V8.82353C0 3.88235 3.88235 0 8.82353 0Z" fill="#2575D6"/>
<path d="M12 30.7929C12.2194 30.5655 12.4576 30.3824 12.7899 30.5277C13.1158 30.6666 13.166 30.9571 13.1848 31.2793C13.2099 31.6645 13.2537 32.0498 13.2913 32.4288C13.329 32.8267 13.1284 33.1361 12.7961 33.1993C12.4702 33.2625 12.1755 33.0351 12.0878 32.6372C12.0501 32.4603 12.0251 32.2772 12 32.1003C12 31.6645 12 31.2287 12 30.7929ZM22.7382 18.8305C20.143 20.3147 18.2436 22.4559 17.0714 25.2159C15.7487 28.336 15.6296 31.5382 16.7015 34.7593C17.7985 38.0626 19.8985 40.5574 22.9138 42.2438C25.3209 43.5891 27.9224 44.107 30.6681 43.8228C32.2666 43.6585 33.7836 43.2227 35.2129 42.4964C37.8207 41.1827 39.8141 39.2121 41.1368 36.591C42.7165 33.4519 43.0299 30.174 42.0896 26.7823C41.6696 25.2601 40.9864 23.8643 40.0523 22.5948C39.9144 22.4053 39.8831 22.2474 40.0084 22.039C40.2216 21.6853 40.4222 21.3253 40.604 20.959C40.7293 20.7063 40.8547 20.6811 41.0553 20.8769C41.6195 21.4264 42.1899 21.9632 42.7604 22.5001C42.9108 22.639 42.9485 22.7843 42.8858 22.9864C42.8858 22.9864 42.7165 23.2896 42.5723 23.7506C42.4783 24.0601 42.5473 24.3191 42.7729 24.5464C43.0299 24.7991 43.2807 25.058 43.5377 25.317C44.0517 25.8349 44.3965 25.7907 44.7476 25.1528C45.4385 23.8931 46.3336 22.8603 47.581 22.1527C48.0825 21.8685 48.1326 21.4832 47.7377 21.0537C47.4744 20.7695 47.1986 20.5042 46.9353 20.22C46.7034 19.9737 46.4526 19.8916 46.1267 20.0053C45.6816 20.1568 46.1956 19.9863 45.7568 20.1379C45.5311 20.2137 45.3807 20.1758 45.224 19.9926C44.7225 19.4368 44.2085 18.8937 43.7007 18.3442C43.3998 18.022 43.4061 18.0157 43.7947 17.801C45.1425 17.0494 46.0452 16.4683 47.3929 15.7104C48.1201 15.2999 48.1703 14.9525 47.5935 14.3651C47.324 14.0872 47.0294 13.8282 46.7786 13.5377C46.4338 13.1398 46.064 13.064 45.5562 13.2219C43.7947 13.784 42.4532 14.1377 40.6855 14.6872C40.4598 14.7567 40.3031 14.7251 40.1464 14.5483C39.8204 14.1756 39.4756 13.8219 39.1371 13.4619C38.8989 13.2093 38.6481 12.963 38.4162 12.6977C37.3317 11.4408 35.5138 12.0093 34.9872 13.3924C34.8932 13.6388 34.8243 13.7714 34.5108 13.7146C34.2413 13.664 34.0219 13.8409 33.9404 14.1125C33.8526 14.3904 33.909 14.6556 34.1786 14.8072C34.3854 14.9209 34.6237 14.9904 34.8431 15.0788C34.9747 15.1293 35.1189 15.1672 35.2192 15.2809C35.8837 16.0325 36.6422 16.6894 37.3693 17.3778C37.5261 17.5231 37.5574 17.662 37.4947 17.8578C37.3631 18.2621 37.244 18.6663 37.1186 19.0705C36.9807 19.5379 36.9807 19.5379 36.5669 19.2663C34.3604 17.8199 31.9469 17.0936 29.3141 17.0873C26.9759 17.081 24.7756 17.6684 22.7382 18.8305ZM36.4729 20.5863C36.6422 20.7063 36.6046 20.8453 36.5544 21.0032C36.3162 21.7927 36.266 22.1326 36.0153 22.9157C35.8837 23.3136 35.9652 23.6168 36.266 23.8947C36.6547 24.2547 37.0246 24.6337 37.4132 25C37.7643 25.3347 38.1467 25.2842 38.3974 24.8547C38.6983 24.3305 38.8111 24.2496 39.0995 23.7127C39.2123 23.5106 39.2875 23.4601 39.438 23.6938C40.1714 24.8307 40.7105 26.0496 41.0679 27.357C41.1493 27.6665 41.1055 27.8497 40.8046 27.9886C40.4222 28.1655 40.0837 28.4181 39.7452 28.6771C38.9678 29.2645 38.6293 30.0792 38.5541 31.0266C38.4475 32.4224 37.7517 33.5151 36.8365 34.5004C36.1407 35.2583 35.3446 35.9089 34.586 36.5973C33.5204 37.5573 32.5801 38.6247 32.1475 40.0458C31.9595 40.6585 31.9156 41.2837 31.9783 41.9153C32.0096 42.2248 31.9281 42.3575 31.5896 42.4206C27.5839 43.1091 24.0609 42.0795 21.0896 39.3258C18.9018 37.3047 17.6732 34.7404 17.3534 31.7466C17.3472 31.6961 17.3409 31.6519 17.3346 31.6014C17.3221 31.3929 17.1779 31.1277 17.3848 30.995C17.5603 30.8877 17.7609 31.0835 17.9364 31.1908C18.7952 31.734 19.5099 32.4667 20.2747 33.1298C21.3779 34.0899 22.5376 34.9425 23.9168 35.4415C25.5466 36.0289 27.2078 36.111 28.8627 35.5362C29.8093 35.2078 30.0099 34.3109 29.3141 33.5972C28.7938 33.0604 28.1418 32.7193 27.4774 32.3972C27.0135 32.1698 26.5371 31.9614 26.0983 31.6835C25.8914 31.5508 25.7096 31.3929 25.5466 31.2161C25.2269 30.8687 25.158 30.4834 25.3648 30.0476C25.6469 29.4539 26.092 28.9929 26.5559 28.5571C27.4209 27.7486 28.3236 26.9907 29.195 26.1886C30.1039 25.3549 31.0129 24.5275 31.7213 23.5043C32.8183 21.9127 33.1192 20.2768 31.878 18.5084C33.6144 18.9063 35.1126 19.5947 36.4729 20.5863ZM21.5973 32.7067C20.7135 31.993 19.9048 31.1971 19.0084 30.5024C18.5508 30.1487 18.0743 29.8582 17.5039 29.7571C17.3597 29.7318 17.3033 29.6813 17.3158 29.5171C17.529 26.8897 18.4693 24.5528 20.1681 22.5506C21.9296 20.4726 24.1487 19.1526 26.7941 18.5652C27.8096 18.3378 28.8377 18.2621 29.872 18.3C29.966 18.3063 30.0663 18.3063 30.1416 18.3757C31.1195 19.2979 31.7213 20.4347 31.2636 21.8116C31.0066 22.5822 30.5365 23.2264 29.9848 23.8075C28.9254 24.9317 27.7218 25.9044 26.5684 26.9276C25.835 27.5781 25.0953 28.2223 24.5624 29.0497C24.0609 29.8266 23.7788 30.654 24.2678 31.5382C24.6377 32.2077 25.2708 32.6056 25.9227 32.953C26.5997 33.3193 27.3332 33.5846 27.9726 34.0141C28.1168 34.1151 28.3738 34.1972 28.3487 34.3614C28.3174 34.5699 28.0353 34.532 27.866 34.5762C27.4335 34.6899 26.9884 34.7025 26.7314 34.6899C24.6126 34.7404 23.0454 33.8688 21.5973 32.7067ZM37.6326 13.5819C38.2783 14.2704 38.9365 14.9399 39.5634 15.6472C39.9019 16.0262 40.2404 16.0894 40.7168 15.9378C42.4846 15.3757 43.8198 15.022 45.5876 14.4851C45.9198 14.3841 46.1956 14.5041 46.3649 14.8072C46.4715 15.003 46.2897 15.0093 46.2082 15.0535C44.9795 15.742 44.1834 16.2473 42.9485 16.9357C42.7165 17.062 42.4846 17.1883 42.2526 17.3273C41.8076 17.5989 41.7449 17.9652 42.0959 18.3442C42.9798 19.3042 43.8637 20.2579 44.7476 21.2179C44.9732 21.4642 45.224 21.559 45.5562 21.4453C46.0326 21.2874 45.55 21.4327 46.0326 21.2874C46.1768 21.2432 46.3398 21.2053 46.4088 21.3695C46.4395 21.447 44.1215 24.0857 43.9702 24.0285C43.8323 23.9717 43.8135 23.839 43.8574 23.6938C44.0079 23.2201 44.0267 23.3654 44.1834 22.898C44.3025 22.5443 44.2398 22.2727 43.9702 22.0137C43.0362 21.1421 42.121 20.2516 41.187 19.3737C40.7482 18.9568 40.3783 19.0263 40.0837 19.5505C39.3126 20.9337 38.7234 21.8736 37.9523 23.2505C37.8834 23.3768 37.8771 23.6231 37.6389 23.5789C37.4258 23.541 37.2001 23.1305 37.2565 22.9094C37.3568 22.5368 37.3066 22.6201 37.4132 22.2474C37.8583 20.7758 38.2908 19.3042 38.7484 17.8389C38.8864 17.3968 38.8049 17.0873 38.4664 16.7778C37.7266 16.1083 37.0057 15.4072 36.2786 14.7188C36.009 14.4662 35.9652 14.1504 36.078 13.8219C36.1971 13.4809 36.5669 13.2282 36.9117 13.2219C37.2314 13.1967 37.4383 13.3735 37.6326 13.5819ZM33.5266 41.9027C33.232 42.0101 33.1631 41.9595 33.1442 41.6501C33.0753 40.5448 33.4953 39.629 34.141 38.7763C34.7428 37.9742 35.5075 37.3489 36.2472 36.6983C36.9681 36.0731 37.6389 35.3973 38.2469 34.6583C39.0932 33.6351 39.6261 32.473 39.7201 31.1403C39.789 30.1676 40.3595 29.5866 41.1368 29.1381C41.3123 29.0371 41.3499 29.0939 41.3813 29.2708C41.4565 29.6813 41.4126 30.0919 41.4377 30.4329C41.4314 35.5994 38.2846 40.1216 33.5266 41.9027ZM46.7912 30.7361C46.7912 30.6729 46.7912 30.6161 46.7912 30.5529C46.7786 30.0729 46.5341 29.7634 46.1706 29.7697C45.807 29.7697 45.5688 30.0729 45.55 30.5592C45.5311 30.9824 45.4998 31.3993 45.4873 31.8224C45.4747 32.2709 45.7129 32.5803 46.064 32.6056C46.415 32.6309 46.6846 32.3467 46.7222 31.8919C46.7535 31.5066 46.7661 31.1214 46.7849 30.7361H46.7912ZM26.023 13.2409C25.6657 13.3293 25.4651 13.6198 25.5153 13.923C25.5717 14.2451 25.8726 14.4788 26.2362 14.4346C26.7377 14.3714 27.2329 14.3019 27.7281 14.2072C28.1105 14.1377 28.3048 13.8661 28.2609 13.5125C28.2171 13.1903 27.9601 12.9945 27.5839 13.0009C27.0574 13.0451 26.5371 13.1145 26.023 13.2409ZM26.8693 47.1702C26.9132 46.8671 26.7063 46.5828 26.349 46.4944C25.8475 46.3681 25.346 46.2544 24.8445 46.147C24.5123 46.0776 24.2302 46.2481 24.1299 46.5449C24.0296 46.8418 24.1612 47.1828 24.4809 47.2839C25.0263 47.4544 25.5905 47.5744 26.0168 47.6818C26.5559 47.7008 26.8192 47.505 26.8693 47.1702ZM13.0469 26.1886C12.7209 26.1444 12.4451 26.3023 12.3699 26.6433C12.2507 27.1865 12.163 27.736 12.0878 28.2855C12.0439 28.6076 12.2821 28.8981 12.5767 28.9487C12.8525 28.9992 13.166 28.816 13.2349 28.5129C13.3603 27.9507 13.4543 27.376 13.5358 26.9149C13.5358 26.4665 13.3415 26.2328 13.0469 26.1886ZM32.5111 13.7461C32.5362 13.4051 32.3168 13.1651 31.8905 13.0893C31.4204 13.0009 30.9377 12.9566 30.4613 12.9377C30.0601 12.9251 29.8093 13.1209 29.7592 13.4682C29.7153 13.784 29.9472 14.0746 30.3296 14.1377C30.806 14.2135 31.2824 14.2514 31.7213 14.3083C32.2039 14.3146 32.486 14.0998 32.5111 13.7461ZM23.9982 14.9588C24.1988 14.8325 24.2615 14.5862 24.1675 14.3398C24.0672 14.0746 23.8541 13.8725 23.5971 13.9356C22.9326 14.0872 22.2869 14.3209 21.7353 14.7441C21.5347 14.8956 21.5284 15.1483 21.6224 15.3757C21.7164 15.6093 21.9045 15.723 22.2054 15.7483C22.7884 15.5209 23.4341 15.3251 23.9982 14.9588ZM16.0621 20.9969C16.5134 20.5611 16.9084 20.0747 17.2218 19.5316C17.3785 19.2663 17.2657 19.0073 17.0337 18.8305C16.7955 18.641 16.526 18.6473 16.3066 18.8494C15.8803 19.2537 15.5042 19.721 15.2158 20.2326C14.9902 20.6369 15.2911 21.1232 15.78 21.1169C15.849 21.0979 15.9806 21.0727 16.0621 20.9969ZM13.6863 34.873C13.5609 34.652 13.3039 34.5888 13.0469 34.6899C12.7836 34.7909 12.5955 34.9994 12.6519 35.2709C12.7773 35.8962 12.9716 36.5152 13.2788 37.0773C13.4167 37.3236 13.6863 37.3678 13.9496 37.2731C14.2003 37.1847 14.3257 36.9889 14.3319 36.6352C14.1627 36.0794 14.0122 35.4415 13.6863 34.873ZM36.5356 45.2249C36.404 45.446 36.4165 45.667 36.5607 45.8691C36.7049 46.0649 36.9117 46.2039 37.1562 46.1028C37.7455 45.8628 38.3034 45.547 38.8049 45.1428C38.9992 44.9849 39.0368 44.7512 38.924 44.5112C38.8174 44.2838 38.6419 44.1512 38.4225 44.1449C38.1028 44.1575 36.6923 44.9723 36.5356 45.2249ZM20.306 44.8586C20.2182 45.1491 20.2872 45.4207 20.563 45.5849C20.9893 45.8312 21.4218 46.0712 21.8544 46.2986C22.2117 46.4818 22.5753 46.3807 22.732 46.0839C22.895 45.7807 22.7821 45.4396 22.4248 45.2312C22.0173 44.9975 21.6036 44.7828 21.1899 44.568C21.0833 44.5112 20.9642 44.4859 20.8827 44.4544C20.5944 44.4859 20.3812 44.5996 20.306 44.8586ZM16.9773 42.2438C16.8645 42.4901 16.9272 42.7238 17.1027 42.9133C17.4412 43.2733 17.7985 43.6143 18.1872 43.9238C18.5257 44.1954 18.883 44.1891 19.1149 43.9175C19.3344 43.6585 19.2905 43.3048 18.9833 43.0206C18.6573 42.7175 18.3251 42.4143 17.9991 42.1174C17.8612 41.9911 17.7108 41.8964 17.554 41.9027C17.272 41.8964 17.0839 42.0101 16.9773 42.2438ZM43.6568 38.2205C43.3434 38.7068 43.0299 39.1932 42.7604 39.7047C42.6099 39.989 42.7416 40.3048 43.0049 40.4563C43.287 40.6206 43.5628 40.5574 43.7446 40.3111C44.0956 39.8374 44.4216 39.3384 44.6535 38.7952C44.8103 38.4226 44.5031 38.0184 44.1019 38.0184C43.9264 38.0247 43.7571 38.0689 43.6568 38.2205ZM14.5137 22.2664C14.2066 22.1906 13.9558 22.298 13.8179 22.5822C13.6048 23.0117 13.4042 23.4538 13.2161 23.9022C13.0469 24.3064 13.166 24.6475 13.4982 24.7928C13.8242 24.938 14.1439 24.7801 14.3257 24.3759C14.5075 23.978 14.6767 23.5801 14.8522 23.1822C14.8961 23.0748 14.9275 22.9548 14.9525 22.8727C14.9149 22.5506 14.7958 22.3358 14.5137 22.2664ZM16.2564 40.0711C16.0182 39.6542 15.7424 39.2563 15.4728 38.8584C15.2472 38.5363 14.9087 38.4605 14.6266 38.6374C14.3445 38.8142 14.263 39.1679 14.4636 39.4963C14.7081 39.9069 14.9839 40.3111 15.2534 40.709C15.3725 40.8858 15.5355 40.9995 15.7675 40.9932C16.2439 40.9995 16.5134 40.5258 16.2564 40.0711ZM20.1117 15.9946C19.8923 15.862 19.6666 15.8746 19.466 16.0199C19.0773 16.2978 18.6887 16.5883 18.3126 16.8915C17.9678 17.1694 17.9176 17.5231 18.1496 17.8073C18.3627 18.0663 18.72 18.0852 19.0523 17.8452C19.4033 17.5862 19.7418 17.321 20.0866 17.0557C20.2684 16.9168 20.3938 16.7525 20.3938 16.5125C20.3938 16.2852 20.306 16.1083 20.1117 15.9946ZM45.7506 36.3383C45.9261 35.8267 46.0891 35.3088 46.2144 34.7783C46.2959 34.4499 46.0891 34.172 45.7756 34.0899C45.4873 34.0141 45.1926 34.153 45.0861 34.4625C44.9106 34.9615 44.7538 35.4667 44.6222 35.9846C44.5219 36.3826 44.8103 36.7299 45.1926 36.7299C45.4622 36.7173 45.6691 36.5847 45.7506 36.3383ZM29.6777 46.7723C29.546 46.7723 29.4144 46.7723 29.2827 46.7723C29.1386 46.7723 28.9944 46.766 28.8502 46.7849C28.5305 46.8228 28.2986 47.0628 28.2986 47.3597C28.2986 47.6565 28.4427 47.9155 28.7374 47.9471C29.3454 48.0102 29.9598 48.0355 30.5678 47.9155C30.8875 47.8523 31.0505 47.5744 31.0004 47.2586C30.9502 46.9365 30.7496 46.7723 30.4362 46.7597C30.1854 46.747 29.9347 46.7597 29.6777 46.7597C29.6777 46.7597 29.6777 46.766 29.6777 46.7723ZM41.8577 41.5111C41.6195 41.4037 41.3876 41.429 41.1932 41.6185C40.8547 41.9406 40.5225 42.2753 40.1902 42.6038C39.8643 42.9322 39.8329 43.2543 40.0899 43.5196C40.3407 43.7785 40.698 43.7722 41.0177 43.4754C41.3437 43.1722 41.6508 42.8501 41.9643 42.5406C42.0959 42.408 42.1899 42.2564 42.1899 42.0606C42.1962 41.808 42.0771 41.6185 41.8577 41.5111ZM34.8117 47.0755C35.1001 46.9555 35.2066 46.627 35.0938 46.3365C34.9747 46.0333 34.724 45.9133 34.4231 45.9828C33.909 46.1028 33.4013 46.2418 32.8935 46.3997C32.5863 46.4944 32.461 46.7407 32.4986 47.0502C32.5299 47.3471 32.7932 47.5429 33.2069 47.5429C33.6896 47.4102 34.2663 47.3029 34.8117 47.0755ZM46.1894 26.0117C46.1079 25.7023 45.7944 25.557 45.5061 25.6202C45.2052 25.6896 44.9983 25.9738 45.0547 26.3086C45.1425 26.8202 45.2553 27.3318 45.387 27.8307C45.4747 28.1592 45.7694 28.3297 46.0828 28.2539C46.4025 28.1781 46.5341 27.9571 46.5279 27.496C46.4338 27.0981 46.3335 26.5486 46.1894 26.0117Z" fill="white"/>
</svg>
