<svg width="60" height="60" viewBox="0 0 60 60" fill="none" xmlns="http://www.w3.org/2000/svg">
<path d="M8.82353 0H51.1765C56.1176 0 60 3.88235 60 8.82353V51.1765C60 56.1176 56.1176 60 51.1765 60H8.82353C3.88235 60 0 56.1176 0 51.1765V8.82353C0 3.88235 3.88235 0 8.82353 0Z" fill="#2575D6"/>
<path d="M32.0509 12.0061C32.7345 12.2135 33.2716 12.6282 33.7538 13.1404C34.2055 13.6161 34.6938 14.0552 35.1577 14.5187C36.0061 15.3603 36.3052 16.3483 35.9145 17.5009C35.8413 17.7144 35.9207 17.8607 36.0183 18.0193C37.001 19.5745 37.9776 21.1296 38.9603 22.6847C39.2472 23.1299 39.4425 23.5934 39.3937 24.1362C39.3815 24.2887 39.4486 24.3679 39.5646 24.4533C40.5534 25.1669 40.9502 26.1243 40.7182 27.3319C40.6816 27.5087 40.706 27.6307 40.8891 27.6917C40.9318 27.7039 40.9746 27.7344 41.0173 27.7527C41.5727 28.0271 41.5727 28.0271 42.0427 27.6185C43.4893 26.3561 45.8271 26.9172 46.5595 28.704C46.7243 29.1066 46.6328 29.442 46.3154 29.5761C45.9919 29.7103 45.705 29.564 45.5219 29.1553C45.2167 28.4662 44.6734 28.0881 43.9349 28.0698C43.2513 28.0515 42.708 28.3625 42.3845 28.9785C42.0671 29.5822 42.0732 30.2043 42.4639 30.7776C42.8973 31.4179 43.5259 31.6314 44.2706 31.5155C44.3499 31.5033 44.4293 31.4728 44.5086 31.4667C44.8505 31.4179 45.119 31.5765 45.1923 31.8692C45.2655 32.1498 45.0885 32.4303 44.7772 32.5523C43.8067 32.9182 42.4883 32.5706 41.762 31.735C41.1699 31.052 40.9135 30.2592 41.0661 29.3566C41.1027 29.1492 41.06 29.0151 40.8586 28.9419C40.8342 28.9358 40.8159 28.9236 40.7976 28.9114C40.3764 28.6309 40.0529 28.6126 39.5829 28.9663C38.1241 30.0579 36.0549 29.3444 35.4629 27.6063C35.3713 27.338 35.2553 27.1672 34.9685 27.0879C34.5229 26.9599 34.2055 26.6488 33.9308 26.289C33.1373 25.2279 32.3377 24.1789 31.5504 23.1116C31.3795 22.8799 31.2757 22.8677 31.0804 23.0872C30.1587 24.1179 29.2248 25.1303 28.2909 26.1548C28.2055 26.2524 28.1261 26.3439 28.1445 26.4964C28.2177 27.0086 28.1872 27.527 28.1994 28.0393C28.2055 28.3076 28.2848 28.4845 28.5778 28.5821C29.3713 28.8565 29.8718 29.564 29.8779 30.4056C29.8901 31.7168 29.8901 33.028 29.8779 34.3391C29.8657 35.1137 29.5117 35.7113 28.822 36.0772C28.6083 36.187 28.5351 36.3151 28.5473 36.5407C28.5778 37.114 28.6022 37.6873 28.6205 38.2605C28.6267 38.4191 28.6877 38.5228 28.8342 38.5899C29.2004 38.7606 29.5239 38.9863 29.8108 39.2668C29.9207 39.3705 30.0427 39.4132 30.1892 39.4071C30.5554 39.401 30.9156 39.3949 31.2757 39.4071C31.5443 39.4193 31.6236 39.3034 31.6175 39.0534C31.6114 38.1081 31.6114 37.1567 31.6175 36.2114C31.6175 35.3088 31.9471 34.9795 32.8444 34.9795C33.7233 34.9795 34.6022 34.9795 35.4812 34.9795C36.2014 34.9795 36.5615 35.3393 36.5615 36.059C36.5677 37.053 36.5677 38.0471 36.5554 39.0412C36.5493 39.3156 36.6409 39.4132 36.9217 39.4071C37.6846 39.3949 38.4476 39.3949 39.2045 39.4071C39.473 39.4132 39.5463 39.3095 39.5463 39.0595C39.5341 38.041 39.5402 37.0225 39.5463 36.0041C39.5463 35.3393 39.9003 34.9856 40.5656 34.9795C41.5239 34.9734 42.4883 34.9734 43.4466 34.9795C44.0936 34.9856 44.4415 35.3393 44.4415 35.9919C44.4476 37.0103 44.4537 38.0288 44.4354 39.0473C44.4293 39.3217 44.5209 39.4254 44.8016 39.4071C45.5768 39.3644 46.3215 39.4498 46.9685 39.9438C47.5056 40.3524 47.8169 40.9012 48 41.5355C48 42.5662 48 43.5968 48 44.6275C47.9756 44.6946 47.9451 44.7555 47.9207 44.8226C47.4629 46.0606 46.5412 46.7132 45.2167 46.7254C44.7833 46.7315 44.4781 46.4875 44.4781 46.1399C44.4781 45.8045 44.7467 45.5972 45.1923 45.585C45.2411 45.585 45.2838 45.585 45.3327 45.585C46.1384 45.5606 46.7487 45.0666 46.8647 44.2616C46.9807 43.487 46.9685 42.6942 46.8769 41.9136C46.7731 41.0232 46.175 40.5536 45.2533 40.5536C40.5168 40.5475 35.7864 40.5536 31.0498 40.5536C31.0132 40.5536 30.9766 40.5536 30.9461 40.5536C30.7202 40.5353 30.6531 40.6268 30.7202 40.8463C30.8545 41.3098 30.8606 41.7916 30.8606 42.2734C30.8545 43.2126 30.8606 44.1457 30.8606 45.0849C30.8606 45.585 30.8606 45.585 31.3611 45.585C35.0966 45.585 38.8383 45.585 42.5738 45.585C42.7141 45.585 42.8545 45.5728 42.9949 45.5972C43.3001 45.6398 43.4893 45.8289 43.4954 46.1399C43.5015 46.4266 43.3367 46.6339 43.0437 46.6827C42.8362 46.7193 42.6226 46.7254 42.4151 46.7254C38.7711 46.7254 35.1272 46.7254 31.4832 46.7254C31.3672 46.7254 31.2513 46.7254 31.1292 46.7254C30.9644 46.7254 30.8606 46.7925 30.8606 46.9754C30.8667 47.4267 30.6531 47.7561 30.2808 47.9939C24.2991 47.9939 18.3174 47.9939 12.3418 48C12.0855 47.9878 12 47.9573 12 47.6524C12.0183 45.463 12.0122 43.2797 12.0122 41.0903C12.3052 39.9499 12.9217 39.0717 14.0081 38.5594C14.1668 38.4862 14.179 38.352 14.1851 38.2118C14.2096 37.6507 14.2218 37.0896 14.2584 36.5285C14.2767 36.2602 14.1851 36.1016 13.9593 35.9553C13.3489 35.565 13.056 34.9856 13.056 34.266C13.0498 33.0036 13.0437 31.7351 13.056 30.4726C13.0621 29.564 13.4832 28.9053 14.3377 28.5577C14.5086 28.4845 14.6002 28.4052 14.6063 28.204C14.6185 27.5941 14.649 26.9903 14.6734 26.3805C14.7101 25.5633 14.7284 24.74 14.8077 23.9288C14.9908 22.0444 16.5107 20.3856 18.3601 19.9831C19.3795 19.7635 20.4171 19.8733 21.4425 19.8611C21.7843 19.855 22.0346 19.7574 22.2848 19.5257C24.5432 17.4095 26.8077 15.3054 29.0661 13.1953C29.6155 12.683 30.1587 12.1647 30.9339 12C31.3001 12.0061 31.6724 12.0061 32.0509 12.0061ZM21.3815 46.9023C24.0183 46.9023 26.6551 46.8962 29.292 46.9084C29.6338 46.9084 29.7314 46.8047 29.7253 46.4693C29.707 44.9141 29.7192 43.3529 29.7192 41.7977C29.7192 41.6209 29.7131 41.444 29.6765 41.2733C29.4323 40.1206 28.4863 39.3644 27.2716 39.3583C24.6592 39.3522 22.0468 39.3583 19.4344 39.3583C19.3184 39.3583 19.2024 39.3644 19.0804 39.3522C18.7691 39.3278 18.5799 39.1692 18.5371 38.8582C18.4944 38.5594 18.6775 38.3154 18.9949 38.2544C19.178 38.2179 19.3672 38.2118 19.5565 38.2118C22.0773 38.2118 24.5921 38.2057 27.1129 38.2179C27.412 38.2179 27.5036 38.1386 27.4791 37.8458C27.4486 37.486 27.4669 37.1201 27.4547 36.7603C27.4364 36.2968 27.4059 36.2724 26.942 36.2724C24.293 36.2724 21.6439 36.2724 19.001 36.2724C17.9207 36.2724 16.8464 36.2785 15.766 36.2663C15.4852 36.2602 15.3998 36.3578 15.3998 36.6322C15.3998 37.0408 15.3754 37.4494 15.3388 37.858C15.3143 38.163 15.412 38.2849 15.7294 38.2605C16.1384 38.2301 16.5473 38.2179 16.9563 38.2422C17.3408 38.2666 17.5361 38.4984 17.5239 38.8216C17.5117 39.1448 17.2859 39.3461 16.9074 39.3522C16.4863 39.3583 16.0651 39.3583 15.6439 39.3522C15.2777 39.3461 14.9176 39.3949 14.5819 39.5473C13.5626 39.9925 13.117 40.8159 13.1048 41.8892C13.0804 43.42 13.0987 44.9385 13.0804 46.4632C13.0743 46.8291 13.1963 46.9084 13.5381 46.9084C16.1567 46.8962 18.7691 46.9023 21.3815 46.9023ZM28.0773 24.6058C28.1933 24.6241 28.2238 24.5509 28.2665 24.5021C30.3479 22.2212 32.4354 19.9404 34.5168 17.6534C35.1211 16.9887 35.0966 16.0861 34.4557 15.4396C33.8637 14.8419 33.2655 14.2443 32.6612 13.6588C31.9044 12.9209 31.0376 12.9209 30.2625 13.6405C28.3093 15.4579 26.3499 17.2753 24.3967 19.0927C24.1526 19.3183 23.884 19.5318 23.6826 19.8123C23.8352 19.9099 23.9878 19.9099 24.1343 19.9282C24.6226 20.0014 25.0926 20.1538 25.532 20.3856C25.8372 20.5502 25.9349 20.8491 25.8067 21.1235C25.6724 21.404 25.3917 21.5138 25.0621 21.404C24.9766 21.3735 24.8911 21.3308 24.8057 21.2943C24.4273 21.1357 24.0305 21.0198 23.6155 21.0198C22.1506 21.0198 20.6857 21.0015 19.2208 21.0259C17.5178 21.0503 16.0102 22.5018 15.9064 24.2033C15.8332 25.4657 15.8087 26.7281 15.7477 27.9905C15.7294 28.3198 15.821 28.4418 16.1689 28.4357C19.6846 28.4235 23.1943 28.4235 26.7101 28.4357C27.058 28.4357 27.119 28.3015 27.1007 27.9966C27.0458 27.0757 26.9908 26.1548 26.9725 25.2279C26.9542 24.2948 26.881 23.3861 26.3622 22.5628C26.1913 22.2944 26.295 21.9834 26.5392 21.8248C26.7894 21.6602 27.119 21.7273 27.3143 21.9895C27.473 22.209 27.5951 22.4469 27.6989 22.6969C27.9613 23.3129 28.0773 23.9471 28.0773 24.6058ZM21.4669 29.5822C19.3489 29.5822 17.2248 29.5822 15.1068 29.5822C14.5514 29.5822 14.2157 29.8628 14.2096 30.3568C14.1974 31.6924 14.2035 33.0219 14.2096 34.3574C14.2096 34.6807 14.3744 34.9185 14.6551 35.0588C14.8688 35.1625 15.1068 35.1686 15.3449 35.1686C18.4273 35.1686 21.5036 35.1686 24.586 35.1686C25.6419 35.1686 26.6918 35.1747 27.7477 35.1686C28.4252 35.1625 28.7365 34.8514 28.7365 34.1806C28.7365 32.9853 28.7365 31.796 28.7365 30.6007C28.7365 29.8506 28.4741 29.5883 27.7233 29.5883C25.6358 29.5822 23.5483 29.5822 21.4669 29.5822ZM38.2828 23.9715C38.2645 23.7947 38.2035 23.6178 38.1058 23.4532C37.1597 21.9529 36.2075 20.4466 35.2675 18.9402C35.1577 18.7633 35.0783 18.7085 34.9074 18.8914C34.0407 19.855 33.1618 20.8125 32.2828 21.7699C32.1546 21.9102 32.1485 22.0139 32.2645 22.1603C33.1495 23.3251 34.0163 24.5021 34.9013 25.6609C35.2431 26.1121 35.762 26.2036 36.2442 25.8987C36.8057 25.5389 37.3489 25.1486 37.8922 24.7644C38.1607 24.5875 38.2645 24.3009 38.2828 23.9715ZM43.3489 37.7727C43.3489 37.3153 43.3428 36.8579 43.3489 36.4066C43.355 36.1931 43.2635 36.1138 43.056 36.1138C42.354 36.1199 41.6521 36.1199 40.9502 36.1138C40.7426 36.1138 40.6511 36.1931 40.6572 36.4066C40.6633 37.3092 40.6633 38.2057 40.6572 39.1082C40.6572 39.3217 40.7426 39.3949 40.9502 39.3949C41.6521 39.3888 42.354 39.3888 43.056 39.3949C43.294 39.401 43.355 39.2912 43.3489 39.0717C43.3428 38.6326 43.3489 38.1996 43.3489 37.7727ZM32.7772 37.7361C32.7772 38.1813 32.7833 38.6265 32.7772 39.0717C32.7711 39.2912 32.8383 39.3949 33.0763 39.3888C33.7538 39.3766 34.4374 39.3827 35.115 39.3888C35.3408 39.3888 35.4324 39.3095 35.4324 39.0839C35.4262 38.1935 35.4262 37.3031 35.4324 36.4188C35.4324 36.2175 35.3591 36.1138 35.1455 36.1138C34.4557 36.1199 33.766 36.1199 33.0702 36.1138C32.8627 36.1138 32.7772 36.1992 32.7772 36.4066C32.7772 36.8457 32.7772 37.2909 32.7772 37.7361ZM39.6378 26.7403C39.6378 26.2341 39.4486 25.8011 39.119 25.5206C38.9908 25.4169 38.8993 25.3925 38.7589 25.5145C38.1302 26.039 37.4405 26.4842 36.7447 26.9172C36.5127 27.0574 36.5066 27.1855 36.6043 27.399C36.9156 28.082 37.6663 28.4418 38.4476 28.2771C39.1434 28.1308 39.6378 27.4904 39.6378 26.7403ZM42.8362 44.8409C41.8535 44.8409 41.1027 44.0847 41.1027 43.1028C41.1089 42.1454 41.8352 41.4379 42.8118 41.4257C43.8128 41.4196 44.527 42.1149 44.5331 43.115C44.5392 44.0847 43.7945 44.8409 42.8362 44.8409ZM43.41 43.1394C43.4161 42.8284 43.1597 42.5783 42.8301 42.5723C42.4883 42.5662 42.2564 42.7918 42.2564 43.1333C42.2564 43.4565 42.5188 43.7249 42.824 43.7188C43.1231 43.7188 43.41 43.4383 43.41 43.1394ZM37.1414 43.1211C37.1475 44.0969 36.4151 44.8409 35.4507 44.8409C34.4863 44.8409 33.7233 44.103 33.7172 43.1516C33.7111 42.1941 34.468 41.4318 35.4201 41.4257C36.3845 41.4196 37.1353 42.1575 37.1414 43.1211ZM35.4324 43.7188C35.7314 43.7188 36.0244 43.4322 36.0244 43.1394C36.0244 42.8223 35.7742 42.5723 35.4446 42.5723C35.1027 42.5662 34.8708 42.7918 34.8708 43.1333C34.8708 43.4504 35.1272 43.7188 35.4324 43.7188ZM18.0671 43.7188C18.0671 44.6458 17.2553 45.4569 16.3398 45.4447C15.4059 45.4325 14.6185 44.6458 14.6124 43.7127C14.6002 42.7979 15.4181 41.9868 16.3459 41.9929C17.2798 41.999 18.0671 42.7857 18.0671 43.7188ZM16.9135 43.7249C16.9135 43.3895 16.6816 43.1516 16.3459 43.1455C16.0163 43.1455 15.766 43.3895 15.7599 43.7127C15.7538 44.0176 16.0285 44.2982 16.3337 44.2982C16.6572 44.3043 16.9135 44.0481 16.9135 43.7249ZM20.0875 44.1579C20.0875 44.3774 20.0875 44.6031 20.0875 44.8226C20.0875 44.847 20.0875 44.8714 20.0875 44.8958C20.118 45.2861 20.3377 45.5301 20.6551 45.5301C20.9908 45.5301 21.2228 45.2739 21.2289 44.8714C21.2411 44.4262 21.2411 43.981 21.2289 43.5358C21.2228 43.3041 21.2594 43.1394 21.528 43.0662C21.7477 43.0053 21.8576 42.8101 21.8637 42.5784C21.8698 42.3588 21.7843 42.1454 21.589 42.0905C21.2289 41.9868 21.2045 41.7428 21.2289 41.444C21.235 41.3525 21.2289 41.255 21.2045 41.1635C21.1251 40.8829 20.942 40.7183 20.649 40.7183C20.3683 40.7244 20.1851 40.8768 20.1241 41.1452C20.0875 41.2915 20.0753 41.444 20.0875 41.5965C20.0997 41.8221 20.0448 41.9685 19.8006 42.0417C19.5687 42.1149 19.4527 42.31 19.4466 42.5601C19.4466 42.7735 19.5381 42.9809 19.7396 43.0357C20.0753 43.1272 20.0936 43.3529 20.0814 43.6273C20.0753 43.8103 20.0875 43.9871 20.0875 44.1579ZM25.7823 43.8652C25.7823 44.225 25.7701 44.5909 25.7884 44.9507C25.8067 45.2922 26.0387 45.5179 26.3377 45.5301C26.6368 45.5423 26.8688 45.3288 26.9176 44.9873C26.9298 44.8836 26.9298 44.7799 26.9298 44.6702C26.9298 44.0847 26.9359 43.4992 26.9298 42.9138C26.9298 42.7064 26.9603 42.5601 27.1984 42.493C27.4303 42.4259 27.5646 42.2368 27.5646 41.9868C27.5646 41.7245 27.4303 41.5294 27.1862 41.4562C27.0153 41.4074 26.942 41.322 26.8993 41.1574C26.8321 40.889 26.649 40.7366 26.3683 40.7305C26.0875 40.7244 25.8861 40.8707 25.825 41.1391C25.7762 41.3403 25.6724 41.4196 25.4893 41.4806C25.2879 41.5477 25.1719 41.7184 25.1536 41.9319C25.1353 42.1453 25.1963 42.3771 25.3978 42.432C25.8311 42.5479 25.7945 42.8528 25.7884 43.1699C25.7701 43.4017 25.7762 43.6334 25.7823 43.8652ZM24.061 41.4257C24.061 41.4013 24.061 41.3769 24.061 41.3586C24.0488 40.9683 23.8352 40.7244 23.5056 40.7305C23.1821 40.7305 22.9624 40.9805 22.9563 41.3647C22.9502 41.8892 22.9502 42.4137 22.9563 42.9443C22.9624 43.1638 22.9379 43.3163 22.6694 43.3712C22.4313 43.42 22.3032 43.6273 22.2971 43.8652C22.2848 44.1213 22.4069 44.3408 22.6633 44.4018C22.9379 44.4689 22.9624 44.6397 22.9563 44.8714C22.9563 45.2861 23.176 45.5423 23.5117 45.5362C23.8413 45.5301 24.061 45.28 24.0549 44.8592C24.0549 44.6214 24.0916 44.4628 24.3601 44.3957C24.5799 44.3408 24.708 44.1518 24.7202 43.9261C24.7325 43.7005 24.6409 43.4626 24.4273 43.4139C24.0244 43.3224 24.0427 43.054 24.0549 42.7552C24.061 42.5662 24.0549 42.3832 24.0549 42.1941C24.061 41.938 24.061 41.6819 24.061 41.4257ZM23.5605 24.4777C23.5666 25.6669 22.6144 26.6305 21.4364 26.6427C20.2462 26.6549 19.2574 25.6791 19.2513 24.496C19.2452 23.3434 20.2523 22.3371 21.4059 22.3371C22.5717 22.331 23.5605 23.3129 23.5605 24.4777ZM22.413 24.5082C22.4191 23.9228 21.9736 23.4776 21.3998 23.4776C20.8505 23.4837 20.3988 23.9471 20.3988 24.4899C20.3988 25.051 20.8383 25.484 21.4059 25.4901C21.9858 25.4962 22.4069 25.0815 22.413 24.5082ZM31.3062 18.3242C30.4273 18.3181 29.6704 17.5558 29.6704 16.6776C29.6704 15.8055 30.4395 15.031 31.3062 15.031C32.2035 15.031 32.9725 15.8055 32.9542 16.6959C32.942 17.5863 32.1851 18.3303 31.3062 18.3242ZM31.294 16.1775C31.0132 16.1897 30.7874 16.4337 30.8057 16.7142C30.824 16.9765 31.0621 17.1899 31.3245 17.1838C31.587 17.1777 31.8067 16.946 31.8067 16.6837C31.8128 16.3971 31.5748 16.1653 31.294 16.1775ZM17.8108 34.3757C17.176 34.3757 16.5473 34.3818 15.9125 34.3757C15.4364 34.3696 15.235 34.1684 15.2289 33.6866C15.2228 32.845 15.2228 32.0034 15.2289 31.1618C15.235 30.7105 15.4425 30.4848 15.8942 30.4848C17.1699 30.4726 18.4456 30.4726 19.7213 30.4848C20.1729 30.4909 20.3805 30.7105 20.3866 31.1679C20.3927 32.0095 20.3927 32.8511 20.3866 33.6927C20.3805 34.1745 20.179 34.3757 19.703 34.3818C19.0743 34.3818 18.4456 34.3757 17.8108 34.3757ZM17.7864 33.2719C18.1709 33.2719 18.5554 33.2658 18.9461 33.2719C19.1475 33.278 19.2574 33.2109 19.2513 32.9914C19.2452 32.6315 19.2452 32.2656 19.2513 31.9058C19.2574 31.6924 19.1536 31.6192 18.9522 31.6192C18.1892 31.6253 17.4324 31.6253 16.6694 31.6192C16.4557 31.6192 16.3825 31.7168 16.3825 31.918C16.3886 32.2656 16.3886 32.6193 16.3825 32.967C16.3764 33.1987 16.4802 33.2719 16.6999 33.2658C17.06 33.2597 17.4201 33.2719 17.7864 33.2719ZM27.4181 33.3878C27.4242 33.0584 27.119 32.7901 26.7345 32.7962C26.3683 32.8023 26.0753 33.0645 26.0814 33.3817C26.0875 33.7171 26.3561 33.9427 26.7467 33.9427C27.1373 33.9427 27.412 33.7171 27.4181 33.3878ZM27.4181 31.3569C27.4303 31.0215 27.1251 30.7593 26.7345 30.7654C26.3622 30.7715 26.0692 31.0215 26.0753 31.3447C26.0753 31.6802 26.3438 31.9058 26.7406 31.9058C27.1312 31.9119 27.4059 31.6863 27.4181 31.3569ZM25.2452 31.363C25.2574 31.0276 24.9888 30.7776 24.6043 30.7715C24.2197 30.7654 23.9329 30.991 23.9207 31.3264C23.9023 31.6619 24.177 31.9058 24.5615 31.9119C24.9583 31.9119 25.2269 31.6985 25.2452 31.363ZM25.2452 33.3939C25.2574 33.0645 24.9766 32.8084 24.5982 32.8023C24.2136 32.7962 23.9329 33.0341 23.9207 33.3634C23.9084 33.6988 24.1831 33.9427 24.5677 33.9427C24.9644 33.9488 25.233 33.7293 25.2452 33.3939ZM23.0722 31.3447C23.0722 31.0032 22.8098 30.7654 22.4191 30.7654C22.0224 30.7654 21.766 30.991 21.7599 31.3325C21.7599 31.6863 22.0102 31.9058 22.4069 31.9058C22.8098 31.9058 23.0661 31.6863 23.0722 31.3447ZM23.0722 33.3756C23.0661 33.0341 22.8037 32.8023 22.413 32.8023C22.0163 32.8023 21.7599 33.034 21.7599 33.3817C21.7599 33.7354 22.0163 33.9488 22.413 33.9488C22.8159 33.9427 23.0722 33.7171 23.0722 33.3756Z" fill="white"/>
</svg>
