<svg width="60" height="60" viewBox="0 0 60 60" fill="none" xmlns="http://www.w3.org/2000/svg">
<path d="M8.82353 0H51.1765C56.1176 0 60 3.88235 60 8.82353V51.1765C60 56.1176 56.1176 60 51.1765 60H8.82353C3.88235 60 0 56.1176 0 51.1765V8.82353C0 3.88235 3.88235 0 8.82353 0Z" fill="#2575D6"/>
<g clip-path="url(#clip0_394_3273)">
<path d="M47.7821 34.8158V34.8141V34.8124C47.7754 34.7989 47.7704 34.7854 47.7637 34.7719C47.7203 34.6723 47.6801 34.5778 47.6183 34.49C47.1803 33.8841 46.5551 33.5499 45.8563 33.5499C45.3899 33.5499 44.9168 33.7052 44.4855 33.9989C43.6363 34.5744 42.7771 35.1668 41.9462 35.7407L41.9278 35.7525C41.5015 36.0478 41.0201 36.3837 40.542 36.7094C40.532 36.7162 40.5203 36.7263 40.5002 36.7398C40.2444 36.9339 40.1625 36.9609 40.1391 36.9626C40.1124 36.9626 40.0856 36.9559 40.0622 36.944C39.9569 36.89 39.9485 36.7888 39.9669 36.6504L39.9686 36.6402V36.6301C39.9636 33.1246 39.9669 27.8537 39.997 27.474C40.0204 27.4352 40.0672 27.4099 40.1174 27.4099C40.1525 27.4099 40.1859 27.4234 40.2127 27.447C40.2762 27.5078 41.438 28.6166 41.6637 28.8107C41.9897 29.0942 42.3608 29.2377 42.7654 29.2377C42.9375 29.2377 43.1181 29.2107 43.3053 29.1567C43.9339 28.9727 44.4053 28.4833 44.5674 27.8453C44.7296 27.204 44.5474 26.5339 44.081 26.0546C43.424 25.3744 42.7269 24.7128 42.0515 24.0715L41.9997 24.0225C41.7155 23.7542 41.3946 23.4504 41.082 23.1483C41.0569 23.1229 41.0301 23.101 41.0034 23.0824C40.888 22.998 40.7677 22.9525 40.6557 22.9525C40.5637 22.9525 40.43 22.9829 40.3113 23.1297C40.1274 23.3542 40.1324 23.577 40.3263 23.8099L40.328 23.8115L40.3297 23.8132C40.4016 23.8942 40.4768 23.9736 40.5754 24.0664L43.2435 26.6521C43.4324 26.8326 43.6413 27.0875 43.5979 27.4571C43.5561 27.7947 43.3839 28.0293 43.1014 28.1322C42.9994 28.1694 42.9024 28.1879 42.8105 28.1879C42.5764 28.1879 42.3591 28.0833 42.1251 27.8605C41.5567 27.3137 40.98 26.755 40.4216 26.2149C39.8633 25.6765 39.2866 25.1179 38.7198 24.571L30.3814 16.5103C30.1775 16.3128 30.022 16.2251 29.8799 16.2251C29.7378 16.2251 29.579 16.3128 29.3817 16.5035C28.469 17.371 27.573 18.2419 26.7405 19.0521L23.1547 22.539C22.379 23.2934 21.59 24.0597 20.8277 24.8006C20.0604 25.5466 19.2663 26.3179 18.4856 27.0774L18.3653 27.1938L18.3586 27.2006C18.0543 27.4959 17.74 27.8014 17.404 28.0698C17.2703 28.1761 17.1132 28.2318 16.951 28.2318C16.7404 28.2318 16.5331 28.1373 16.381 27.9702C16.1018 27.6664 16.0851 27.258 16.3358 26.9035C16.4261 26.782 16.5297 26.6757 16.63 26.5795C17.7016 25.5364 18.7915 24.4782 19.8464 23.4554C20.9012 22.431 21.9928 21.371 23.0644 20.3297L29.0892 14.4816C29.3868 14.193 29.6258 14.0647 29.8649 14.0647C30.1073 14.0647 30.348 14.193 30.6439 14.4816C30.9882 14.8141 31.473 15.2833 32.0314 15.8234C34.2748 17.9938 37.665 21.2748 37.8907 21.4824C38.0411 21.6242 38.1899 21.6951 38.332 21.6951C38.4574 21.6951 38.5694 21.6411 38.6697 21.5314C38.872 21.3153 38.8402 21.0115 38.5861 20.7364L38.5844 20.7331L38.5828 20.7314C38.5376 20.6875 32.3791 14.7364 31.1771 13.5989C30.7542 13.1938 30.3263 12.998 29.8699 12.998C29.4035 12.998 28.9471 13.2124 28.5108 13.6343C28.1647 13.9668 25.022 17.0115 24.8631 17.1753L24.8598 17.1803C24.7896 17.2597 24.711 17.3491 24.5689 17.3491H24.5372C24.5188 17.339 24.4753 17.2816 24.4753 17.1145V17.1128V17.1111C24.4603 16.6436 24.3867 16.3854 24.2195 16.2166C24.0507 16.0478 23.7966 15.9786 23.3419 15.9786H21.2239C20.6103 15.9786 20.3028 16.0495 20.1272 16.2301C19.9534 16.4107 19.8848 16.7213 19.8848 17.3407C19.8848 17.3727 19.8882 20.5407 19.8882 21.6225C19.8882 21.8436 19.8547 22.0242 19.6892 22.1829C18.9487 22.8951 16.0115 25.7407 15.632 26.1542C14.9784 26.863 14.9784 27.9516 15.6304 28.6841C15.9714 29.0656 16.4345 29.2748 16.9343 29.2748C17.3472 29.2748 17.7434 29.1314 18.0844 28.858C18.158 28.7972 18.3602 28.6048 18.6177 28.3601C18.9704 28.0259 19.4084 27.609 19.6174 27.4352C19.6174 27.4352 19.6224 27.4301 19.6374 27.42C19.6558 27.4065 19.6775 27.3997 19.6993 27.3997C19.7494 27.3997 19.8029 27.4352 19.8029 27.4942V27.4959V27.5449V28.9035C19.8029 29.7677 19.8029 30.6605 19.8096 31.5381C19.8096 31.6613 19.7812 31.7525 19.7277 31.8082C19.6775 31.8605 19.6107 31.8841 19.5171 31.8841C19.4703 31.8841 19.4268 31.8807 19.3867 31.8723H19.3833H19.38C19.0807 31.8251 18.7765 31.8031 18.392 31.8031C18.2683 31.8031 18.1479 31.8065 18.0192 31.8099C17.9507 31.8115 17.8821 31.8132 17.8103 31.8149H17.7718C17.618 31.8149 17.5127 31.7829 17.4475 31.717C17.3806 31.6495 17.3455 31.5348 17.3355 31.366C17.292 30.5508 16.8992 29.9618 16.2572 29.7474C15.734 29.5753 15.1991 29.4892 14.6641 29.4892C14.1242 29.4892 13.5758 29.577 13.0359 29.7508C12.7784 29.8335 12.5661 29.9938 12.3839 30.2386C12.1365 30.571 12.0011 31.0048 12.0011 31.4588V39.9702V40.0293L12.0446 40.0698C12.1649 40.1829 12.297 40.2942 12.4642 40.2942C12.5294 40.2942 12.5912 40.2807 12.6514 40.2521C12.9556 40.1153 12.9824 39.8284 12.9824 39.5466V31.8166C12.9824 31.317 13.0593 31.0166 13.2331 30.8377C13.407 30.6605 13.7012 30.5812 14.1877 30.5812H14.8631C14.945 30.5812 15.0269 30.5829 15.1055 30.5829C15.1857 30.5845 15.2676 30.5845 15.3495 30.5845C15.968 30.598 16.3007 30.9272 16.3425 31.5634V31.766V32.6504V43.6917C16.3425 43.8723 16.3308 44.0293 16.3041 44.1727C16.2272 44.5913 15.9781 44.8411 15.5852 44.8951C15.2626 44.9373 14.9466 44.9575 14.6457 44.9575C14.3498 44.9575 14.0489 44.9356 13.748 44.8951C13.2599 44.8259 12.9991 44.517 12.9757 43.9786C12.9724 43.8386 12.9724 43.6917 12.9724 43.5499V43.2529V43.2512V43.2495C12.9657 42.9018 12.857 42.7128 12.6196 42.6386C12.5595 42.62 12.4993 42.6099 12.4408 42.6099C12.2736 42.6099 12.1315 42.6959 12.0195 42.8647L11.9961 42.8985V42.939V44.4478V44.4732L12.0045 44.4968C12.2051 45.0318 12.4541 45.3896 12.7868 45.6225C13.1211 45.8554 13.5407 45.9651 14.1091 45.9651H14.1559C14.2261 45.9651 14.2963 45.9668 14.3666 45.9685C14.4368 45.9702 14.5103 45.9719 14.5822 45.9719C14.7327 45.9753 14.8681 45.9786 15.0035 45.9786C15.2944 45.9786 15.5334 45.9601 15.7541 45.9196C16.1737 45.8436 16.5164 45.6765 16.7738 45.4251C17.0312 45.1736 17.2051 44.8326 17.2937 44.4141C17.3439 44.1677 17.4308 44.058 17.5712 44.058C17.6481 44.058 17.73 44.085 17.8537 44.1356C18.4171 44.3584 18.9921 44.5812 19.5488 44.7955C19.7126 44.8597 19.8748 44.9221 20.0386 44.9862C21.366 45.4976 22.7769 46.0445 24.1694 46.6217C24.7829 46.8748 25.4182 46.9964 26.1086 46.9964H26.1203C26.4797 46.9964 26.8541 46.9643 27.262 46.9002C29.6643 46.5255 32.0481 46.1727 34.0625 45.8774L36.5082 45.5162C37.4494 45.3778 38.424 45.2343 39.3016 44.728C39.88 44.3921 40.3665 43.9398 40.8362 43.5027L40.9014 43.4436C41.5868 42.8056 42.2856 42.1592 42.9609 41.5331C43.6363 40.9069 44.3367 40.2588 45.0221 39.6208L47.2087 37.5921C47.5447 37.2782 47.7671 36.9474 47.8908 36.5812L47.8924 36.5778V36.5744C48.0663 35.9921 48.0295 35.4318 47.7821 34.8158ZM44.5507 38.6554L44.2615 38.9221C43.7868 39.3609 43.3003 39.8065 42.8707 40.2014L42.6717 40.3837C41.7356 41.2428 40.766 42.1322 39.8382 43.0267C39.0308 43.8048 38.0278 44.2554 36.6804 44.4478C34.5841 44.7466 32.4744 45.0639 30.4316 45.3694C29.2463 45.5466 27.9023 45.7474 26.5833 45.9415C26.3894 45.9702 26.1988 45.9854 26.0149 45.9854C25.5887 45.9854 25.1908 45.9094 24.7963 45.7542C22.1032 44.6807 19.2947 43.5989 17.7852 43.0183C17.4592 42.8917 17.3388 42.7162 17.3388 42.3651C17.3455 40.0816 17.3455 37.7592 17.3455 35.5128V33.4689C17.3455 33.1871 17.3606 32.9964 17.4341 32.9221C17.5077 32.8478 17.6932 32.8326 17.9707 32.8326H18.1045V32.8293H18.1128C20.0403 32.8563 21.6986 33.3052 23.1814 34.2031C24.6559 35.0943 26.351 35.604 28.5208 35.8099C30.0304 35.955 31.5466 36.1457 32.9592 36.3331C33.907 36.458 34.6442 37.1989 34.8382 38.2234C34.8599 38.3432 34.8733 38.4647 34.8064 38.5457C34.7479 38.6183 34.6593 38.6267 34.5891 38.6267C34.5791 38.6267 34.5673 38.6267 34.554 38.6251C34.5389 38.6234 34.5222 38.6234 34.5038 38.6234C32.5998 38.4411 30.6104 38.2554 28.591 38.0715C27.7903 37.9972 26.9762 37.9246 26.1888 37.8554C25.7792 37.82 25.3563 37.7812 24.94 37.744L24.4218 37.6985C24.3382 37.69 24.2563 37.69 24.1761 37.69H24.0774H24.0758H24.0741C23.8334 37.6985 23.5659 37.8217 23.5358 38.144C23.5241 38.2858 23.5659 38.4191 23.6545 38.5221C23.7414 38.6234 23.8668 38.6858 24.0139 38.7044C24.4402 38.7567 24.8715 38.7955 25.2894 38.8326L27.3272 39.0166C29.029 39.1719 30.8144 39.3322 32.6332 39.4909C33.551 39.5685 34.4838 39.6394 35.3865 39.7086L35.4533 39.7137C36.0435 39.7592 36.7121 39.8099 37.3691 39.8639H37.3741H37.3791H37.4477C37.67 39.8639 37.869 39.793 38.093 39.636C39.5156 38.6521 40.9616 37.6529 42.3608 36.6892L42.3641 36.6875L44.9386 34.912C45.2328 34.7094 45.4919 34.5744 45.7978 34.5744C45.8664 34.5744 45.9449 34.5829 46.0285 34.6014C46.4999 34.7094 46.8175 35.0132 46.9479 35.4807C47.08 35.9651 46.9546 36.4056 46.5835 36.7567C45.9967 37.3187 45.3916 37.8774 44.8065 38.4191C44.7246 38.4951 44.6377 38.5744 44.5507 38.6554ZM29.8582 17.5601C29.9602 17.5601 30.0437 17.6208 30.1457 17.7187C31.2373 18.7803 32.3507 19.8521 33.4289 20.8883L35.0572 22.458L36.2474 23.609C37.0281 24.3685 37.8205 25.1331 38.6028 25.8791C38.8218 26.0883 38.9188 26.3263 38.9188 26.6504C38.8987 30.4411 38.9021 33.9432 38.9305 37.3542C38.9321 37.5162 38.9154 37.7508 38.7432 37.9331C38.6714 38.004 37.9341 38.5508 37.8021 38.6183C37.4928 38.7753 37.1819 38.7955 36.9462 38.7955C36.7389 38.7955 36.5249 38.777 36.3243 38.7584C36.0384 38.7314 35.9097 38.598 35.8679 38.2875C35.7693 37.5668 35.5269 36.9592 35.1458 36.4833C34.7629 36.0056 34.2364 35.6529 33.5794 35.4352C33.2902 35.3407 33.2668 35.1398 33.2668 34.9238C33.2684 33.6461 33.2684 32.3466 33.2668 31.0892C33.2668 30.4613 33.2668 29.8115 33.2668 29.1736V28.7905C33.2651 28.2875 33.1748 27.9719 32.9742 27.7677C32.7753 27.5634 32.4677 27.4723 31.9796 27.4706L31.9779 27.4672C31.2791 27.4672 30.567 27.4689 29.8799 27.4689C29.1928 27.4706 28.4824 27.4706 27.7819 27.4706H27.7803H27.7786H27.7552C27.5028 27.474 27.2403 27.4774 27.0146 27.5989C26.6703 27.7829 26.5014 28.1018 26.5014 28.5727V32.9153V33.9044C26.5014 34.3078 26.468 34.3938 26.3175 34.3938C26.239 34.3938 26.132 34.3634 25.9648 34.3128C25.2008 34.0867 24.4586 33.7609 23.7565 33.344C22.8655 32.8141 22.0346 32.4512 21.2138 32.2352C20.8695 32.144 20.8026 31.9499 20.8026 31.6478C20.8143 30.1137 20.8143 28.4765 20.8026 26.6419C20.8026 26.3634 20.8895 26.1559 21.0818 25.9685C23.9019 23.236 26.7639 20.458 29.589 17.7035C29.6659 17.6326 29.7562 17.5601 29.8582 17.5601ZM27.4961 28.9474C27.4961 28.8428 27.5061 28.7111 27.5863 28.6284C27.6248 28.5879 27.6783 28.5609 27.7502 28.5457H27.8839H27.8906C28.479 28.5491 29.0792 28.5491 29.6609 28.5491C30.3781 28.5491 31.0819 28.5457 31.8074 28.5373C32.0063 28.5373 32.0815 28.5947 32.1217 28.6386L32.1233 28.6402L32.125 28.6419C32.2103 28.7297 32.222 28.8698 32.222 29.0065C32.2186 29.6934 32.2571 32.6284 32.2587 32.6993C32.2587 33.3896 32.2587 34.1035 32.2654 34.8073V34.809V34.8107C32.2688 34.9491 32.2454 35.0453 32.1902 35.1044C32.1451 35.1499 32.0799 35.1719 31.9913 35.1719C31.9662 35.1719 31.9294 35.1685 31.8943 35.1651H31.8926C30.8478 35.0369 29.7345 34.9069 28.3921 34.755L27.8772 34.6943C27.6064 34.6639 27.4961 34.5339 27.4961 34.2453C27.5061 32.5997 27.5061 30.8681 27.4961 28.9474ZM21.6251 20.2824L21.5783 20.3297C21.4378 20.4698 21.2941 20.6149 21.1503 20.755C21.1286 20.777 21.1002 20.7888 21.0701 20.7921C21.0651 20.7921 21.06 20.7921 21.055 20.7921C20.9965 20.7921 20.9464 20.7584 20.9313 20.7078C20.9179 20.6672 20.9196 20.6217 20.9196 20.5812C20.9196 20.5761 20.9196 20.571 20.9196 20.566C20.9196 20.5424 20.8945 18.1187 20.8761 17.4183C20.8711 17.2647 20.8996 17.1584 20.9631 17.0909C21.0182 17.0352 21.1687 17.0031 21.2606 16.9964C21.3191 16.9964 21.9477 16.9997 22.4576 16.9997C22.7702 16.9997 22.9775 16.998 23.0761 16.9964C23.372 16.9964 23.4455 17.1483 23.4706 17.4082C23.5492 18.1964 23.3168 18.7786 22.7351 19.2428C22.3422 19.5567 21.9778 19.9246 21.6251 20.2824Z" fill="white"/>
</g>
<defs>
<clipPath id="clip0_394_3273">
<rect width="36" height="36" fill="white" transform="translate(12 12)"/>
</clipPath>
</defs>
</svg>
