<svg width="60" height="60" viewBox="0 0 60 60" fill="none" xmlns="http://www.w3.org/2000/svg">
<path d="M8.82353 0H51.1765C56.1176 0 60 3.88235 60 8.82353V51.1765C60 56.1176 56.1176 60 51.1765 60H8.82353C3.88235 60 0 56.1176 0 51.1765V8.82353C0 3.88235 3.88235 0 8.82353 0Z" fill="#2575D6"/>
<path d="M12.0094 22.4695C12.5446 20.4883 13.0422 18.4883 13.6432 16.5164C14.0094 15.3052 14.0751 14.0845 14.0469 12.8451C14.0281 12.1502 14.1784 12 14.8732 12C24.9669 12 35.07 12 45.1637 12C45.8116 12 46.0087 12.1596 45.9618 12.8075C45.8397 14.385 46.1684 15.8967 46.6191 17.3897C47.0604 18.8545 47.4359 20.3474 47.8303 21.8216C48.5533 24.5164 46.6284 27.0423 43.8961 26.9577C42.6285 26.9202 41.6051 26.3662 40.8257 25.3615C40.7694 25.2864 40.7131 25.2113 40.6379 25.108C39.8398 26.4319 38.6943 27.2113 37.1451 27.2488C35.5864 27.2864 34.4127 26.5728 33.5301 25.2676C32.685 26.5446 31.5208 27.2676 29.9809 27.2582C28.4504 27.2582 27.3049 26.5352 26.4692 25.277C24.7885 27.9718 20.9106 27.9343 19.3426 25.1268C18.8731 25.831 18.2628 26.3568 17.4835 26.6761C15.1643 27.615 12.5728 26.216 12.0751 23.7465C12.0563 23.6714 12.0282 23.5962 12 23.5211C12.0094 23.1737 12.0094 22.8263 12.0094 22.4695ZM27.4551 15.6432C27.4363 15.9061 27.4175 16.1408 27.4082 16.3662C27.3706 17.0704 27.333 17.7653 27.2955 18.4695C27.211 20.0563 27.0889 21.6432 27.0607 23.2394C27.0326 25.108 28.8447 26.4977 30.6663 26.0657C32.1498 25.7183 33.0325 24.4413 32.9386 22.8075C32.8165 20.6667 32.7038 18.5258 32.5912 16.3944C32.5818 16.1408 32.5442 15.8873 32.5254 15.6432C30.8259 15.6432 29.1734 15.6432 27.4551 15.6432ZM21.2486 15.6526C21.2393 15.7089 21.2205 15.7559 21.2111 15.7934C20.8261 18.1596 20.4224 20.5258 20.075 22.892C19.7839 24.8169 21.643 26.4977 23.5585 26.0845C24.9481 25.784 25.8495 24.6667 25.9246 23.2019C25.9997 21.5775 26.103 19.9531 26.1875 18.3286C26.2345 17.446 26.2814 16.5634 26.319 15.6526C24.6195 15.6526 22.9388 15.6526 21.2486 15.6526ZM33.6803 15.6526C33.7836 17.5023 33.8775 19.3052 33.9808 21.0986C34.0277 21.9906 34.0371 22.8826 34.1686 23.7559C34.3845 25.2864 35.9056 26.338 37.4737 26.1127C39.0136 25.8967 40.1591 24.4225 39.9431 22.892C39.7553 21.5869 39.53 20.2817 39.3234 18.9765C39.145 17.8685 38.9666 16.77 38.7788 15.6432C37.0793 15.6526 35.3986 15.6526 33.6803 15.6526ZM39.915 15.6526C40.3375 18.2441 40.7506 20.7981 41.1731 23.3427C41.4548 25.0798 42.9759 26.1315 44.6473 25.7746C46.2529 25.4272 47.1918 23.8216 46.7505 22.1502C46.2059 20.0845 45.6332 18.0188 45.0792 15.9531C45.0134 15.6995 44.9102 15.6244 44.6566 15.6244C43.1919 15.6338 41.7271 15.6338 40.2624 15.6338C40.1591 15.6338 40.0558 15.6432 39.915 15.6526ZM20.0937 15.6714C20.0186 15.6526 19.9905 15.6432 19.9529 15.6432C18.3849 15.6432 16.8168 15.6432 15.2488 15.6338C15.0422 15.6338 14.9952 15.7371 14.9577 15.8967C14.3849 18.0188 13.784 20.1315 13.23 22.2535C12.8169 23.8404 13.8028 25.4366 15.3708 25.7746C17.014 26.1221 18.5445 25.0798 18.8262 23.4084C18.9576 22.6291 19.0797 21.8404 19.2111 21.0516C19.5116 19.2676 19.7933 17.4742 20.0937 15.6714ZM44.835 13.1455C34.9291 13.1455 25.0608 13.1455 15.1924 13.1455C15.1924 13.6056 15.1924 14.0376 15.1924 14.4789C25.0889 14.4789 34.9573 14.4789 44.835 14.4789C44.835 14.0282 44.835 13.5962 44.835 13.1455Z" fill="white"/>
<path d="M12.0094 44.6854C12.2066 44.4038 12.4789 44.3099 12.8263 44.3286C13.2112 44.3568 13.5962 44.338 14.0375 44.338C14.0375 44.1784 14.0375 44.0282 14.0375 43.8779C14.0375 38.77 14.0375 33.662 14.0375 28.554C14.0375 28.4413 14.0375 28.3192 14.0375 28.2066C14.0563 27.8779 14.2629 27.6714 14.5633 27.662C14.8638 27.6526 15.0985 27.8404 15.1455 28.1502C15.1643 28.2723 15.1549 28.4038 15.1549 28.5352C15.1549 33.6338 15.1549 38.723 15.1549 43.8216C15.1549 43.9718 15.1549 44.1221 15.1549 44.3099C21.6148 44.3099 28.0654 44.3099 34.5536 44.3099C34.5536 44.169 34.5536 44.0282 34.5536 43.8967C34.5536 39.5775 34.5536 35.2488 34.5536 30.9296C34.5536 30.2347 34.7038 30.0845 35.3986 30.0845C37.6521 30.0845 39.8962 30.0845 42.1497 30.0845C42.7975 30.0845 42.9572 30.2441 42.9572 30.892C42.9572 35.2113 42.9572 39.5399 42.9572 43.8592C42.9572 44 42.9572 44.1408 42.9572 44.3099C43.5862 44.3099 44.1872 44.3099 44.8444 44.3099C44.8444 44.1784 44.8444 44.0282 44.8444 43.8873C44.8444 38.7793 44.8444 33.6714 44.8444 28.5634C44.8444 28.4507 44.835 28.3286 44.8444 28.216C44.8726 27.8592 45.1167 27.6432 45.436 27.6526C45.7458 27.6714 45.943 27.8873 45.9618 28.2441C45.9712 28.3568 45.9618 28.4789 45.9618 28.5915C45.9618 33.6901 45.9618 38.7793 45.9618 43.8779C45.9618 44.0188 45.9618 44.1502 45.9618 44.338C46.3749 44.338 46.7505 44.338 47.1355 44.338C47.8491 44.338 47.9899 44.4883 47.9899 45.2113C47.9899 45.8685 47.9711 46.5258 47.9993 47.1831C48.0087 47.5305 47.9242 47.8028 47.6425 48C35.7648 48 23.8777 48 12 48C12.0094 46.8826 12.0094 45.784 12.0094 44.6854ZM41.8116 44.3193C41.8116 39.9437 41.8116 35.5962 41.8116 31.23C39.7647 31.23 37.746 31.23 35.7085 31.23C35.7085 35.5962 35.7085 39.9531 35.7085 44.3193C37.746 44.3193 39.7647 44.3193 41.8116 44.3193ZM46.8632 45.4836C35.6052 45.4836 24.3753 45.4836 13.1549 45.4836C13.1549 45.9531 13.1549 46.3944 13.1549 46.8451C24.4035 46.8451 35.624 46.8451 46.8632 46.8451C46.8632 46.385 46.8632 45.9437 46.8632 45.4836Z" fill="white"/>
<path d="M24.9575 39.2676C22.8542 39.2676 20.7416 39.2676 18.6384 39.2676C18.0187 39.2676 17.8497 39.0986 17.8497 38.4789C17.8497 35.9343 17.8497 33.3991 17.8497 30.8545C17.8497 30.2629 18.0281 30.0845 18.629 30.0845C22.8543 30.0845 27.0795 30.0845 31.3142 30.0845C31.9151 30.0845 32.0935 30.2629 32.0935 30.8545C32.0935 33.3991 32.0935 35.9343 32.0935 38.4789C32.0935 39.0986 31.9151 39.2676 31.2954 39.2676C29.1734 39.2676 27.0607 39.2676 24.9575 39.2676ZM30.9386 31.23C26.9293 31.23 22.9669 31.23 18.9858 31.23C18.9858 33.5399 18.9858 35.8216 18.9858 38.1221C22.9763 38.1221 26.9481 38.1221 30.9386 38.1221C30.9386 35.8122 30.9386 33.5305 30.9386 31.23Z" fill="white"/>
</svg>
