<svg width="60" height="60" viewBox="0 0 60 60" fill="none" xmlns="http://www.w3.org/2000/svg">
<path d="M8.82353 0H51.1765C56.1176 0 60 3.88235 60 8.82353V51.1765C60 56.1176 56.1176 60 51.1765 60H8.82353C3.88235 60 0 56.1176 0 51.1765V8.82353C0 3.88235 3.88235 0 8.82353 0Z" fill="#2575D6"/>
<g clip-path="url(#clip0_394_3296)">
<path d="M36.6048 48.0008H36.6028C36.2391 47.9831 35.9757 47.7727 35.8813 47.4248C35.8636 47.3618 35.8538 47.3009 35.8439 47.2498L35.838 47.2203L35.8302 47.181L35.726 46.5833C35.6866 46.3434 35.6454 46.1134 35.5982 45.8441C35.4979 45.8224 35.3976 45.7969 35.2974 45.7694C35.2266 45.7497 35.1538 45.7281 35.085 45.7064C35.0595 45.6986 35.0359 45.6927 35.0123 45.6848C34.9631 45.7438 34.914 45.8028 34.8668 45.8598C34.8039 45.9365 34.739 46.0131 34.6741 46.0898C34.4854 46.31 34.2947 46.54 34.1099 46.7602L34.0961 46.776C34.043 46.8408 33.9841 46.9116 33.9015 46.9785C33.7599 47.0905 33.5948 47.1515 33.4257 47.1515C33.2999 47.1515 33.1741 47.1161 33.062 47.0512C33.0384 47.0414 33.0168 47.0276 32.9991 47.0178L32.9951 47.0158L32.9912 47.0119C32.9892 47.0099 32.9834 47.008 32.9794 47.006C32.9716 47.0021 32.9598 46.9962 32.948 46.9883L31.5796 46.1979C31.5658 46.192 31.5521 46.1862 31.5383 46.1763C31.149 45.9424 31.0291 45.6081 31.1805 45.1835C31.2532 44.977 31.3339 44.7549 31.4341 44.4836C31.4518 44.4325 31.4715 44.3813 31.4892 44.3283C31.5069 44.2771 31.5265 44.228 31.5442 44.1769L31.5481 44.167C31.5953 44.0333 31.6445 43.9016 31.6897 43.7738C31.6189 43.707 31.5481 43.6382 31.4774 43.5694C31.4145 43.5064 31.3535 43.4416 31.2965 43.3806C31.2847 43.3688 31.2749 43.357 31.2631 43.3452C31.1628 43.3826 31.0606 43.4199 30.9623 43.4553C30.8404 43.5006 30.7146 43.5458 30.5887 43.591C30.4826 43.6303 30.3764 43.6696 30.2683 43.707C30.1503 43.7502 30.0343 43.7915 29.9183 43.8348H29.9163C29.8357 43.8623 29.7276 43.8977 29.6234 43.9115C29.588 43.9154 29.5526 43.9193 29.5192 43.9193C29.2735 43.9193 29.0533 43.7994 28.9156 43.589L28.9137 43.5871L28.9117 43.5851C28.8881 43.5438 28.8665 43.5104 28.8468 43.475L28.8409 43.4671L28.025 42.0536C28.0073 42.026 27.9936 42.0005 27.9837 41.9769C27.8186 41.6544 27.8677 41.3222 28.1194 41.0646C28.1725 41.0116 28.2236 40.9683 28.2688 40.9309L28.2904 40.9133C28.5008 40.7383 28.7131 40.5594 28.9176 40.3864L28.9412 40.3667L29.3501 40.0246C29.3187 39.9204 29.2911 39.8201 29.2676 39.7317C29.2459 39.653 29.2282 39.5764 29.2105 39.5016C29.2046 39.48 29.2007 39.4584 29.1948 39.4368C29.1594 39.4309 29.1221 39.425 29.0847 39.4191L29.0749 39.4171C28.8724 39.3798 28.662 39.3444 28.4595 39.309C28.3809 39.2952 28.3022 39.2814 28.2256 39.2697L27.7812 39.191C27.7124 39.1812 27.6377 39.1655 27.5669 39.1419C27.2445 39.0396 27.0518 38.784 27.04 38.442V38.438V36.7472C27.04 36.2125 27.2524 35.9549 27.7753 35.8645C27.9149 35.8409 28.0525 35.8153 28.1921 35.7917C28.3258 35.7682 28.4615 35.7446 28.5971 35.721C28.7112 35.7013 28.8232 35.6816 28.9353 35.662C29.0238 35.6463 29.1122 35.6305 29.2027 35.6148L29.358 35.0309C29.2695 34.9562 29.1791 34.8815 29.0926 34.8087C28.9903 34.7242 28.8861 34.6357 28.7819 34.5492C28.6286 34.4195 28.4516 34.27 28.2727 34.1226L28.2688 34.1187L28.2609 34.1108C28.2098 34.0675 28.1489 34.0145 28.0879 33.9496L28.086 33.9476C27.8736 33.7078 27.8304 33.3932 27.9719 33.1042C27.9877 33.0708 28.0054 33.0413 28.0211 33.0157C28.029 33.0039 28.0349 32.9921 28.0407 32.9803L28.0427 32.9764L28.0447 32.9725C28.0466 32.9685 28.0486 32.9646 28.0525 32.9607C28.0545 32.9567 28.0584 32.9508 28.0624 32.9449C28.0997 32.8801 28.1371 32.8152 28.1744 32.7523C28.2118 32.6874 28.2511 32.6225 28.2865 32.5576C28.4556 32.2647 28.6365 31.9521 28.8134 31.6395L28.8154 31.6356C28.9019 31.4842 29.008 31.2935 29.2381 31.1952C29.3285 31.1558 29.4248 31.1381 29.5251 31.1381C29.6844 31.1381 29.8318 31.1853 29.9557 31.2306C30.2702 31.3485 30.5907 31.4645 30.9033 31.5785L31.0075 31.6159C31.0625 31.6356 31.1176 31.6552 31.1726 31.6749C31.2041 31.6867 31.2355 31.6985 31.269 31.7083C31.2886 31.6867 31.3103 31.6631 31.3339 31.6415C31.3751 31.6002 31.4145 31.5608 31.4557 31.5196C31.5088 31.4625 31.5698 31.4016 31.6307 31.3446C31.6523 31.3249 31.672 31.3072 31.6917 31.2876C31.6936 31.2856 31.6976 31.2817 31.6995 31.2797C31.672 31.205 31.6445 31.1283 31.617 31.0536C31.5776 30.9494 31.5403 30.8452 31.5029 30.739L31.2257 29.988L31.2218 29.9802L31.2198 29.9743C31.1943 29.9054 31.1628 29.813 31.1372 29.7128V29.7108C31.0704 29.4021 31.1923 29.1033 31.4518 28.9303L31.4538 28.9283L31.4557 28.9264C31.4715 28.9165 31.4872 28.9087 31.501 28.8988C31.5206 28.887 31.5383 28.8772 31.554 28.8674L31.558 28.8654L31.5757 28.8576C31.8116 28.7219 32.0475 28.5843 32.2834 28.4486C32.5095 28.3189 32.7356 28.1871 32.9617 28.0574L32.9657 28.0554L32.9834 28.0456C32.9912 28.0416 33.001 28.0358 33.0128 28.0299C33.0286 28.022 33.0463 28.0102 33.064 28.0023C33.1878 27.9394 33.3136 27.908 33.4375 27.908C33.6321 27.908 33.815 27.9866 33.9703 28.136C34.0077 28.1694 34.0371 28.2048 34.0607 28.2343C34.0686 28.2442 34.0765 28.254 34.0843 28.2638L34.0863 28.2658L34.102 28.2854L34.5247 28.7848L35.0123 29.3648C35.1086 29.3353 35.205 29.3097 35.3013 29.2842L35.3092 29.2822C35.4055 29.2547 35.5018 29.2311 35.5982 29.2075C35.6591 28.8556 35.722 28.5056 35.783 28.1557L35.8066 28.0181L35.8498 27.7703C35.8518 27.7467 35.8557 27.7192 35.8636 27.6858L35.8675 27.6681V27.6661C35.9619 27.2769 36.243 27.0527 36.6362 27.0527H38.386C38.7831 27.0567 39.0682 27.2867 39.1488 27.6681C39.1724 27.7841 39.1921 27.9001 39.2117 28.0122C39.2176 28.0475 39.2314 28.1203 39.2314 28.1203C39.2353 28.1419 39.2393 28.1655 39.2432 28.1891C39.2471 28.2127 39.253 28.2383 39.257 28.2638C39.2747 28.3641 39.2943 28.4663 39.31 28.5666C39.3277 28.6668 39.3454 28.7691 39.3631 28.8693C39.3769 28.9382 39.3887 29.007 39.4005 29.0738C39.4083 29.119 39.4162 29.1643 39.4241 29.2095C39.6226 29.2547 39.8153 29.3058 40.0119 29.3668C40.0768 29.2881 40.1436 29.2114 40.2085 29.1328C40.2931 29.0325 40.3776 28.9323 40.4621 28.832C40.5368 28.7416 40.6155 28.6492 40.6922 28.5587C40.7649 28.4722 40.8376 28.3857 40.9104 28.2992L40.9242 28.2815C40.9713 28.2206 41.0205 28.1655 41.0736 28.1164C41.2191 27.9787 41.4058 27.9021 41.5965 27.9021C41.7204 27.9021 41.8423 27.9335 41.9563 27.9945C41.9799 28.0043 41.9996 28.0161 42.0192 28.0279C42.0251 28.0318 42.031 28.0358 42.0389 28.0397L42.44 28.2697C42.788 28.4683 43.1379 28.6708 43.4466 28.8497C43.8889 29.1053 44.0069 29.4356 43.8339 29.9192L43.4997 30.8452C43.4682 30.9317 43.4367 31.0163 43.4053 31.1008C43.3837 31.1637 43.3601 31.2247 43.3365 31.2876C43.366 31.319 43.3974 31.3524 43.4308 31.3819L43.4328 31.3839L43.4348 31.3859C43.4525 31.4036 43.4702 31.4213 43.4898 31.439C43.5114 31.4586 43.5331 31.4802 43.5547 31.5019C43.6314 31.5785 43.7061 31.6552 43.7572 31.7122L44.1917 31.5549L44.3804 31.4861C44.6046 31.4036 44.8385 31.3171 45.0685 31.2364H45.0705C45.1413 31.2129 45.218 31.1873 45.3025 31.1637C45.3694 31.146 45.4362 31.1381 45.5011 31.1381C45.7547 31.1381 45.9788 31.264 46.1204 31.4822C46.142 31.5137 46.1597 31.5451 46.1735 31.5707L46.1794 31.5805L46.1892 31.5982L46.9913 32.9843V32.9862C46.9933 32.9901 46.9953 32.9921 46.9992 32.998C47.011 33.0177 47.0228 33.0373 47.0346 33.059C47.0385 33.0668 47.0444 33.0767 47.0503 33.0865L47.0523 33.0904C47.2155 33.4069 47.1722 33.7235 46.9343 33.9791C46.8793 34.038 46.8281 34.0813 46.7829 34.1187L46.7652 34.1324C46.6748 34.2071 46.5844 34.2838 46.4939 34.3585C46.4015 34.4371 46.3071 34.5138 46.2167 34.5925C46.1184 34.6731 46.0221 34.7556 45.9257 34.8363C45.8451 34.9031 45.7665 34.9699 45.6859 35.0368L45.8412 35.6207L46.3052 35.7013C46.6492 35.7583 47.0012 35.8212 47.302 35.8763C47.3649 35.8881 47.4258 35.8999 47.4868 35.9215C47.7994 36.0296 47.9901 36.2892 47.9999 36.6135V36.7158L48.0156 37.1463V38.326C48.0156 38.8135 47.7915 39.0829 47.3079 39.1753C47.127 39.2107 46.9422 39.2421 46.7633 39.2736C46.6905 39.2873 46.6178 39.2991 46.545 39.3129C46.4861 39.3227 46.4271 39.3326 46.372 39.3424C46.315 39.3522 46.258 39.3621 46.199 39.3719C46.1302 39.3856 46.0594 39.3974 45.9906 39.4092C45.9454 39.4171 45.8982 39.425 45.853 39.4328L45.6957 40.0167C45.8353 40.1347 45.9572 40.2369 46.083 40.3411L46.7888 40.9349L46.7908 40.9368C46.8046 40.9486 46.8183 40.9624 46.8321 40.9742C46.8852 41.0214 46.9441 41.0764 46.9992 41.1472C47.1899 41.3871 47.2155 41.7016 47.0641 41.967C47.0601 41.9749 47.0562 41.9828 47.0523 41.9887C47.0503 41.9926 47.0464 41.9985 47.0444 42.0044L47.0424 42.0083L47.0405 42.0123C47.0365 42.0201 47.0306 42.028 47.0267 42.0359C47.0208 42.0457 47.0169 42.0536 47.011 42.0653L46.8301 42.3799C46.7259 42.5608 46.6197 42.7456 46.5155 42.9245C46.4133 43.1034 46.3052 43.2863 46.2029 43.4691C46.0299 43.7719 45.8097 43.9174 45.5306 43.9174C45.4185 43.9174 45.2966 43.8938 45.1629 43.8446C44.866 43.7384 44.5476 43.6224 44.1897 43.4907C44.0993 43.4553 44.0069 43.4219 43.9165 43.3905C43.8732 43.3747 43.828 43.359 43.7847 43.3433C43.767 43.3629 43.7474 43.3826 43.7277 43.4022L43.7238 43.4042C43.6943 43.4317 43.6648 43.4632 43.6353 43.4927C43.6196 43.5084 43.6058 43.5222 43.5901 43.5379C43.537 43.5949 43.48 43.6519 43.421 43.707C43.4014 43.7266 43.3817 43.7443 43.362 43.764C43.3601 43.766 43.3581 43.766 43.3581 43.7679L43.5056 44.1749C43.537 44.2614 43.5685 44.3459 43.5999 44.4325C43.6825 44.6566 43.767 44.8886 43.8476 45.1147L43.8555 45.1383C43.8771 45.2012 43.9086 45.2857 43.9224 45.3801C43.9754 45.6887 43.8417 45.9817 43.5763 46.1429L43.4938 46.1901L43.4721 46.2019L42.0861 47.0021C42.0762 47.008 42.0664 47.0138 42.0566 47.0178C42.0487 47.0217 42.0428 47.0256 42.035 47.0296L42.031 47.0315L42.0271 47.0335C42.0212 47.0355 42.0173 47.0394 42.0114 47.0414C42.0035 47.0453 41.9956 47.0492 41.9878 47.0551C41.8757 47.12 41.7499 47.1534 41.6241 47.1534C41.4491 47.1534 41.2839 47.0905 41.1424 46.9726C41.0657 46.9077 41.0107 46.8428 40.9654 46.7897L40.9556 46.7779C40.7374 46.5223 40.5192 46.2628 40.3088 46.0112L40.0375 45.6887C39.8527 45.7458 39.658 45.7988 39.4516 45.846C39.4339 45.9483 39.4162 46.0485 39.3965 46.1508C39.371 46.2943 39.3454 46.4378 39.3199 46.5833L39.2019 47.2576C39.1921 47.3166 39.1803 47.3854 39.1587 47.4582C39.0623 47.7845 38.793 47.9969 38.4548 48.0087H38.4509H38.3428L36.7208 48.0126H36.6048V48.0008ZM36.6284 45.4843C36.6539 45.6357 36.6815 45.789 36.707 45.9365C36.7326 46.0859 36.7601 46.2392 36.7876 46.3926L36.88 46.9195L38.1442 46.9155L38.2405 46.3828C38.2956 46.0525 38.3565 45.7163 38.4155 45.3919C38.4253 45.3388 38.4391 45.2896 38.4568 45.2405L38.4588 45.2326L38.5236 45.0183L38.7163 44.9181C38.7517 44.8964 38.8185 44.8591 38.907 44.8414C39.2766 44.7667 39.6069 44.6802 39.9175 44.574C39.9942 44.5484 40.063 44.5386 40.1063 44.5347H40.1122H40.124L40.411 44.4895L40.645 44.7588C40.6725 44.7903 40.704 44.8257 40.7334 44.861L41.107 45.3093C41.2879 45.5275 41.4746 45.7517 41.6634 45.9738L42.7565 45.3427C42.6641 45.093 42.5697 44.8335 42.4616 44.5308L42.2394 43.9213C42.2099 43.8505 42.1293 43.648 42.2158 43.4022L42.2591 43.2745L42.3535 43.188C42.3829 43.1545 42.4164 43.127 42.4459 43.1014C42.5147 43.0405 42.5815 42.9815 42.6405 42.9206C42.6405 42.9206 42.7427 42.8183 42.7919 42.7692C42.8253 42.7338 42.8607 42.6984 42.8941 42.667C42.9098 42.6512 42.9256 42.6355 42.9413 42.6198L42.9452 42.6158L42.9492 42.6119C42.957 42.606 42.9747 42.5883 43.0062 42.547L43.0101 42.5431C43.0868 42.4527 43.1733 42.3583 43.2972 42.2679L43.5232 42.1086L43.8457 42.2207C43.8673 42.2285 43.887 42.2344 43.9047 42.2423C43.9341 42.2521 43.9656 42.262 43.9951 42.2737L43.999 42.2757C44.174 42.3367 44.3529 42.4015 44.5318 42.4684C44.8012 42.5687 45.0705 42.667 45.334 42.7633C45.4165 42.6217 45.4991 42.4782 45.5797 42.3386C45.6761 42.1735 45.7744 42.0024 45.8707 41.8334L45.9651 41.6682C45.8766 41.5935 45.7881 41.5188 45.6996 41.446C45.5895 41.3536 45.4755 41.2593 45.3635 41.1629C45.275 41.0882 45.1845 41.0116 45.0961 40.9388C45.0076 40.8641 44.9152 40.7874 44.8248 40.7108C44.7835 40.6773 44.7501 40.6439 44.7245 40.6184C44.7107 40.6085 44.7009 40.5987 44.693 40.5908L44.4591 40.3726L44.9624 38.4891L45.5148 38.3908C45.5935 38.3771 45.6721 38.3633 45.7488 38.3495C45.8255 38.3358 45.9061 38.322 45.9847 38.3083C46.0496 38.2984 46.1125 38.2866 46.1735 38.2768C46.2265 38.267 46.2816 38.2571 46.3347 38.2493C46.5313 38.2159 46.7338 38.1805 46.9127 38.147C46.9127 37.8187 46.9127 37.4786 46.9166 37.1424V36.879C46.661 36.8318 46.4074 36.7885 46.1105 36.7354L45.45 36.6194L45.4382 36.6175C45.3595 36.6017 45.2396 36.5801 45.1197 36.5093L44.9309 36.3973L44.4591 34.6377L44.7088 34.4195C44.7166 34.4116 44.7245 34.4037 44.7324 34.3978C44.7383 34.3939 44.7442 34.388 44.7501 34.3821L44.752 34.3801L44.7677 34.3664C44.8012 34.3369 44.8405 34.3015 44.8778 34.27C44.984 34.1796 45.0921 34.0892 45.2022 33.9987C45.3064 33.9103 45.4126 33.8237 45.5168 33.7353C45.6564 33.6193 45.8156 33.4876 45.9729 33.3539L45.3379 32.2588C45.2199 32.302 45.1 32.3453 44.984 32.3866C44.8405 32.4397 44.6989 32.4908 44.5554 32.5419L43.9577 32.7601C43.9165 32.7759 43.8732 32.7896 43.828 32.8053L43.4387 32.9371L43.132 32.5989C43.0848 32.5439 43.0337 32.4888 42.9905 32.4416C42.9433 32.3905 42.8705 32.3138 42.7919 32.2372L42.786 32.2313C42.7506 32.1959 42.7211 32.1664 42.6877 32.1369C42.6464 32.0995 42.6051 32.0583 42.5658 32.0189C42.556 32.0111 42.5461 32.0032 42.5363 31.9934C42.5284 31.9875 42.5225 31.9796 42.5127 31.9737C42.4065 31.8911 42.324 31.8046 42.2591 31.7083L42.1136 31.4881L42.2158 31.1814C42.2257 31.1519 42.2355 31.1244 42.2453 31.0969C42.2512 31.0792 42.2591 31.0615 42.265 31.0438L42.267 31.0398C42.3023 30.9435 42.3377 30.8472 42.3731 30.7508C42.4085 30.6525 42.4439 30.5542 42.4793 30.4579C42.5284 30.3222 42.5776 30.1846 42.6267 30.049C42.67 29.9271 42.7152 29.8071 42.7585 29.6853C42.552 29.5673 42.3456 29.4474 42.1451 29.3314C42.0625 29.2842 41.9799 29.235 41.8973 29.1878L41.6673 29.0561C41.6123 29.121 41.5572 29.1878 41.5022 29.2527C41.4314 29.3373 41.3586 29.4218 41.2898 29.5083C41.1935 29.6243 41.0952 29.7403 40.9969 29.8563C40.9025 29.9664 40.8101 30.0785 40.7177 30.1886C40.6961 30.2161 40.6725 30.2416 40.6509 30.2633C40.6391 30.2751 40.6292 30.2869 40.6194 30.2967L40.6175 30.2987L40.6155 30.3006C40.6096 30.3065 40.6037 30.3104 40.5998 30.3163L40.5978 30.3183L40.5958 30.3203L40.4071 30.5228L40.1299 30.4992H40.1259C40.122 30.4992 40.1161 30.4972 40.1102 30.4972C40.0788 30.4953 40.0257 30.4894 39.9628 30.4677C39.6167 30.3498 39.2923 30.2633 38.9699 30.2004C38.8893 30.1866 38.8284 30.165 38.793 30.1473L38.7733 30.1394L38.5295 30.0549L38.4391 29.7816V29.7777C38.4312 29.7541 38.4194 29.7147 38.4116 29.6676C38.3762 29.467 38.2995 29.0443 38.2995 29.0443C38.2838 28.9519 38.2661 28.8615 38.2503 28.771C38.2307 28.6629 38.211 28.5509 38.1914 28.4408V28.4368C38.1874 28.4132 38.1835 28.3896 38.1796 28.366C38.1756 28.3405 38.1697 28.3149 38.1658 28.2913C38.154 28.2324 38.1442 28.1753 38.1344 28.1183H36.8741L36.8604 28.193C36.8191 28.4191 36.7798 28.6511 36.7404 28.8752C36.7011 29.0994 36.6598 29.3294 36.6205 29.5575V29.5594C36.6107 29.6105 36.5989 29.6597 36.5851 29.7128C36.5832 29.7246 36.5792 29.7383 36.5773 29.7521L36.5753 29.7619L36.5006 30.0844L36.1782 30.163C36.1782 30.163 35.9285 30.222 35.9009 30.2279C35.7908 30.2534 35.6886 30.277 35.5844 30.3065C35.5018 30.3281 35.4232 30.3517 35.3406 30.3753C35.2836 30.3911 35.2286 30.4087 35.1696 30.4245L34.9808 30.4795L34.6525 30.5739L34.4304 30.3222C34.4146 30.3065 34.3969 30.2888 34.3832 30.2692C34.3556 30.2338 34.3262 30.2023 34.2986 30.1709L34.2967 30.1689C34.1964 30.0509 34.0981 29.933 33.9998 29.815C33.8995 29.6951 33.7993 29.5752 33.699 29.4552L33.3569 29.0483L32.2579 29.6794C32.3365 29.8995 32.4171 30.1217 32.4977 30.338L32.5036 30.3517C32.5489 30.4795 32.596 30.6034 32.6413 30.7292C32.6845 30.8472 32.7278 30.9632 32.771 31.0811C32.7907 31.1342 32.8044 31.1794 32.8143 31.2207L32.8261 31.264L32.9244 31.5844L32.6747 31.8145C32.659 31.8282 32.6432 31.844 32.6275 31.8577C32.6098 31.8734 32.5921 31.8911 32.5744 31.9069C32.5036 31.9698 32.4368 32.0327 32.3719 32.0956L32.366 32.1015C32.3326 32.131 32.3011 32.1644 32.2697 32.1978C32.252 32.2175 32.2323 32.2352 32.2127 32.2549L32.0809 32.3866L32.079 32.3885C32.0574 32.4082 32.0338 32.4338 32.0043 32.4711L32.0023 32.4731L32.0003 32.475C31.9925 32.4849 31.9826 32.4947 31.9748 32.5045C31.9119 32.5753 31.8391 32.6559 31.7389 32.7306L31.5108 32.9076L31.1785 32.7916L31.0547 32.7464C30.9859 32.7208 30.9151 32.6952 30.8463 32.6697C30.7775 32.6441 30.7067 32.6186 30.6379 32.593L30.5848 32.5734C30.2899 32.4672 29.9852 32.3591 29.6863 32.247C29.5546 32.479 29.4189 32.711 29.2872 32.9371L29.2125 33.0649C29.1771 33.1238 29.1437 33.1828 29.1083 33.2418C29.0886 33.2752 29.0709 33.3067 29.0513 33.3401C29.1083 33.3873 29.1653 33.4364 29.2223 33.4836C29.3029 33.5505 29.3835 33.6193 29.4661 33.6881L29.5841 33.7864C29.7807 33.9535 29.9852 34.1246 30.1857 34.2917C30.1896 34.2936 30.1955 34.2976 30.1995 34.3035L30.2034 34.3054C30.2722 34.3565 30.4137 34.4627 30.4708 34.6691L30.5121 34.8127L30.0638 36.4936L29.7473 36.5644L29.7001 36.5762H29.6961C29.6686 36.5821 29.6352 36.588 29.6018 36.5959L29.5566 36.6057H29.5546C29.4248 36.6273 29.2931 36.6509 29.1653 36.6745C29.0375 36.6981 28.9058 36.7217 28.7741 36.7433C28.6463 36.7649 28.5185 36.7885 28.3927 36.8101C28.3003 36.8259 28.2059 36.8436 28.1135 36.8593V38.1215C28.1449 38.1274 28.1764 38.1333 28.2079 38.1372C28.2727 38.149 28.3396 38.1608 28.4064 38.1706C28.5598 38.1982 28.7171 38.2257 28.8704 38.2532C29.0002 38.2768 29.1339 38.2984 29.2656 38.324C29.2852 38.3279 29.3029 38.3299 29.3206 38.3319C29.3403 38.3338 29.3619 38.3378 29.3816 38.3417C29.5231 38.3633 29.6647 38.3849 29.8161 38.44L30.0933 38.5383L30.1641 38.8234C30.1641 38.8234 30.223 39.0731 30.2289 39.1006C30.2545 39.2107 30.2781 39.3149 30.3076 39.4171C30.3371 39.5233 30.3666 39.6275 30.398 39.7376L30.4255 39.8319C30.4432 39.8968 30.4629 39.9597 30.4806 40.0207L30.5809 40.3588L30.2663 40.6282C30.2486 40.6439 30.2309 40.6596 30.2132 40.6734C30.1955 40.6872 30.1798 40.7009 30.1641 40.7167L29.6391 41.161C29.4445 41.3222 29.2499 41.4873 29.0611 41.6466L29.702 42.7417C29.879 42.6788 30.0599 42.6139 30.2368 42.547C30.3764 42.4959 30.514 42.4468 30.6497 42.3976C30.7853 42.3485 30.921 42.2993 31.0586 42.2502L31.0763 42.2443H31.0783L31.0822 42.2423C31.1451 42.2148 31.2631 42.1656 31.4145 42.1656C31.4597 42.1656 31.5049 42.1695 31.5481 42.1794L31.7172 42.2128L31.8391 42.3406C31.8588 42.3622 31.8804 42.3838 31.902 42.4074C31.9237 42.431 31.9473 42.4546 31.9689 42.4782C32.0593 42.5746 32.1576 42.6788 32.2559 42.7751C32.3503 42.8695 32.4447 42.9599 32.5548 43.0621L32.6983 43.1958L32.948 43.4298L32.8457 43.7502C32.8438 43.7581 32.8398 43.7679 32.8379 43.7778C32.8359 43.7837 32.8339 43.7896 32.832 43.7935L32.83 43.8014L32.828 43.8092C32.8202 43.8269 32.8143 43.8466 32.8084 43.8682C32.8025 43.8879 32.7966 43.9056 32.7887 43.9252C32.7356 44.0766 32.6806 44.23 32.6255 44.3794L32.5823 44.4993L32.5783 44.5111V44.5131C32.539 44.6114 32.5036 44.7136 32.4683 44.8119L32.4643 44.8217C32.4368 44.8984 32.4093 44.9731 32.3798 45.0498C32.3464 45.1383 32.3129 45.2307 32.2795 45.3211L33.3726 45.9522C33.4434 45.8677 33.5161 45.7811 33.5869 45.6986C33.6774 45.5904 33.7717 45.4803 33.8622 45.3702C33.9349 45.2837 34.0057 45.1992 34.0784 45.1127C34.1492 45.0262 34.222 44.9417 34.2947 44.8551C34.3262 44.8158 34.3635 44.7765 34.395 44.7411L34.3989 44.7372C34.4068 44.7274 34.4146 44.7175 34.4225 44.7097C34.4284 44.7038 34.4343 44.6959 34.4402 44.688L34.4441 44.6841L34.6741 44.4266L35.0044 44.5268C35.0693 44.5484 35.1322 44.5661 35.1932 44.5858H35.1971C35.3131 44.6232 35.4271 44.6566 35.5392 44.688L35.5942 44.7038C35.7476 44.7431 35.8793 44.7745 36.0071 44.804C36.0386 44.8119 36.07 44.8178 36.1015 44.8257C36.1349 44.8335 36.1683 44.8414 36.1998 44.8493L36.5281 44.9299L36.5969 45.2523C36.6048 45.2778 36.6087 45.2975 36.6126 45.3152C36.6087 45.3801 36.6205 45.4273 36.6284 45.4843Z" fill="white"/>
<path d="M39.0211 42.5138C38.8422 42.5138 38.6672 42.4489 38.5296 42.3309C38.4726 42.2818 38.4333 42.2444 38.4018 42.211C38.394 42.2031 37.2969 41.1061 37.2969 41.1061C36.5321 40.3413 35.7634 39.5726 34.9986 38.8078L34.6978 39.1086L34.3282 39.4782C34.2869 39.5234 34.2417 39.5667 34.1925 39.604C34.0549 39.7102 33.8937 39.7672 33.7266 39.7672C33.6303 39.7672 33.5379 39.7495 33.4474 39.7122C33.1977 39.6119 33.0247 39.3858 32.9854 39.1086C32.9775 39.0398 32.9775 38.9828 32.9775 38.9454V33.818C32.9775 33.7944 32.9775 33.7571 32.9815 33.7177C33.0129 33.3049 33.3078 33.0119 33.7187 32.9844C33.7679 32.9805 33.8111 32.9805 33.8485 32.9805H38.913C38.9582 32.9805 39.0192 32.9805 39.0919 32.9883C39.3691 33.0237 39.5972 33.1928 39.7014 33.4425C39.8056 33.6922 39.7682 33.9733 39.5991 34.1955C39.5598 34.2486 39.5185 34.2898 39.4871 34.3193L39.4733 34.3331L39.4595 34.3469L39.4517 34.3508L38.797 35.0055L42.2061 38.4146C42.2356 38.4441 42.2788 38.4873 42.3241 38.5404C42.5659 38.8353 42.5659 39.2246 42.3241 39.5097C42.2847 39.5568 42.2493 39.5942 42.2199 39.6237L42.2041 39.6394C41.6359 40.2115 41.054 40.7915 40.4937 41.3518C40.2066 41.6369 39.9216 41.9239 39.6345 42.211C39.6345 42.211 39.605 42.2405 39.5991 42.2464C39.5677 42.2798 39.5264 42.3191 39.4733 42.3584C39.3416 42.4607 39.1843 42.5138 39.0211 42.5138ZM35.4252 37.7186C35.4665 37.756 35.5019 37.7913 35.5393 37.8287C36.3689 38.6603 39.0211 41.3125 39.0211 41.3125C39.7309 40.6028 40.5232 39.8105 41.3037 39.026L37.8218 35.5422C37.8022 35.5225 37.7845 35.5029 37.7668 35.4852C37.7491 35.4675 37.7334 35.4498 37.7157 35.4321L37.3048 35.0074L37.7078 34.5867C37.7235 34.571 37.7393 34.5533 37.755 34.5376C37.7707 34.5199 37.7865 34.5041 37.8022 34.4884L38.2288 34.0618H34.0569V38.2357L34.4875 37.8051C34.5032 37.7894 34.5189 37.7756 34.5346 37.7599C34.5504 37.7442 34.5661 37.7284 34.5838 37.7127L35.0085 37.3097L35.4252 37.7186Z" fill="white"/>
<path d="M29.3754 30.5265C29.34 30.5225 29.3144 30.5225 29.2849 30.5225H23.9039C23.7584 30.5225 23.6385 30.5088 23.5284 30.4812C23.0231 30.3633 22.6515 29.915 22.6279 29.3921C22.624 29.3409 22.624 29.2957 22.6279 29.2505V23.8773C22.6279 23.7653 22.6319 23.6316 22.6732 23.4861C22.8206 22.9887 23.2669 22.6446 23.784 22.6289H29.2535C29.34 22.6289 29.4599 22.6289 29.5857 22.6584C30.1067 22.7724 30.4822 23.2148 30.5196 23.7554C30.5235 23.8066 30.5235 23.8557 30.5235 23.8931V29.2682C30.5235 29.3134 30.5235 29.3685 30.5196 29.4314V29.4353C30.4626 30.0369 30.0006 30.4871 29.395 30.5284H29.3852L29.3754 30.5265ZM23.7741 29.4333C23.8174 29.4412 23.8607 29.4451 23.9078 29.4451H29.3144C29.3852 29.4392 29.4285 29.398 29.4363 29.3291V23.8223C29.4344 23.7849 29.4186 23.726 29.3537 23.7083C29.3321 23.7063 29.281 23.7063 29.2476 23.7063H23.8135C23.7447 23.7102 23.7171 23.7554 23.7073 23.7928C23.7053 23.8085 23.7053 23.8577 23.7053 23.8773V29.3429C23.7053 29.3822 23.7388 29.4255 23.7741 29.4333Z" fill="white"/>
<path d="M21.2756 33.98C20.9905 33.98 20.7487 33.9407 20.5403 33.8562C19.7558 33.5515 19.3076 32.9931 19.1759 32.1497V32.1477C19.168 32.0848 19.168 32.014 19.168 31.9393V28.6639C19.168 26.23 19.168 23.7115 19.1641 21.2382C19.1641 20.2906 19.8305 19.4432 20.7507 19.223C20.9158 19.1857 21.0377 19.168 21.1478 19.168H31.8391C32.1477 19.168 32.3699 19.1994 32.5606 19.2722C33.3588 19.573 33.813 20.1235 33.9506 20.9551C33.9663 21.0475 33.9742 21.1458 33.9742 21.2638V27.4037L33.8307 27.3604C33.8189 27.3565 33.8071 27.3526 33.7933 27.3486C33.7599 27.3388 33.7284 27.329 33.6989 27.3211C33.5888 27.2936 33.4787 27.2798 33.3686 27.2798C33.2369 27.2798 33.117 27.2975 33.001 27.3349L32.8555 27.3801V21.3542C32.8555 21.248 32.8516 21.1242 32.8221 20.9964V20.9944C32.7375 20.6032 32.4033 20.3201 31.9944 20.2906C31.9531 20.2866 31.9118 20.2866 31.8804 20.2866H21.2854C21.1812 20.2866 21.0711 20.2886 20.9512 20.324C20.5816 20.4361 20.3221 20.7546 20.2926 21.136C20.2886 21.1871 20.2886 21.2402 20.2886 21.2874V31.8292C20.2886 31.9177 20.2886 32.0297 20.3122 32.1359C20.4007 32.5409 20.7349 32.826 21.1635 32.8594C21.2107 32.8633 21.2599 32.8633 21.2952 32.8633H27.3644L27.3172 33.0088C27.2268 33.29 27.2661 33.5574 27.3054 33.7343V33.7363C27.3113 33.7638 27.3192 33.7933 27.331 33.8306L27.3801 33.9781H25.9587C24.3937 33.98 22.8091 33.98 21.2756 33.98Z" fill="white"/>
<path d="M36.426 22.7467C36.3297 22.7467 36.2471 22.7408 36.1684 22.727H36.1645C35.8558 22.6602 35.6455 22.3633 35.6769 22.0389C35.7045 21.7303 35.9699 21.4767 36.2805 21.4629H36.2844H40.4367C40.4957 21.4629 40.5586 21.4629 40.6097 21.4727H40.6136C40.9813 21.5514 41.1543 21.8679 41.1366 22.1431C41.1189 22.4715 40.8614 22.7251 40.5232 22.7487H40.5193H36.426V22.7467Z" fill="white"/>
<path d="M22.0862 17.4616C21.7362 17.4577 21.459 17.1766 21.4551 16.8246C21.4512 16.3331 21.4512 15.8357 21.4512 15.356V12.7019C21.4512 12.6409 21.4512 12.5839 21.461 12.5328V12.5308C21.5239 12.2182 21.7874 12 22.1019 12H22.1511H22.155C22.4735 12.0236 22.7271 12.2851 22.7448 12.6095V12.6134V16.8364V16.8404C22.7232 17.2002 22.4499 17.4616 22.096 17.4616H22.0862Z" fill="white"/>
<path d="M12.7272 22.7507C12.6427 22.7507 12.5601 22.7428 12.4815 22.7251C12.275 22.6858 11.9624 22.4597 12.0037 22.0311C12.0312 21.7401 12.2849 21.4904 12.5817 21.4629C12.6171 21.459 12.6545 21.459 12.6859 21.459H16.734C16.8362 21.459 16.9188 21.4629 16.9974 21.4845C17.2334 21.5534 17.4653 21.7775 17.4575 22.1215C17.4535 22.4125 17.253 22.6602 16.9699 22.7251C16.8932 22.7448 16.8067 22.7467 16.7242 22.7467H14.0445C13.9304 22.7467 13.8125 22.7467 13.6984 22.7487C13.5844 22.7487 13.4664 22.7507 13.3504 22.7507H12.7272Z" fill="white"/>
<path d="M31.0374 17.4616C31.0119 17.4616 30.9843 17.4616 30.9509 17.4577C30.6029 17.4125 30.3945 17.1097 30.3945 16.8423V12.7058C30.3945 12.5996 30.3985 12.519 30.4221 12.4443C30.4889 12.23 30.7111 12 31.0374 12C31.0532 12 31.0767 12 31.1023 12.0039C31.3815 12.0295 31.6174 12.2497 31.6666 12.5308V12.5348C31.6744 12.5937 31.6823 12.6527 31.6823 12.7137V16.7558C31.6823 16.864 31.6685 16.9544 31.643 17.0311C31.5545 17.2867 31.3107 17.4616 31.0374 17.4616Z" fill="white"/>
<path d="M22.0999 41.1472C21.8758 41.1472 21.5986 41.0312 21.4865 40.7048C21.4649 40.6419 21.4551 40.5672 21.4551 40.4532V36.3855C21.4551 36.2852 21.4629 36.2085 21.4806 36.1417V36.1377C21.5612 35.8664 21.8109 35.6836 22.0999 35.6836H22.1176C22.4007 35.6934 22.6465 35.89 22.7153 36.1653C22.7291 36.2203 22.7369 36.2813 22.7369 36.352V40.4689C22.7369 40.524 22.7291 40.581 22.7212 40.6341V40.638V40.6419C22.6603 40.9231 22.4283 41.1236 22.1432 41.1452C22.1255 41.1472 22.1078 41.1472 22.0999 41.1472Z" fill="white"/>
<path d="M12.7389 31.6881C12.6681 31.6881 12.5993 31.6822 12.5305 31.6724C12.3005 31.6429 11.9761 31.407 12.0036 30.9902C12.0252 30.6737 12.2906 30.4161 12.6072 30.4023H12.6111H16.7693C16.8381 30.4023 16.9265 30.4063 17.0111 30.4279H17.013C17.2942 30.5144 17.481 30.7916 17.4593 31.0846C17.4377 31.3952 17.2175 31.6331 16.9128 31.6724C16.8558 31.6803 16.7948 31.6842 16.728 31.6842H12.7389V31.6881Z" fill="white"/>
<path d="M12.7156 27.2135C12.6311 27.2135 12.5446 27.2135 12.464 27.1919C12.2595 27.1368 11.9666 26.9088 12.0078 26.5057C12.0393 26.1656 12.3126 25.9612 12.5544 25.9395C12.6409 25.9317 12.6979 25.9277 12.751 25.9277H16.6732C16.7656 25.9277 16.8443 25.9317 16.9151 25.9395C17.2394 25.9808 17.4813 26.2639 17.4675 26.5864C17.4537 26.9284 17.1942 27.1958 16.8639 27.2096H16.86H16.7814L16.6968 27.2135H12.7156Z" fill="white"/>
<path d="M26.5451 17.4635C26.2797 17.4577 26.0398 17.2787 25.9592 17.0251C25.9376 16.9602 25.9278 16.8777 25.9278 16.7774C25.9199 16.5356 25.9199 16.2879 25.9199 16.048V12.7392C25.9199 12.69 25.9239 12.6428 25.9278 12.5996C25.9298 12.5819 25.9298 12.5662 25.9317 12.5504V12.5465C25.9553 12.3224 26.1676 12.0078 26.5667 12.0078H26.6159H26.6198C26.9816 12.0353 27.2057 12.3479 27.2057 12.6212V16.7735C27.2057 16.8698 27.1978 16.9465 27.1782 17.0094C27.1074 17.2709 26.8597 17.4596 26.5766 17.4694H26.5608L26.5451 17.4635Z" fill="white"/>
</g>
<defs>
<clipPath id="clip0_394_3296">
<rect width="36" height="36" fill="white" transform="translate(12 12)"/>
</clipPath>
</defs>
</svg>
