<svg width="60" height="60" viewBox="0 0 60 60" fill="none" xmlns="http://www.w3.org/2000/svg">
<path d="M8.82353 0H51.1765C56.1176 0 60 3.88235 60 8.82353V51.1765C60 56.1176 56.1176 60 51.1765 60H8.82353C3.88235 60 0 56.1176 0 51.1765V8.82353C0 3.88235 3.88235 0 8.82353 0Z" fill="#2575D6"/>
<path d="M27.9573 12C28.7819 12.1877 29.3722 12.7133 29.9531 13.2858C32.4175 15.754 34.9006 18.2035 37.3837 20.653C37.9927 21.2536 38.3019 21.9575 38.2926 22.8116C38.2738 24.1349 38.2926 25.4581 38.2926 26.7814C38.2926 26.9034 38.2926 27.0348 38.2926 27.185C38.4144 27.1475 38.5081 27.1193 38.5924 27.1005C39.2389 26.9222 39.8011 27.0161 40.2978 27.5229C42.0031 29.2591 43.7272 30.9765 45.4513 32.7034C46.051 33.304 46.1541 34.0736 45.7324 34.815C45.3014 35.5846 44.4019 36.0445 43.6429 35.838C43.3712 35.7629 43.2212 35.8286 43.0432 36.0163C42.809 36.2697 42.5372 36.5043 42.2655 36.7671C43.1463 37.4616 43.9896 38.1279 44.8329 38.8037C45.3857 39.2354 45.9198 39.6859 46.4914 40.1082C47.1754 40.6056 47.747 41.1781 48 42.0134C48 42.2667 48 42.5295 48 42.7829C47.7376 43.2616 47.5596 43.8059 47.2035 44.2001C46.557 44.9133 45.7605 45.4107 44.7205 45.1667C44.0177 44.9978 43.5305 44.491 43.0994 43.9373C42.2936 42.9143 41.4971 41.8913 40.6913 40.8778C40.3352 40.4179 39.9698 39.9674 39.5856 39.4794C39.2764 39.7985 38.9859 40.08 38.7142 40.3897C38.658 40.4554 38.6392 40.5962 38.6674 40.6901C38.7798 41.103 38.7985 41.5347 38.5737 41.882C38.2738 42.3324 38.3113 42.8111 38.3113 43.2897C38.3019 45.27 36.8402 46.7153 34.8631 46.7246C34.6007 46.7246 34.3384 46.7246 34.076 46.7246C34.0573 46.8091 34.0479 46.8373 34.0479 46.8748C34.001 47.7476 33.748 47.9916 32.886 47.9916C31.2275 47.9916 29.5596 47.9916 27.9011 47.9916C27.4701 47.9916 27.0297 48.0198 26.5986 47.9729C26.4206 47.9541 26.2051 47.8039 26.1114 47.6538C26.0458 47.5318 26.0833 47.2502 26.1864 47.147C26.3175 47.0156 26.5518 46.9405 26.7392 46.9405C28.6788 46.9217 30.6278 46.9311 32.5674 46.9311C32.6892 46.9311 32.8204 46.9311 32.9422 46.9311C33.0828 46.0958 32.7454 45.6547 31.9677 45.6547C28.9505 45.6547 25.924 45.6547 22.9068 45.6547C22.1385 45.6547 21.773 46.1334 21.9323 46.9311C22.6163 46.9311 23.3004 46.9311 23.9938 46.9311C24.406 46.9311 24.6403 47.1282 24.6309 47.4661C24.6309 47.7945 24.3873 47.9822 23.975 47.9822C23.3472 47.9822 22.71 47.9822 22.0822 47.9822C21.0984 47.9822 20.8829 47.7758 20.8267 46.781C20.8267 46.7434 20.8079 46.7153 20.7985 46.6402C20.6767 46.6402 20.5549 46.6402 20.4237 46.6402C18.7746 46.6402 17.1255 46.6589 15.4669 46.6308C14.0614 46.612 13.0026 45.9832 12.3654 44.7162C12.2155 44.4159 12.1406 44.0874 12.0281 43.7684C12.0281 35.716 12.0281 27.6542 12.0281 19.6019C12.1874 19.3391 12.4029 19.1608 12.7215 19.2734C13.0401 19.386 13.0869 19.6582 13.0869 19.9585C13.0869 27.6542 13.0869 35.3406 13.0869 43.0363C13.0869 44.6505 14.0239 45.5891 15.6356 45.5891C17.3316 45.5891 19.0276 45.5891 20.733 45.5891C20.9578 45.5891 21.1078 45.5421 21.267 45.3544C21.4545 45.1292 21.6981 44.9039 21.9698 44.7913C22.2509 44.6787 22.2884 44.5192 22.2884 44.2658C22.2978 43.2803 22.8787 42.5389 23.797 42.3324C23.975 42.2949 24.1718 42.2855 24.3592 42.2855C26.3925 42.2855 28.4352 42.2855 30.4685 42.2855C31.8553 42.2855 32.6143 43.0363 32.633 44.4253C32.633 44.491 32.633 44.5661 32.633 44.6412C33.1296 44.8195 33.5325 45.101 33.8043 45.5515C33.8324 45.5984 33.9167 45.6547 33.9636 45.6454C34.4977 45.6266 35.0505 45.6735 35.5658 45.5609C36.6622 45.3263 37.4118 44.1625 37.215 43.102C36.3529 43.3366 35.7907 42.8768 35.2285 42.3043C33.6637 40.7088 32.0708 39.1321 30.4872 37.5555C29.8032 36.8703 29.6908 36.1665 30.1406 35.3687C30.5903 34.5804 31.4898 34.1581 32.305 34.3739C32.5112 34.4302 32.6236 34.3927 32.7642 34.2519C34.2072 32.7972 35.6596 31.3519 37.1119 29.9067C37.2525 29.7659 37.2993 29.6439 37.2337 29.4468C37.1775 29.2872 37.1681 29.0995 37.1775 28.9306C37.1869 27.0911 37.2056 25.2611 37.2244 23.4216C37.2244 23.065 37.2244 22.6989 37.2244 22.2954C37.037 22.2954 36.9058 22.2954 36.7652 22.2954C34.7132 22.2954 32.6705 22.2954 30.6184 22.2954C28.9131 22.2954 27.9198 21.2912 27.9198 19.5831C27.9198 17.5653 27.9198 15.5569 27.9198 13.5391C27.9198 13.4078 27.9198 13.2858 27.9198 13.1074C27.7793 13.098 27.6575 13.0887 27.5357 13.0887C23.5534 13.0699 19.5711 13.0605 15.5888 13.0417C14.0239 13.0417 13.0776 13.9896 13.0776 15.5569C13.0776 16.0637 13.0682 16.5611 13.0776 17.0679C13.0776 17.3682 13.0495 17.631 12.7309 17.7624C12.3748 17.9032 12.1874 17.7061 12 17.4809C12 16.6174 12 15.7446 12 14.8812C12.1874 14.0835 12.5247 13.3702 13.1619 12.8259C13.6866 12.3754 14.305 12.1595 14.9516 12C19.29 12 23.6189 12 27.9573 12ZM33.4107 35.1341C34.9006 36.6263 36.3998 38.1279 37.8522 39.5826C39.3701 38.0716 40.8974 36.5325 42.4716 34.9652C41.9844 34.4866 41.4597 33.9891 40.9443 33.473C40.6726 33.2008 40.6726 32.8911 40.9068 32.6752C41.1411 32.45 41.4315 32.4782 41.7126 32.7597C42.3404 33.3791 42.9495 34.0079 43.5773 34.6273C43.8959 34.937 44.252 34.8995 44.6174 34.5429C44.9641 34.205 45.0109 33.7827 44.7298 33.4917C43.0057 31.7555 41.2816 30.0193 39.5482 28.283C39.2389 27.9733 38.8548 28.0109 38.4987 28.3675C38.1426 28.7241 38.0958 29.1371 38.405 29.4468C38.8548 29.9067 39.3139 30.3571 39.7637 30.817C40.0822 31.1361 40.1197 31.427 39.8855 31.671C39.6512 31.9151 39.342 31.8775 39.0328 31.5678C38.6861 31.2206 38.3394 30.8827 38.0021 30.5448C36.456 32.084 34.9193 33.6137 33.4107 35.1341ZM36.2218 21.2443C33.8605 18.8135 31.443 16.3265 28.9599 13.7644C28.9505 13.9427 28.9412 14.0084 28.9412 14.0741C28.9412 15.9793 28.9318 17.8938 28.9412 19.799C28.9412 20.6155 29.494 21.2255 30.3092 21.2349C32.3332 21.263 34.3477 21.2443 36.2218 21.2443ZM40.3446 38.7474C41.6096 40.3616 42.8839 41.9758 44.1582 43.59C44.4206 43.9185 44.7673 44.1344 45.2077 44.1344C45.8261 44.125 46.6132 43.4962 46.8381 42.8205C47.0349 42.248 46.8475 41.7506 46.2384 41.2719C44.9079 40.2208 43.5773 39.1697 42.2467 38.1186C42.0031 37.9215 41.7595 37.7338 41.5252 37.5461C41.1317 37.959 40.7569 38.3344 40.3446 38.7474ZM31.9021 35.35C31.4149 35.4063 31.1525 35.6409 30.9745 35.9975C30.8433 36.2603 30.8995 36.4856 31.1057 36.7014C32.8485 38.4377 34.582 40.1739 36.3155 41.9101C36.5966 42.1917 36.9995 42.1447 37.3368 41.8163C37.7022 41.4596 37.7585 41.0655 37.468 40.7745C35.7251 39.0289 33.9823 37.2833 32.2301 35.5471C32.127 35.4438 31.9771 35.3969 31.9021 35.35ZM31.518 44.5661C31.6023 43.6933 31.2743 43.3273 30.4498 43.3273C28.4164 43.3273 26.3831 43.3273 24.3498 43.3273C23.5534 43.3273 23.2067 43.7496 23.3472 44.5661C26.0458 44.5661 28.7725 44.5661 31.518 44.5661Z" fill="white"/>
<path d="M23.3472 30.7795C21.3889 30.7795 19.4399 30.7795 17.4815 30.7795C17.3503 30.7795 17.2192 30.7795 17.0973 30.7701C16.8256 30.7325 16.6757 30.5542 16.6569 30.3008C16.6382 30.038 16.7694 29.841 17.0224 29.7753C17.1536 29.7377 17.3035 29.7377 17.4347 29.7377C21.3795 29.7377 25.3243 29.7377 29.2691 29.7377C29.3628 29.7377 29.4565 29.7377 29.5502 29.7471C29.8876 29.7846 30.075 30.0005 30.0562 30.3008C30.0375 30.5918 29.8501 30.7795 29.5221 30.7888C28.7725 30.7982 28.0229 30.7982 27.2733 30.7982C25.9708 30.7795 24.659 30.7795 23.3472 30.7795Z" fill="white"/>
<path d="M22.2884 39.2072C20.6767 39.2072 19.0557 39.2072 17.444 39.2072C17.3316 39.2072 17.2098 39.2072 17.0973 39.1978C16.8256 39.1603 16.6757 38.982 16.6569 38.7286C16.6382 38.4752 16.7694 38.2687 17.0318 38.203C17.1629 38.1655 17.3129 38.1655 17.444 38.1655C20.6861 38.1655 23.9282 38.1655 27.1702 38.1655C27.2733 38.1655 27.3857 38.1655 27.4888 38.1749C27.798 38.2218 27.9854 38.4377 27.9573 38.7286C27.9292 39.0289 27.7512 39.1978 27.4513 39.2072C27.1234 39.2166 26.7954 39.2166 26.4675 39.2166C25.0807 39.2072 23.6845 39.2072 22.2884 39.2072Z" fill="white"/>
<path d="M21.7074 34.9933C20.3394 34.9933 18.9714 34.9933 17.594 34.9933C17.4628 34.9933 17.3035 35.0309 17.2192 34.9652C17.0599 34.8432 16.835 34.6743 16.8256 34.5053C16.8162 34.3364 16.9943 34.1205 17.1442 33.9985C17.2379 33.9141 17.4347 33.9422 17.5846 33.9422C20.3394 33.9422 23.0849 33.9422 25.8397 33.9422C25.9802 33.9422 26.1208 33.9422 26.2613 33.9798C26.5237 34.0455 26.6455 34.2332 26.6268 34.5053C26.608 34.7775 26.4675 34.937 26.1957 34.984C26.0833 35.0027 25.9615 35.0027 25.849 35.0027C24.4716 34.9933 23.0849 34.9933 21.7074 34.9933Z" fill="white"/>
<path d="M21.3795 22.3517C20.1145 22.3517 18.8496 22.3517 17.5846 22.3517C17.4721 22.3517 17.3503 22.3517 17.2379 22.3329C16.9662 22.2954 16.8162 22.1077 16.8069 21.8543C16.7881 21.6009 16.9193 21.3944 17.1817 21.3287C17.3129 21.2912 17.4628 21.2912 17.594 21.2912C20.1145 21.2912 22.6257 21.2912 25.1463 21.2912C25.2775 21.2912 25.4086 21.2912 25.5305 21.3193C25.8116 21.385 25.9427 21.5727 25.924 21.8543C25.9053 22.1265 25.7553 22.286 25.493 22.3235C25.3805 22.3423 25.2587 22.3329 25.1463 22.3329C23.8907 22.3517 22.6351 22.3517 21.3795 22.3517Z" fill="white"/>
<path d="M20.9953 26.5656C19.8147 26.5656 18.634 26.5656 17.4534 26.5656C17.341 26.5656 17.2192 26.5656 17.1067 26.5562C16.835 26.5187 16.6851 26.3403 16.6663 26.0869C16.6476 25.8335 16.7788 25.6365 17.0411 25.5614C17.1536 25.5332 17.2754 25.5238 17.3878 25.5238C19.824 25.5238 22.2509 25.5238 24.6871 25.5238C24.7996 25.5238 24.9214 25.5332 25.0338 25.5614C25.2868 25.6458 25.4086 25.8335 25.3805 26.1057C25.3618 26.3591 25.2119 26.5187 24.9682 26.5562C24.8558 26.575 24.734 26.575 24.6216 26.575C23.4034 26.5656 22.1947 26.5656 20.9953 26.5656Z" fill="white"/>
<path d="M30.2061 26.5656C29.2972 26.5656 28.379 26.5656 27.4701 26.5656C27.0203 26.5656 26.7954 26.3779 26.8048 26.0306C26.8142 25.7022 27.039 25.5145 27.4607 25.5145C29.2972 25.5145 31.1338 25.5145 32.9703 25.5145C33.3826 25.5145 33.6262 25.7209 33.6262 26.04C33.6262 26.3591 33.3826 26.5656 32.9797 26.5656C32.0521 26.5656 31.1338 26.5656 30.2061 26.5656Z" fill="white"/>
</svg>
