<svg width="274" height="52" viewBox="0 0 274 52" fill="none" xmlns="http://www.w3.org/2000/svg">
<g clip-path="url(#clip0_232_11403)">
<path d="M2.70508 31.9511V30.0996L2.81012 31.9511H2.70508Z" fill="#4285F4"/>
<path d="M30.1319 25.1815C30.0789 25.975 29.8667 26.7156 29.5484 27.4562C29.4953 27.6149 29.4423 27.7207 29.3362 27.8794C28.9648 28.62 28.4874 29.2548 27.9038 29.8367C26.5776 31.212 24.7209 31.9526 22.705 31.9526H5.35786V28.3026C5.35786 27.562 5.03957 26.8743 4.56212 26.3982C4.19078 26.0279 3.76638 25.8163 3.28894 25.7105C2.86454 27.1388 2.65234 28.62 2.65234 30.1541V7.56606C2.65234 2.91092 6.4719 0.160156 10.1323 0.160156C12.4665 0.160156 14.5885 1.21814 16.0208 3.17542L23.7129 13.4908L24.0843 14.0198L28.0099 19.3097L28.6465 20.1561C28.7526 20.3148 28.9118 20.4735 29.0179 20.6851C29.124 20.8438 29.2301 21.0554 29.3362 21.2141C29.4423 21.3728 29.4953 21.5844 29.6014 21.7431C29.7606 22.1134 29.8667 22.4837 29.9728 22.8539C30.1319 23.5945 30.238 24.388 30.1319 25.1815Z" fill="#4285F4"/>
<path d="M8.06348 26.5559V7.56503C8.06348 5.87225 9.60191 5.50195 10.1855 5.50195C10.822 5.50195 11.3525 5.76645 11.7239 6.34834L24.4027 23.329C25.0393 24.2283 24.774 25.0218 24.5618 25.445C24.3496 25.8682 23.8191 26.5559 22.7582 26.5559H8.06348Z" fill="white"/>
<path opacity="0.25" d="M30.1317 25.179C30.0787 25.9725 29.8665 26.7131 29.5482 27.4537C29.4951 27.6124 29.4421 27.7182 29.336 27.8769C28.9646 28.6175 28.4872 29.2523 27.9037 29.8342C26.5774 31.2095 24.7207 31.9501 22.7048 31.9501H8.01014L5.41072 28.4588V28.3001C5.41072 27.5595 5.09243 26.8718 4.61498 26.3957C4.24364 26.0254 3.81924 25.8138 3.3418 25.708C4.13754 22.4812 5.78207 19.6246 8.11624 17.4557C10.5035 15.234 13.5803 13.8057 17.1346 13.5412C17.506 13.4883 17.9304 13.4883 18.3548 13.4883H23.8189L24.1902 14.0173L28.1159 19.3072L28.7524 20.1536C28.8585 20.3123 29.0177 20.471 29.1238 20.6826C29.2299 20.8413 29.336 21.0529 29.4421 21.2116C29.5482 21.3703 29.6012 21.5819 29.7073 21.7406C29.8665 22.1109 29.9726 22.4812 30.0787 22.8515C30.1848 23.592 30.2378 24.3855 30.1317 25.179Z" fill="black"/>
<path d="M177.822 52.0004H272.356C273.258 52.0004 274.001 51.2598 274.001 50.3605V31.5813C274.001 30.682 273.258 29.9414 272.356 29.9414H177.822C176.92 29.9414 176.178 30.682 176.178 31.5813V50.4134C176.231 51.2598 176.92 52.0004 177.822 52.0004Z" fill="#239941"/>
<path d="M75.1182 15.8706C75.1182 17.7221 74.4816 19.309 73.1554 20.5257C71.8291 21.7424 70.1315 22.3772 68.0096 22.3772H57.1875V0.371094H67.4791C69.495 0.371094 71.0864 0.900087 72.2005 2.01097C73.3145 3.06896 73.8981 4.33854 73.8981 5.81972C73.8981 7.77699 72.6779 9.62847 70.8742 10.2633C73.6859 10.951 75.1182 13.1198 75.1182 15.8706ZM62.6516 5.07913V8.78208H66.2059C67.7443 8.78208 68.487 7.93569 68.487 6.93061C68.487 5.92552 67.7443 5.07913 66.4711 5.07913H62.6516ZM66.8425 17.6163C68.5931 17.6163 69.3889 16.6112 69.3889 15.4474C69.3889 14.2307 68.5401 13.2256 66.9486 13.2256H62.6516V17.6163H66.8425Z" fill="#4285F4"/>
<path d="M78.3008 22.3772V0.371094H94.2156V5.50232H83.924V8.72918H93.4729V13.8604H83.924V17.1931H94.2156V22.3243H78.3008V22.3772Z" fill="#4285F4"/>
<path d="M96.126 18.9378L98.9376 14.8645C100.794 16.716 102.863 17.6153 105.197 17.6153C106.524 17.6153 107.691 17.0334 107.691 16.0283C107.691 15.3406 107.107 14.7587 105.887 14.3355L103.924 13.7007C102.704 13.2776 101.749 12.9073 101.113 12.5899C98.6724 11.3203 97.4522 9.41591 97.4522 6.87674C97.4522 4.91947 98.248 3.33249 99.7333 2.01001C101.272 0.740425 103.235 0.0527344 105.622 0.0527344C108.646 0.0527344 111.245 0.952022 113.473 2.8035L110.874 7.03544C109.547 5.97745 107.372 5.23686 105.728 5.23686C104.189 5.23686 103.394 5.87166 103.394 6.66514C103.394 7.29994 103.977 7.82893 105.144 8.30502L107.107 8.99271C108.221 9.36301 109.07 9.6804 109.654 9.9449C112.465 11.1087 113.844 13.066 113.844 15.7109C113.844 17.774 113.049 19.4139 111.457 20.7893C109.866 22.1117 107.744 22.7465 105.091 22.7465C101.431 22.7465 98.4601 21.4769 96.126 18.9378Z" fill="#4285F4"/>
<path d="M121.377 5.71392H115.276V0.371094H133.101V5.71392H127V22.3243H121.377V5.71392Z" fill="#4285F4"/>
<path d="M141.271 18.9378L144.082 14.8645C145.939 16.716 148.008 17.6153 150.342 17.6153C151.668 17.6153 152.835 17.0334 152.835 16.0283C152.835 15.3406 152.252 14.7587 151.032 14.3355L149.069 13.7007C147.849 13.2776 146.894 12.9073 146.257 12.5899C143.817 11.3203 142.597 9.41591 142.597 6.87674C142.597 4.91947 143.392 3.33249 144.878 2.01001C146.416 0.740425 148.379 0.0527344 150.766 0.0527344C153.79 0.0527344 156.39 0.952022 158.618 2.8035L156.018 7.03544C154.692 5.97745 152.517 5.23686 150.872 5.23686C149.334 5.23686 148.538 5.87166 148.538 6.66514C148.538 7.29994 149.122 7.82893 150.289 8.30502L152.252 8.99271C153.366 9.36301 154.215 9.6804 154.798 9.9449C157.61 11.1087 158.989 13.066 158.989 15.7109C158.989 17.774 158.193 19.4139 156.602 20.7893C155.01 22.1117 152.888 22.7465 150.236 22.7465C146.575 22.7465 143.552 21.4769 141.271 18.9378Z" fill="#4285F4"/>
<path d="M162.119 22.3772V0.371094H178.034V5.50232H167.742V8.72918H177.291V13.8604H167.742V17.1931H178.034V22.3243H162.119V22.3772Z" fill="#4285F4"/>
<path d="M193.365 22.3772L189.492 15.0771H187.317V22.3772H181.747V0.371094H190.925C193.577 0.371094 195.593 1.05878 196.972 2.43417C198.352 3.80955 199.041 5.50232 199.041 7.6183C199.041 10.3691 197.715 12.8553 195.009 14.1778L199.784 22.3243H193.365V22.3772ZM187.317 5.44943V10.2104H190.659C194.214 10.3691 193.948 5.23783 190.872 5.44943H187.317Z" fill="#4285F4"/>
<path d="M216.707 0.371094H223.126L214.32 22.3772H209.333L200.474 0.371094H206.946L211.879 14.2307L216.707 0.371094Z" fill="#4285F4"/>
<path d="M225.354 0.371094H230.977V22.3243H225.354V0.371094Z" fill="#4285F4"/>
<path d="M237.449 19.5727C235.274 17.4568 234.213 14.7589 234.213 11.4791C234.213 8.14649 235.327 5.39573 237.502 3.27976C239.677 1.05799 242.382 0 245.565 0C249.491 0 252.992 1.69278 255.008 4.33774L251.454 8.04069C249.756 6.24212 247.9 5.28993 245.884 5.28993C244.186 5.28993 242.807 5.87182 241.64 7.0356C240.526 8.19939 239.942 9.62767 239.942 11.4262C239.942 13.119 240.526 14.5473 241.64 15.7111C242.807 16.822 244.186 17.4039 245.884 17.4039C248.059 17.4039 249.969 16.4517 251.56 14.6002L255.273 18.1445C254.266 19.4669 252.886 20.5778 251.189 21.4242C249.491 22.2706 247.634 22.6938 245.565 22.6938C242.276 22.6938 239.624 21.6358 237.449 19.5727Z" fill="#4285F4"/>
<path d="M257.82 22.3772V0.371094H273.735V5.50232H263.444V8.72918H272.992V13.8604H263.444V17.1931H273.735V22.3243H257.82V22.3772Z" fill="#4285F4"/>
<path d="M57.1875 51.5235V29.5703H72.8371V34.7544H62.7577V38.4045H71.67V43.5357H62.7577V51.5235H57.1875Z" fill="#4285F4"/>
<path d="M75.9141 29.5703H81.5373V51.5235H75.9141V29.5703Z" fill="#4285F4"/>
<path d="M100.051 29.5703H105.515V51.5235H101.324L91.2981 39.727V51.5235H85.834V29.5703H89.8127L99.9982 41.4727V29.5703H100.051Z" fill="#4285F4"/>
<path d="M109.865 51.5235V29.5703H118.831C122.279 29.5703 124.931 30.5754 126.894 32.5327C128.857 34.4899 129.812 37.1878 129.812 40.5734C129.812 43.9589 128.804 46.6568 126.841 48.6141C124.878 50.5713 122.173 51.5764 118.724 51.5764H109.865V51.5235ZM115.435 46.1807H118.99C120.581 46.1807 121.801 45.6517 122.703 44.5408C123.552 43.4299 124.029 42.0545 124.029 40.5205C124.029 38.9864 123.605 37.611 122.703 36.5001C121.854 35.3892 120.634 34.8602 118.99 34.8602H115.435V46.1807Z" fill="#4285F4"/>
<path d="M133.154 51.5235V29.5703H149.069V34.7015H138.778V37.9284H148.326V43.0596H138.778V46.3923H149.069V51.5235H133.154Z" fill="#4285F4"/>
<path d="M164.4 51.5235L160.527 44.2234H158.352V51.5235H152.782V29.5703H161.96C164.612 29.5703 166.628 30.258 168.007 31.6334C169.387 33.0088 170.076 34.7015 170.076 36.8175C170.076 39.5683 168.75 42.0545 166.045 43.377L170.819 51.5235H164.4ZM158.352 34.6486V39.4096H161.695C165.249 39.5683 164.984 34.437 161.907 34.6486H158.352Z" fill="#4285F4"/>
<path d="M188.75 34.5431L189.97 38.2461C190.076 38.5635 190.341 38.7751 190.66 38.7751H194.585C195.328 38.7751 195.593 39.6743 195.01 40.0975L191.827 42.3722C191.561 42.5838 191.455 42.9012 191.561 43.2186L192.781 46.9215C192.994 47.6092 192.198 48.1911 191.614 47.7679L188.431 45.4933C188.166 45.2817 187.795 45.2817 187.583 45.4933L184.4 47.7679C183.816 48.1911 183.02 47.6092 183.233 46.9215L184.453 43.2186C184.559 42.9012 184.453 42.5838 184.188 42.3722L181.005 40.0975C180.421 39.6743 180.739 38.7751 181.429 38.7751H185.355C185.673 38.7751 185.938 38.5635 186.044 38.2461L187.264 34.5431C187.583 33.8554 188.538 33.8554 188.75 34.5431Z" fill="white"/>
<path d="M207.264 34.5431L208.485 38.2461C208.591 38.5635 208.856 38.7751 209.174 38.7751H213.1C213.843 38.7751 214.108 39.6743 213.524 40.0975L210.341 42.3722C210.076 42.5838 209.97 42.9012 210.076 43.2186L211.296 46.9215C211.508 47.6092 210.713 48.1911 210.129 47.7679L206.946 45.4933C206.681 45.2817 206.31 45.2817 206.097 45.4933L202.914 47.7679C202.331 48.1911 201.535 47.6092 201.747 46.9215L202.967 43.2186C203.074 42.9012 202.967 42.5838 202.702 42.3722L199.519 40.0975C198.936 39.6743 199.254 38.7751 199.944 38.7751H203.869C204.188 38.7751 204.453 38.5635 204.559 38.2461L205.779 34.5431C206.097 33.8554 207.052 33.8554 207.264 34.5431Z" fill="white"/>
<path d="M225.831 34.5431L227.051 38.2461C227.157 38.5635 227.422 38.7751 227.741 38.7751H231.666C232.409 38.7751 232.674 39.6743 232.091 40.0975L228.908 42.3722C228.642 42.5838 228.536 42.9012 228.642 43.2186L229.863 46.9215C230.075 47.6092 229.279 48.1911 228.695 47.7679L225.513 45.4933C225.247 45.2817 224.876 45.2817 224.664 45.4933L221.481 47.7679C220.897 48.1911 220.101 47.6092 220.314 46.9215L221.534 43.2186C221.64 42.9012 221.534 42.5838 221.269 42.3722L218.086 40.0975C217.502 39.6743 217.82 38.7751 218.51 38.7751H222.436C222.754 38.7751 223.019 38.5635 223.125 38.2461L224.345 34.5431C224.611 33.8554 225.566 33.8554 225.831 34.5431Z" fill="white"/>
<path d="M244.345 34.5431L245.566 38.2461C245.672 38.5635 245.937 38.7751 246.255 38.7751H250.181C250.924 38.7751 251.189 39.6743 250.605 40.0975L247.422 42.3722C247.157 42.5838 247.051 42.9012 247.157 43.2186L248.377 46.9215C248.589 47.6092 247.794 48.1911 247.21 47.7679L244.027 45.4933C243.762 45.2817 243.391 45.2817 243.178 45.4933L239.995 47.7679C239.412 48.1911 238.616 47.6092 238.828 46.9215L240.048 43.2186C240.155 42.9012 240.048 42.5838 239.783 42.3722L236.6 40.0975C236.017 39.6743 236.335 38.7751 237.025 38.7751H240.95C241.269 38.7751 241.534 38.5635 241.64 38.2461L242.86 34.5431C243.125 33.8554 244.133 33.8554 244.345 34.5431Z" fill="white"/>
<path d="M262.86 34.5431L264.08 38.2461C264.186 38.5635 264.452 38.7751 264.77 38.7751H268.696C269.438 38.7751 269.703 39.6743 269.12 40.0975L265.937 42.3722C265.672 42.5838 265.566 42.9012 265.672 43.2186L266.892 46.9215C267.104 47.6092 266.308 48.1911 265.725 47.7679L262.542 45.4933C262.277 45.2817 261.905 45.2817 261.693 45.4933L258.51 47.7679C257.927 48.1911 257.131 47.6092 257.343 46.9215L258.563 43.2186C258.669 42.9012 258.563 42.5838 258.298 42.3722L255.115 40.0975C254.531 39.6743 254.85 38.7751 255.539 38.7751H259.465C259.783 38.7751 260.048 38.5635 260.155 38.2461L261.375 34.5431C261.693 33.8554 262.648 33.8554 262.86 34.5431Z" fill="white"/>
<path d="M44.4026 25.7103C43.2355 25.9748 42.3337 27.0328 42.3337 28.3023V30.1009H33.8458L28.4348 40.8924L25.7823 46.1823L23.5542 50.6787C15.5968 48.2454 10.2919 44.3837 7.37418 41.4743C7.00283 41.104 6.68454 40.7337 6.31319 40.3105C5.94185 39.8873 5.6766 39.517 5.3583 39.0938C5.09306 38.6706 4.77476 38.1945 4.56256 37.7713L3.28938 34.6503C4.45646 34.3858 5.30525 33.3278 5.30525 32.0582V28.3023C5.30525 27.5617 4.98696 26.8741 4.50951 26.398C4.13817 26.0277 3.71377 25.8161 3.23633 25.7103C4.13817 22.7479 5.83575 20.1029 8.06382 18.0928C10.6102 15.871 13.8993 14.3898 17.5066 14.0724C17.931 14.0195 18.4084 14.0195 18.8328 14.0195H28.9122C33.3684 14.0195 37.4001 15.8181 40.3178 18.7276C42.1746 20.6319 43.6069 23.0124 44.4026 25.7103Z" fill="#4285F4"/>
<path d="M44.3496 34.6503C42.3868 41.3156 36.18 46.1823 28.8592 46.1823H18.7798C14.3236 46.1823 10.2919 44.3837 7.37418 41.4743C7.00283 41.104 6.68454 40.7337 6.31319 40.3105C5.94185 39.8873 5.6766 39.517 5.3583 39.0938C5.09306 38.6706 4.77476 38.1945 4.56256 37.7713L3.28938 34.6503C4.45646 34.3858 5.30525 33.3278 5.30525 32.0582V28.3023C5.30525 27.5617 4.98696 26.8741 4.50951 26.398C4.13817 26.0277 3.71377 25.8161 3.23633 25.7103C4.13817 22.7479 5.83575 20.103 8.06382 18.0928C10.6102 15.871 13.8993 14.3898 17.5066 14.0724C17.931 14.0195 18.4084 14.0195 18.8328 14.0195H28.9122C33.3684 14.0195 37.4001 15.8181 40.3178 18.7276C42.2276 20.6319 43.6599 23.0124 44.4026 25.7103C43.2355 25.9748 42.3337 27.0328 42.3337 28.3023V32.0582C42.3337 33.3278 43.1825 34.3858 44.3496 34.6503Z" fill="#4285F4"/>
<path d="M28.8055 19.3086H18.9383C12.9437 19.3086 8.11621 24.1224 8.11621 30.1C8.11621 36.0777 12.9437 40.8915 18.9383 40.8915H28.8585C34.8531 40.8915 39.6806 36.0777 39.6806 30.1C39.6806 24.1224 34.8 19.3086 28.8055 19.3086Z" fill="white"/>
<path d="M18.3016 25.127C16.8692 25.127 15.7021 26.2907 15.7021 27.719C15.7021 29.1473 16.8692 30.3111 18.3016 30.3111C19.7339 30.3111 20.901 29.1473 20.901 27.719C20.901 26.2907 19.7339 25.127 18.3016 25.127Z" fill="#FF831D"/>
<path d="M29.4422 25.127C28.0099 25.127 26.8428 26.2907 26.8428 27.719C26.8428 29.1473 28.0099 30.3111 29.4422 30.3111C30.8745 30.3111 32.0416 29.1473 32.0416 27.719C32.0416 26.2907 30.8745 25.127 29.4422 25.127Z" fill="#FF831D"/>
<path d="M29.8134 34.332C28.5933 35.4429 26.4713 36.6596 23.8719 36.6596C21.3255 36.6596 19.2035 35.4429 17.9834 34.332" stroke="#FF831D" stroke-miterlimit="10" stroke-linecap="round"/>
<path d="M3.34211 34.6493C3.12991 34.7022 2.91772 34.7551 2.70552 34.7551C1.22014 34.7551 0 33.5384 0 32.0572V28.3014C0 26.8202 1.22014 25.6035 2.70552 25.6035C2.91772 25.6035 3.12991 25.6035 3.34211 25.6564C2.91772 27.0847 2.70552 28.5659 2.70552 30.1L2.81162 31.9514C2.81162 32.0043 2.81162 32.1101 2.81162 32.163C2.81162 32.3217 2.86467 32.4275 2.86467 32.5862L3.34211 34.6493Z" fill="#FF831D"/>
<path d="M47.6917 28.3014V32.0572C47.6917 33.5384 46.4716 34.7551 44.9862 34.7551C44.774 34.7551 44.5088 34.7551 44.3496 34.6493C44.774 33.221 44.9862 31.6869 44.9862 30.1C44.9862 28.5659 44.774 27.0847 44.3496 25.6564C44.5618 25.6035 44.774 25.6035 44.9862 25.6035C45.7289 25.6035 46.4185 25.9209 46.896 26.397C47.4265 26.8731 47.6917 27.5608 47.6917 28.3014Z" fill="#FF831D"/>
</g>
<defs>
<clipPath id="clip0_232_11403">
<rect width="274" height="52" fill="white"/>
</clipPath>
</defs>
</svg>
