<svg width="144" height="67" viewBox="0 0 144 67" fill="none" xmlns="http://www.w3.org/2000/svg">
<path d="M37.6796 13.5H44.2576V53.4996H37.6796V13.5Z" fill="#434343"/>
<path d="M67.1378 40.8238C67.1378 47.021 61.9898 47.5843 60.2738 47.5843C56.2698 47.5843 55.6978 43.9224 55.6978 41.9506V26.4578H49.1198V41.6689C49.1198 45.3308 50.2638 48.7111 52.5518 50.6829C54.5538 52.6547 57.1278 53.4998 60.2738 53.4998C62.5618 53.4998 65.4218 52.9364 67.1378 51.2463V53.4998H73.7158V26.4578H67.1378V40.8238Z" fill="#434343"/>
<path d="M86.5873 16.5989H80.0092V26.458H75.1472V32.6551H80.0092V53.5H86.5873V32.6551H91.4493V26.458H86.5873V16.5989Z" fill="#434343"/>
<path d="M112.039 45.3311C110.609 46.4578 108.607 47.3029 106.605 47.3029C102.029 47.3029 98.8832 43.9226 98.8832 39.4156C98.8832 34.9086 102.029 31.8101 106.605 31.8101C108.607 31.8101 110.609 32.3734 112.039 33.7819L112.897 34.6269L117.473 30.4016L116.329 29.5566C113.755 27.3031 110.323 25.8946 106.605 25.8946C98.5972 25.8946 92.5912 31.8101 92.5912 39.6973C92.5912 47.5846 98.5972 53.5 106.605 53.5C110.323 53.5 113.755 52.0916 116.329 49.8381L117.473 48.993L112.897 44.486L112.039 45.3311Z" fill="#434343"/>
<path d="M140.64 28.7111C138.638 26.7393 136.636 25.8942 133.49 25.8942C131.202 25.8942 128.914 26.4576 127.198 28.1477V13.5H120.62V53.4996H127.198V38.5702C127.198 32.3731 131.488 31.8097 133.204 31.8097C137.208 31.8097 136.922 35.4716 136.922 37.4434V53.2179H143.5V37.7251C143.5 34.0632 142.642 30.6829 140.64 28.7111Z" fill="#434343"/>
<path d="M106.32 44.2043C108.848 44.2043 110.896 42.1865 110.896 39.6973C110.896 37.2082 108.848 35.1903 106.32 35.1903C103.793 35.1903 101.744 37.2082 101.744 39.6973C101.744 42.1865 103.793 44.2043 106.32 44.2043Z" fill="#EF4335"/>
<path d="M28.5281 43.6409C26.2401 45.8944 22.8081 47.3028 19.09 47.3028C11.94 47.3028 6.79202 41.669 6.79202 34.0635C6.79202 26.4579 11.94 20.8242 19.376 20.8242C22.8081 20.8242 26.2401 22.2326 28.8141 24.7678L29.6721 25.6129L33.9621 21.3875L33.1041 20.5425C29.3861 16.8805 24.5241 14.9087 19.376 14.9087C8.50802 14.6271 0.5 23.0777 0.5 34.0635C0.5 45.0493 8.50802 53.4999 19.09 53.4999C24.2381 53.4999 29.3861 51.5281 32.8181 47.8662L33.6761 47.0211L29.3861 42.7958L28.5281 43.6409Z" fill="#434343"/>
</svg>
