<svg width="144" height="67" viewBox="0 0 144 67" fill="none" xmlns="http://www.w3.org/2000/svg">
<mask id="mask0_232_9864" style="mask-type:luminance" maskUnits="userSpaceOnUse" x="0" y="12" width="43" height="43">
<path d="M41.7589 29.5987H21.8575V37.888H33.313C32.2451 43.1541 27.7794 46.1773 21.8575 46.1773C14.8678 46.1773 9.23718 40.5211 9.23718 33.4995C9.23718 26.478 14.8678 20.8218 21.8575 20.8218C24.867 20.8218 27.5853 21.8945 29.721 23.6499L35.9341 17.4086C32.148 14.0929 27.294 12.0449 21.8575 12.0449C10.0138 12.0449 0.5 21.602 0.5 33.4995C0.5 45.3971 10.0138 54.9542 21.8575 54.9542C32.5363 54.9542 42.2443 47.1525 42.2443 33.4995C42.2443 32.2318 42.0501 30.8665 41.7589 29.5987Z" fill="white"/>
</mask>
<g mask="url(#mask0_232_9864)">
<path d="M-1.44238 46.1777V20.8223L15.0612 33.5L-1.44238 46.1777Z" fill="#FBBC05"/>
</g>
<mask id="mask1_232_9864" style="mask-type:luminance" maskUnits="userSpaceOnUse" x="0" y="12" width="43" height="43">
<path d="M41.7589 29.5987H21.8575V37.888H33.313C32.2451 43.1541 27.7794 46.1773 21.8575 46.1773C14.8678 46.1773 9.23718 40.5211 9.23718 33.4995C9.23718 26.478 14.8678 20.8218 21.8575 20.8218C24.867 20.8218 27.5853 21.8945 29.721 23.6499L35.9341 17.4086C32.148 14.0929 27.294 12.0449 21.8575 12.0449C10.0138 12.0449 0.5 21.602 0.5 33.4995C0.5 45.3971 10.0138 54.9542 21.8575 54.9542C32.5363 54.9542 42.2443 47.1525 42.2443 33.4995C42.2443 32.2318 42.0501 30.8665 41.7589 29.5987Z" fill="white"/>
</mask>
<g mask="url(#mask1_232_9864)">
<path d="M-1.44238 20.8211L15.0612 33.4988L21.8568 27.55L45.1559 23.7467V10.0938H-1.44238V20.8211Z" fill="#EA4335"/>
</g>
<mask id="mask2_232_9864" style="mask-type:luminance" maskUnits="userSpaceOnUse" x="0" y="12" width="43" height="43">
<path d="M41.7589 29.5987H21.8575V37.888H33.313C32.2451 43.1541 27.7794 46.1773 21.8575 46.1773C14.8678 46.1773 9.23718 40.5211 9.23718 33.4995C9.23718 26.478 14.8678 20.8218 21.8575 20.8218C24.867 20.8218 27.5853 21.8945 29.721 23.6499L35.9341 17.4086C32.148 14.0929 27.294 12.0449 21.8575 12.0449C10.0138 12.0449 0.5 21.602 0.5 33.4995C0.5 45.3971 10.0138 54.9542 21.8575 54.9542C32.5363 54.9542 42.2443 47.1525 42.2443 33.4995C42.2443 32.2318 42.0501 30.8665 41.7589 29.5987Z" fill="white"/>
</mask>
<g mask="url(#mask2_232_9864)">
<path d="M-1.44238 46.1765L27.6815 23.7467L35.3508 24.7219L45.1559 10.0938V56.9038H-1.44238V46.1765Z" fill="#34A853"/>
</g>
<mask id="mask3_232_9864" style="mask-type:luminance" maskUnits="userSpaceOnUse" x="0" y="12" width="43" height="43">
<path d="M41.7589 29.5987H21.8575V37.888H33.313C32.2451 43.1541 27.7794 46.1773 21.8575 46.1773C14.8678 46.1773 9.23718 40.5211 9.23718 33.4995C9.23718 26.478 14.8678 20.8218 21.8575 20.8218C24.867 20.8218 27.5853 21.8945 29.721 23.6499L35.9341 17.4086C32.148 14.0929 27.294 12.0449 21.8575 12.0449C10.0138 12.0449 0.5 21.602 0.5 33.4995C0.5 45.3971 10.0138 54.9542 21.8575 54.9542C32.5363 54.9542 42.2443 47.1525 42.2443 33.4995C42.2443 32.2318 42.0501 30.8665 41.7589 29.5987Z" fill="white"/>
</mask>
<g mask="url(#mask3_232_9864)">
<path d="M45.1596 56.905L15.0648 33.5L11.1816 30.5744L45.1596 20.8223V56.905Z" fill="#4285F4"/>
</g>
<path d="M57.8758 33.3083L54.8663 28.9199H54.6721H51.5656V33.3083H47.9736V17.6074H54.7692C58.9436 17.6074 61.5648 19.7529 61.5648 23.2636C61.5648 25.6041 60.3998 27.3595 58.3612 28.2372L61.856 33.3083H57.8758ZM54.478 20.5331H51.5656V25.9942H54.478C56.7108 25.9942 57.7787 24.9215 57.7787 23.2636C57.7787 21.5083 56.6137 20.5331 54.478 20.5331Z" fill="#434343"/>
<path d="M75.738 28.2361H66.6125C66.9037 29.6989 68.2628 30.6741 70.0103 30.6741C71.2723 30.6741 72.2431 30.284 73.0197 29.5039L74.8642 31.5518C73.6993 32.8196 72.0489 33.5022 69.9132 33.5022C65.7387 33.5022 63.0205 30.8692 63.0205 27.2609C63.0205 23.6526 65.7387 21.0195 69.4278 21.0195C72.9226 21.0195 75.6409 23.36 75.6409 27.2609C75.835 27.5534 75.738 27.9435 75.738 28.2361ZM66.6125 26.1881H72.5343C72.2431 24.6278 71.1752 23.6526 69.6219 23.6526C67.9716 23.6526 66.9037 24.6278 66.6125 26.1881Z" fill="#434343"/>
<path d="M89.8132 21.2188L84.7651 33.3114H81.1732L76.125 21.2188H79.717L83.0177 29.4105L86.4155 21.2188H89.8132Z" fill="#434343"/>
<path d="M90.8828 17.6067C90.8828 16.5339 91.7565 15.6562 93.0186 15.6562C94.2806 15.6562 95.1543 16.4364 95.1543 17.5092C95.1543 18.6794 94.2806 19.5571 93.0186 19.5571C91.7565 19.5571 90.8828 18.6794 90.8828 17.6067ZM91.2711 21.2149H94.766V33.3076H91.2711V21.2149Z" fill="#434343"/>
<path d="M109.718 28.2361H100.593C100.884 29.6989 102.243 30.6741 103.991 30.6741C105.253 30.6741 106.224 30.284 107 29.5039L108.845 31.5518C107.68 32.8196 106.029 33.5022 103.894 33.5022C99.7192 33.5022 97.001 30.8692 97.001 27.2609C97.001 23.6526 99.7192 21.0195 103.408 21.0195C106.903 21.0195 109.621 23.36 109.621 27.2609C109.718 27.5534 109.718 27.9435 109.718 28.2361ZM100.593 26.1881H106.515C106.224 24.6278 105.156 23.6526 103.602 23.6526C101.952 23.6526 100.787 24.6278 100.593 26.1881Z" fill="#434343"/>
<path d="M131.168 21.2188L126.799 33.3114H123.499L120.781 25.8022L117.965 33.3114H114.664L110.296 21.2188H113.597L116.412 29.4105L119.324 21.2188H122.237L125.052 29.4105L127.964 21.2188H131.168Z" fill="#434343"/>
<path d="M131.461 32.1369L132.626 29.6014C133.694 30.284 135.344 30.7716 136.8 30.7716C138.451 30.7716 139.033 30.3816 139.033 29.6989C139.033 27.7485 131.752 29.6989 131.752 24.9204C131.752 22.6774 133.791 21.0195 137.286 21.0195C138.936 21.0195 140.781 21.4096 141.946 22.0923L140.781 24.6278C139.616 23.9452 138.451 23.7501 137.286 23.7501C135.732 23.7501 135.053 24.2377 135.053 24.8229C135.053 26.8708 142.334 24.9204 142.334 29.6014C142.334 31.8444 140.295 33.4047 136.703 33.4047C134.567 33.5022 132.529 32.9171 131.461 32.1369Z" fill="#434343"/>
<path d="M54.0871 42.5704L56.9995 37.0117L60.009 42.5704L65.8338 43.5456L61.7564 47.8366L62.436 54.3705L56.9995 51.6399L51.466 54.468L52.1455 47.8366L47.874 43.5456L54.0871 42.5704Z" fill="#FCB002"/>
<path d="M73.5071 42.5704L76.4194 37.0117L79.4289 42.5704L85.2537 43.5456L81.1764 47.8366L81.8559 54.3705L76.4194 51.6399L70.8859 54.468L71.5655 47.8366L67.2939 43.5456L73.5071 42.5704Z" fill="#FCB002"/>
<path d="M92.9201 42.5704L95.8325 37.0117L98.842 42.5704L104.667 43.5456L100.589 47.8366L101.269 54.3705L95.8325 51.6399L90.299 54.468L90.9785 47.8366L86.707 43.5456L92.9201 42.5704Z" fill="#FCB002"/>
<path d="M112.333 42.5704L115.246 37.0117L118.255 42.5704L124.08 43.5456L120.003 47.8366L120.682 54.3705L115.246 51.6399L109.712 54.468L110.392 47.8366L106.12 43.5456L112.333 42.5704Z" fill="#FCB002"/>
<path d="M131.753 42.5704L134.666 37.0117L137.675 42.5704L143.5 43.5456L139.422 47.8366L140.102 54.3705L134.666 51.6399L129.132 54.468L129.812 47.8366L125.54 43.5456L131.753 42.5704Z" fill="#FCB002"/>
</svg>
