<svg width="199" height="56" viewBox="0 0 199 56" fill="none" xmlns="http://www.w3.org/2000/svg">
<g clip-path="url(#clip0_357_25009)">
<path d="M21.5627 31.6754H6.93298V46.9587H0V9.27539H6.93298V25.0837H21.5627V9.27539H28.4957V46.9587H21.5627V31.6754Z" fill="#213343"/>
<path d="M50.7045 34.766C50.7045 37.916 48.1193 40.4827 44.9466 40.4827C41.7739 40.4827 39.1887 37.916 39.1887 34.766V18.666H32.667V34.8244C32.667 41.591 38.1899 47.016 44.9466 47.016C51.7033 47.016 57.2262 41.5327 57.2262 34.8244V18.666H50.7045V34.766Z" fill="#213343"/>
<path d="M99.4121 20.3004C99.4121 16.9754 101.645 15.9254 104.054 15.9254C105.993 15.9254 108.578 17.3837 110.282 19.1921L114.571 14.1754C112.397 11.2587 108.049 9.27539 104.465 9.27539C97.297 9.27539 92.1854 13.4171 92.1854 20.3004C92.1854 33.0754 107.873 28.9921 107.873 36.1671C107.873 38.3837 105.699 40.3087 103.231 40.3087C99.3533 40.3087 98.0608 38.4421 96.2981 36.4004L91.5391 41.3587C94.5943 45.0921 98.3545 46.9587 102.879 46.9587C109.635 46.9587 115.099 42.7587 115.099 36.1671C115.158 22.0504 99.4121 26.4254 99.4121 20.3004Z" fill="#213343"/>
<path d="M196.65 40.9492C192.772 40.9492 191.656 39.2576 191.656 36.7492V25.3742H197.708V19.6576H191.656V12.0742L184.958 15.0492V38.0909C184.958 43.9826 189.071 46.9576 194.652 46.9576C195.475 46.9576 196.65 46.8992 197.296 46.7242L198.941 40.7742C198.236 40.8909 197.414 40.9492 196.65 40.9492Z" fill="#213343"/>
<path d="M75.7344 18.8411C72.503 18.8411 70.2115 19.7745 67.9789 21.9328V9.50781H61.3984V32.4911C61.3984 41.1245 67.6851 47.0161 74.7356 47.0161C82.5499 47.0161 89.4241 41.0078 89.4241 32.8995C89.4241 24.9078 83.0787 18.8411 75.7344 18.8411ZM75.6757 40.4245C71.5629 40.4245 68.2139 37.0995 68.2139 33.0161C68.2139 28.9328 71.5629 25.6078 75.6757 25.6078C79.7885 25.6078 83.1374 28.9328 83.1374 33.0161C83.1374 37.0995 79.8472 40.4245 75.6757 40.4245Z" fill="#213343"/>
<path d="M147.296 32.5503C147.296 24.4419 140.422 18.4336 132.608 18.4336C125.557 18.4336 119.271 24.3253 119.271 32.9586V56.0003H125.851V43.5753C128.025 45.7336 130.316 46.6669 133.606 46.6669C140.951 46.6669 147.296 40.5419 147.296 32.5503ZM141.01 32.4919C141.01 36.5753 137.661 39.9003 133.548 39.9003C129.435 39.9003 126.086 36.5753 126.086 32.4919C126.086 28.4086 129.435 25.0836 133.548 25.0836C137.661 25.0836 141.01 28.4086 141.01 32.4919Z" fill="#213343"/>
<path d="M168.566 18.2V11.6083C170.269 10.7917 171.503 9.04167 171.503 7.05833V6.88333C171.503 4.08333 169.212 1.80833 166.392 1.80833H166.274C163.454 1.80833 161.162 4.08333 161.162 6.88333V7.05833C161.162 9.1 162.396 10.7917 164.1 11.6083V18.2C161.515 18.6083 159.165 19.6583 157.226 21.175L139.071 7.11667C139.188 6.65 139.247 6.18333 139.247 5.71667C139.247 2.56667 136.662 0 133.489 0C130.317 0 127.731 2.56667 127.731 5.71667C127.731 8.86667 130.317 11.4333 133.489 11.4333C134.547 11.4333 135.487 11.1417 136.31 10.675L154.171 24.5C152.643 26.775 151.762 29.5167 151.762 32.4333C151.762 35.525 152.761 38.3833 154.406 40.7167L148.942 46.1417C148.53 46.025 148.06 45.9083 147.59 45.9083C145.005 45.9083 142.89 48.0083 142.89 50.575C142.89 53.1417 145.005 55.2417 147.59 55.2417C150.175 55.2417 152.291 53.1417 152.291 50.575C152.291 50.1083 152.173 49.6417 152.056 49.2333L157.461 43.8667C159.929 45.7333 162.925 46.8417 166.274 46.8417C174.265 46.8417 180.786 40.3667 180.786 32.4333C180.845 25.2 175.557 19.25 168.566 18.2ZM166.333 39.7833C162.22 39.7833 158.871 36.4583 158.871 32.375C158.871 28.2917 162.22 24.9667 166.333 24.9667C170.446 24.9667 173.795 28.2917 173.795 32.375C173.795 36.4583 170.446 39.7833 166.333 39.7833Z" fill="#FF5C35"/>
</g>
<defs>
<clipPath id="clip0_357_25009">
<rect width="199" height="56" fill="white"/>
</clipPath>
</defs>
</svg>
