<svg width="163" height="52" viewBox="0 0 163 52" fill="none" xmlns="http://www.w3.org/2000/svg">
<g clip-path="url(#clip0_232_11328)">
<path d="M57.3965 46.9343V26.2734H70.089V30.8026H62.9015V34.3849H69.677V38.8114H62.9015V42.3024H70.089V46.9343H57.3965Z" fill="#223345"/>
<path d="M73.832 46.9343V26.2734H79.4859V42.1085H86.5017V46.9343H73.832Z" fill="#223345"/>
<path d="M89.2598 46.9343V26.2734H101.952V30.8026H94.7648V34.3849H101.54V38.8114H94.7648V42.3024H101.952V46.9343H89.2598Z" fill="#223345"/>
<path d="M111.634 46.9339L102.947 26.2731H108.944L113.088 37.83C113.122 37.9554 113.202 38.2407 113.316 38.7084C113.431 39.1762 113.591 39.8036 113.774 40.5908C113.923 39.9633 114.072 39.3929 114.198 38.8795C114.335 38.3661 114.427 38.0239 114.495 37.8185L118.616 26.2617H124.613L115.937 46.9339H111.634Z" fill="#223345"/>
<path d="M126.307 46.9343V26.2734H138.999V30.8026H131.812V34.3849H138.587V38.8114H131.812V42.3024H138.999V46.9343H126.307Z" fill="#223345"/>
<path d="M142.742 46.9343V26.2734H148.19L156.018 36.8948C156.167 37.1115 156.419 37.545 156.762 38.1953C157.106 38.8456 157.483 39.6328 157.907 40.5341C157.792 39.6784 157.712 38.9141 157.655 38.2524C157.598 37.5793 157.575 36.9974 157.575 36.4726V26.2734H163V46.9343H157.575L149.747 36.2673C149.586 36.0505 149.335 35.617 148.991 34.9667C148.648 34.3164 148.27 33.5407 147.87 32.6622C147.984 33.5293 148.064 34.2936 148.121 34.9667C148.179 35.6398 148.201 36.2331 148.201 36.7465V46.9457H142.742V46.9343Z" fill="#223345"/>
<path d="M60.9792 21.4687V9.2388H57.374V5.45117H68.9564V9.2388H65.3512V21.4801H60.9792V21.4687Z" fill="#223345"/>
<path d="M87.6006 13.4943C87.6006 14.6466 87.3831 15.7304 86.9597 16.7343C86.5362 17.7383 85.9182 18.6396 85.1056 19.4382C84.2815 20.2253 83.3545 20.83 82.2901 21.2635C81.2371 21.6856 80.1384 21.9024 79.0054 21.9024C77.8609 21.9024 76.7507 21.6856 75.7092 21.2635C74.6563 20.8414 73.7292 20.2253 72.9395 19.4382C72.1155 18.6396 71.486 17.7383 71.0511 16.7229C70.6276 15.7076 70.4102 14.6352 70.4102 13.4943C70.4102 12.3535 70.6276 11.2697 71.0511 10.2657C71.4745 9.25036 72.104 8.34908 72.9395 7.5619C73.7407 6.77471 74.6563 6.17006 75.7092 5.73653C76.7621 5.31442 77.8609 5.09766 79.0054 5.09766C80.1499 5.09766 81.2486 5.31442 82.3015 5.73653C83.3545 6.15865 84.293 6.77471 85.0941 7.5619C85.8953 8.34908 86.5133 9.25036 86.9482 10.2657C87.3946 11.2697 87.6006 12.3535 87.6006 13.4943ZM79.0168 18.206C80.23 18.206 81.2371 17.7611 82.0269 16.8712C82.8166 15.9814 83.2171 14.8519 83.2171 13.5057C83.2171 12.1595 82.8166 11.0415 82.004 10.1402C81.2028 9.23895 80.1956 8.79401 79.0054 8.79401C77.7922 8.79401 76.785 9.23895 75.9953 10.1402C75.2056 11.0301 74.805 12.1595 74.805 13.5057C74.805 14.8748 75.1942 16.0042 75.9839 16.8827C76.7736 17.7611 77.7808 18.206 79.0168 18.206Z" fill="#223345"/>
<path d="M94.4554 21.4707H90.3467V5.45312H94.9247C96.7216 5.45312 97.9805 5.54439 98.7015 5.71552C99.4226 5.88665 100.041 6.19468 100.544 6.61679C101.139 7.10736 101.586 7.71201 101.895 8.45356C102.204 9.18371 102.364 10.0051 102.364 10.895C102.364 11.8533 102.215 12.6861 101.906 13.4163C101.597 14.1464 101.139 14.7397 100.544 15.2074C100.086 15.5611 99.5599 15.8121 98.9419 15.9604C98.3239 16.1087 97.3396 16.1885 95.9891 16.1885H95.2451H94.4554V21.4707ZM94.4554 12.6633H95.2909C96.3439 12.6633 97.0764 12.515 97.4998 12.2298C97.9118 11.9446 98.1293 11.454 98.1293 10.7581C98.1293 10.085 97.9233 9.60582 97.5113 9.32061C97.0992 9.0354 96.3782 8.8985 95.3367 8.8985H94.4554V12.6633Z" fill="#223345"/>
<path d="M111.635 21.4687V5.45117H116.041C117.861 5.45117 119.12 5.50821 119.841 5.6223C120.562 5.73638 121.18 5.94174 121.706 6.22695C122.302 6.5578 122.748 6.99132 123.057 7.55034C123.366 8.09795 123.526 8.73682 123.526 9.45556C123.526 10.3682 123.297 11.087 122.828 11.6232C122.359 12.1594 121.626 12.5701 120.608 12.8439C121.752 12.9352 122.645 13.3345 123.286 14.0418C123.927 14.7491 124.247 15.7074 124.247 16.8939C124.247 17.7495 124.064 18.5025 123.709 19.1528C123.343 19.8031 122.828 20.3051 122.153 20.6587C121.603 20.9553 120.928 21.1607 120.127 21.2862C119.326 21.4117 118.01 21.4687 116.178 21.4687H111.635ZM115.698 11.8513H116.579C117.666 11.8513 118.41 11.7373 118.811 11.4977C119.211 11.2581 119.417 10.8474 119.417 10.2656C119.417 9.66091 119.234 9.2388 118.857 8.98781C118.479 8.74823 117.746 8.62274 116.659 8.62274H115.709V11.8513H115.698ZM115.698 18.2059H117.231C118.273 18.2059 119.005 18.0804 119.44 17.818C119.875 17.5556 120.093 17.1221 120.093 16.5174C120.093 15.8443 119.898 15.3766 119.497 15.1142C119.097 14.8518 118.376 14.7149 117.3 14.7149H115.698V18.2059Z" fill="#223345"/>
<path d="M126.891 21.4707V5.45312H136.745V8.96695H131.16V11.7506H136.424V15.1846H131.16V17.8884H136.733V21.4821H126.891V21.4707Z" fill="#223345"/>
<path d="M140.351 16.3018C141.003 17.0434 141.644 17.591 142.274 17.9561C142.903 18.3211 143.533 18.5037 144.162 18.5037C144.746 18.5037 145.226 18.344 145.604 18.0359C145.982 17.7279 146.165 17.3286 146.165 16.838C146.165 16.3018 146.005 15.8911 145.673 15.6059C145.352 15.3207 144.608 15.0241 143.464 14.7161C141.884 14.2939 140.774 13.7463 140.122 13.0618C139.47 12.3887 139.149 11.4532 139.149 10.2667C139.149 8.73799 139.664 7.48306 140.694 6.51333C141.724 5.54361 143.052 5.06445 144.7 5.06445C145.581 5.06445 146.428 5.17854 147.218 5.41812C148.008 5.6577 148.763 6.01136 149.472 6.49052L148.099 9.62786C147.596 9.20574 147.092 8.8863 146.565 8.66954C146.039 8.45278 145.524 8.3501 145.009 8.3501C144.482 8.3501 144.059 8.4756 143.727 8.72659C143.395 8.97757 143.235 9.29701 143.235 9.69631C143.235 10.0956 143.384 10.415 143.67 10.6546C143.956 10.8942 144.517 11.1224 145.341 11.3391L145.535 11.3962C147.321 11.8753 148.5 12.4115 149.06 12.982C149.438 13.3813 149.736 13.849 149.93 14.3966C150.125 14.9442 150.228 15.5603 150.228 16.2334C150.228 17.9333 149.667 19.3023 148.545 20.329C147.424 21.3672 145.936 21.8806 144.07 21.8806C142.949 21.8806 141.93 21.6867 141.015 21.3102C140.099 20.9337 139.218 20.3405 138.359 19.5304L140.351 16.3018Z" fill="#223345"/>
<path d="M155.023 21.4707V9.24075H151.418V5.45312H163V9.24075H159.395V21.4821H155.023V21.4707Z" fill="#223345"/>
<path d="M26.0832 52C40.4886 52 52.1664 40.3594 52.1664 26C52.1664 11.6406 40.4886 0 26.0832 0C11.6778 0 0 11.6406 0 26C0 40.3594 11.6778 52 26.0832 52Z" fill="#FFF4C1"/>
<path d="M26.0834 51.5444C40.2359 51.5444 51.7088 40.1081 51.7088 26.0007C51.7088 11.8933 40.2359 0.457031 26.0834 0.457031C11.9309 0.457031 0.458008 11.8933 0.458008 26.0007C0.458008 40.1081 11.9309 51.5444 26.0834 51.5444Z" fill="#223345"/>
<path d="M13.9858 11.7277L11.8341 8.98967L11.033 9.61713L10.3691 8.7729L12.9557 6.74219L13.6195 7.58642L12.8184 8.21389L14.97 10.9519L13.9858 11.7277Z" fill="white"/>
<path d="M19.5939 5.94401C19.7312 6.24063 19.7999 6.54866 19.8113 6.85669C19.8228 7.16472 19.7655 7.47275 19.6511 7.76937C19.5366 8.06599 19.365 8.3398 19.1361 8.56797C18.9186 8.80755 18.6554 8.99008 18.3578 9.11558C18.0602 9.25248 17.7512 9.32093 17.4307 9.33234C17.1103 9.34375 16.8013 9.29811 16.5037 9.18403C16.1947 9.06994 15.9314 8.91022 15.6911 8.70487C15.4622 8.48811 15.2791 8.23712 15.1417 7.9405C15.0044 7.64388 14.9357 7.33585 14.9243 7.02782C14.9128 6.71979 14.9701 6.41176 15.096 6.10373C15.2104 5.80711 15.3821 5.54471 15.5995 5.30513C15.817 5.07696 16.0802 4.88302 16.3778 4.75752C16.6754 4.62062 16.9844 4.55217 17.3048 4.54076C17.6253 4.52935 17.9458 4.57499 18.2433 4.68907C18.5409 4.80316 18.8156 4.96288 19.0445 5.16823C19.2734 5.3964 19.4565 5.64739 19.5939 5.94401ZM17.9229 8.16867C18.2319 8.03177 18.4493 7.79219 18.5409 7.47275C18.6439 7.15331 18.6096 6.81106 18.4493 6.45739C18.2891 6.11514 18.0488 5.86415 17.7398 5.72725C17.4307 5.59035 17.1103 5.59035 16.8013 5.72725C16.4923 5.86415 16.2748 6.10373 16.1832 6.42317C16.0802 6.74261 16.1146 7.08486 16.2748 7.43852C16.435 7.79219 16.6754 8.04318 16.9729 8.18008C17.2934 8.31698 17.6024 8.31698 17.9229 8.16867Z" fill="white"/>
<path d="M22.4547 7.69092L21.3102 7.89628L20.5205 3.41273L21.8023 3.18456C22.3059 3.09329 22.6607 3.05907 22.8782 3.07048C23.0842 3.08189 23.2788 3.13893 23.439 3.2302C23.6336 3.33287 23.7823 3.49259 23.9082 3.67513C24.0341 3.86907 24.1142 4.08583 24.16 4.33682C24.2058 4.59922 24.2058 4.8502 24.16 5.06697C24.1142 5.28373 24.0112 5.47767 23.8625 5.63739C23.748 5.76289 23.6107 5.85415 23.4504 5.92261C23.2902 5.99106 23.0155 6.05951 22.6378 6.12796L22.4318 6.16218L22.2144 6.19641L22.4547 7.69092ZM22.0198 5.22669L22.2487 5.18105C22.5463 5.12401 22.7408 5.05556 22.8438 4.95288C22.9469 4.8502 22.9812 4.70189 22.9469 4.50795C22.9125 4.32541 22.8324 4.19992 22.7065 4.13147C22.5806 4.07443 22.3632 4.06302 22.077 4.12006L21.8367 4.16569L22.0198 5.22669Z" fill="white"/>
<path d="M27.4678 7.32503L28.2003 2.83008L29.4363 3.03543C29.9513 3.11529 30.2947 3.19515 30.5007 3.25219C30.6953 3.32064 30.8669 3.4005 30.9928 3.50318C31.1416 3.61727 31.2561 3.76558 31.3133 3.9367C31.3705 4.10783 31.3934 4.29037 31.3591 4.49572C31.3133 4.74671 31.2217 4.94065 31.0615 5.07756C30.9013 5.20305 30.6838 5.28291 30.3863 5.31713C30.7067 5.39699 30.9356 5.5453 31.0844 5.77347C31.2332 6.00164 31.279 6.28686 31.2217 6.6177C31.1874 6.85728 31.0958 7.06264 30.97 7.22236C30.8441 7.38207 30.6724 7.50757 30.4664 7.57602C30.2947 7.63306 30.1001 7.65588 29.8712 7.65588C29.6423 7.65588 29.2646 7.61025 28.7496 7.53039L27.4678 7.32503ZM28.7611 6.58348L29.196 6.65193C29.4821 6.69756 29.6996 6.69756 29.8369 6.64052C29.9742 6.58348 30.0543 6.4808 30.0772 6.30967C30.1116 6.11573 30.0772 5.97883 29.9742 5.88756C29.8712 5.79629 29.6767 5.72784 29.3791 5.6708L28.9327 5.60235L28.7611 6.58348ZM29.0472 4.80375L29.299 4.84939C29.608 4.89502 29.814 4.89502 29.9399 4.84939C30.0658 4.80375 30.1345 4.68967 30.1688 4.52995C30.1917 4.35882 30.1574 4.23333 30.0658 4.14206C29.9742 4.05079 29.7682 3.99375 29.4592 3.9367L29.196 3.89107L29.0472 4.80375Z" fill="white"/>
<path d="M31.748 8.15834L33.419 3.92578L36.0285 4.95255L35.6622 5.87664L34.1858 5.2948L33.8997 6.02495L35.296 6.57256L34.9412 7.48524L33.5335 6.93763L33.2473 7.65636L34.7238 8.2382L34.3461 9.18511L31.748 8.15834Z" fill="white"/>
<path d="M36.0864 8.45374C36.1322 8.72754 36.2008 8.95571 36.2924 9.14966C36.384 9.3322 36.5098 9.4691 36.6586 9.57177C36.796 9.66304 36.9333 9.69727 37.0707 9.68586C37.208 9.67445 37.311 9.606 37.3911 9.49191C37.4712 9.36642 37.4941 9.24093 37.4598 9.12684C37.4254 9.01276 37.2996 8.81881 37.0707 8.57923C36.7616 8.23698 36.5785 7.92895 36.5327 7.66655C36.487 7.40416 36.5442 7.13035 36.7273 6.84514C36.9676 6.48007 37.2767 6.26331 37.6772 6.18345C38.0778 6.115 38.4669 6.19485 38.8561 6.45725C39.0621 6.59415 39.2452 6.75387 39.4054 6.925C39.5542 7.10754 39.6801 7.30148 39.7831 7.52965L38.9705 8.06585C38.9133 7.88331 38.8446 7.735 38.7531 7.5981C38.6615 7.4612 38.5585 7.35852 38.4326 7.27866C38.3067 7.1988 38.1808 7.16458 38.0664 7.17599C37.9519 7.1874 37.8604 7.23303 37.8031 7.33571C37.7459 7.42697 37.723 7.52965 37.7574 7.63233C37.7917 7.735 37.8833 7.87191 38.0549 8.05444L38.0893 8.10008C38.4441 8.48797 38.6386 8.796 38.6844 9.02417C38.7187 9.17248 38.7073 9.3322 38.673 9.49191C38.6386 9.65163 38.5585 9.81135 38.4555 9.97107C38.1923 10.3818 37.8489 10.6214 37.4255 10.6898C37.002 10.7697 36.5671 10.6556 36.1207 10.3704C35.8575 10.1992 35.64 9.99389 35.4798 9.76572C35.3196 9.53755 35.2051 9.25234 35.125 8.9329L36.0864 8.45374Z" fill="white"/>
<path d="M38.6953 12.1609L41.1217 9.65108L40.3892 8.94375L41.1331 8.16797L43.5022 10.4497L42.7583 11.2255L42.0258 10.5181L39.5995 13.028L38.6953 12.1609Z" fill="white"/>
<path d="M35.3879 42.0511L36.9673 43.3859C35.3993 44.2415 33.7513 44.9032 32.0688 45.3596C32.0231 45.371 31.9773 45.3824 31.92 45.3938C30.1575 45.8615 28.3606 46.1125 26.5523 46.1467C26.5066 46.1467 26.4608 46.1467 26.4035 46.1467C26.2891 46.1467 26.1861 46.1467 26.0716 46.1467C25.9114 46.1467 25.7626 46.1467 25.6024 46.1467C23.7483 46.1125 21.8942 45.8387 20.0973 45.3481C18.4149 44.8918 16.7668 44.2301 15.1989 43.3745L16.7783 42.0397L18.0487 40.9559L20.1088 39.2104L22.3177 37.3394C21.6653 36.9857 20.9099 36.1415 20.1088 34.955C17.3048 30.7795 13.9285 22.3372 12.3262 15.994C15.4278 11.7729 20.4292 9.02344 26.0831 9.02344C31.7369 9.02344 36.7498 11.7729 39.84 15.994C38.2148 22.4513 34.747 31.0647 31.92 35.1717C31.1761 36.2556 30.478 37.0199 29.8599 37.3508L31.92 39.0963L34.1175 40.9673L35.3879 42.0511Z" fill="url(#paint0_linear_232_11328)"/>
<path d="M36.8984 31.236C39.1417 27.8819 41.2132 22.5998 42.083 18.584L43.2962 20.8999C40.95 27.5739 36.8984 31.236 36.8984 31.236Z" fill="url(#paint1_linear_232_11328)"/>
<path d="M38.707 31.2361C40.9045 29.4449 43.3194 26.5814 45.1048 23.9004L45.8487 25.3265C42.3809 29.4906 38.707 31.2361 38.707 31.2361Z" fill="url(#paint2_linear_232_11328)"/>
<path d="M40.9502 31.2356C42.9073 30.3686 45.1963 28.9995 47.1076 27.4023L47.6455 28.4291C44.0976 30.8591 40.9502 31.2356 40.9502 31.2356Z" fill="url(#paint3_linear_232_11328)"/>
<path d="M15.2786 31.236C13.0354 27.8819 10.9639 22.5998 10.094 18.584L8.88086 20.8999C11.2156 27.5739 15.2786 31.236 15.2786 31.236Z" fill="url(#paint4_linear_232_11328)"/>
<path d="M13.4705 31.2361C11.2731 29.4449 8.85818 26.5814 7.07275 23.9004L6.31738 25.3265C9.78522 29.4906 13.4705 31.2361 13.4705 31.2361Z" fill="url(#paint5_linear_232_11328)"/>
<path d="M11.2276 31.2356C9.27047 30.3686 6.98146 28.9995 5.07014 27.4023L4.53223 28.4291C8.08018 30.8591 11.2276 31.2356 11.2276 31.2356Z" fill="url(#paint6_linear_232_11328)"/>
<path d="M26.0835 47.1641L26.5871 48.168L27.6972 48.3391L26.8961 49.1149L27.0792 50.2215L26.0835 49.6968L25.0878 50.2215L25.2823 49.1149L24.4697 48.3391L25.5913 48.168L26.0835 47.1641Z" fill="#DE6900"/>
<path d="M29.7001 47.0703L30.2494 47.8917L31.2337 47.9031L30.6271 48.6789L30.9133 49.6144L29.9862 49.2722L29.1851 49.8426L29.2194 48.8614L28.4297 48.2682L29.3796 48.0058L29.7001 47.0703Z" fill="#DE6900"/>
<path d="M32.8591 46.5117L33.4543 47.1506L34.3241 47.0365L33.8892 47.8009L34.2783 48.5881L33.4085 48.4055L32.779 49.0216L32.676 48.1431L31.9092 47.7324L32.7103 47.3674L32.8591 46.5117Z" fill="#DE6900"/>
<path d="M35.7547 45.5078L36.3841 46.044L37.1739 45.8387L36.8648 46.5916L37.3112 47.2761L36.4871 47.2191L35.9721 47.8466L35.7776 47.048L35.0107 46.7627L35.7089 46.3292L35.7547 45.5078Z" fill="#DE6900"/>
<path d="M38.3294 44.3203L38.9131 44.6626L39.5197 44.3888L39.3709 45.039L39.8287 45.5296L39.1535 45.5867L38.8216 46.1799L38.5583 45.5524L37.8945 45.4269L38.4096 44.982L38.3294 44.3203Z" fill="#DE6900"/>
<path d="M40.5618 42.5078L41.1455 42.8158L41.7292 42.5078L41.6148 43.1581L42.084 43.6144L41.4316 43.7057L41.1455 44.2989L40.8594 43.7057L40.207 43.6144L40.6763 43.1581L40.5618 42.5078Z" fill="#DE6900"/>
<path d="M22.4665 47.0703L21.9286 47.8917L20.9443 47.9031L21.5509 48.6789L21.2534 49.6144L22.1804 49.2722L22.993 49.8426L22.9472 48.8614L23.7369 48.2682L22.787 48.0058L22.4665 47.0703Z" fill="#DE6900"/>
<path d="M19.3077 46.5117L18.724 47.1506L17.8428 47.0365L18.2777 47.8009L17.9 48.5881L18.7584 48.4055L19.3879 49.0216L19.4909 48.1431L20.2691 47.7324L19.468 47.3674L19.3077 46.5117Z" fill="#DE6900"/>
<path d="M16.4123 45.5078L15.7828 46.044L14.9931 45.8387L15.3135 46.5916L14.8672 47.2761L15.6798 47.2191L16.2063 47.8466L16.3894 47.048L17.1562 46.7627L16.458 46.3292L16.4123 45.5078Z" fill="#DE6900"/>
<path d="M13.8375 44.3203L13.2652 44.6626L12.6472 44.3888L12.796 45.039L12.3496 45.5296L13.0134 45.5867L13.3453 46.1799L13.6086 45.5524L14.2724 45.4269L13.7688 44.982L13.8375 44.3203Z" fill="#DE6900"/>
<path d="M11.6052 42.5078L11.0329 42.8158L10.4492 42.5078L10.5523 43.1581L10.083 43.6144L10.7354 43.7057L11.0215 44.2989L11.3191 43.7057L11.9714 43.6144L11.5022 43.1581L11.6052 42.5078Z" fill="#DE6900"/>
<path d="M26.0833 10.9648C25.7514 10.9648 25.4195 10.9763 25.0876 10.9991L22.8329 16.0416C22.7872 16.1215 22.8558 16.2242 22.9474 16.2242H26.2893C26.358 16.2242 26.4152 16.2812 26.4152 16.3497V44.6998C26.461 44.6998 26.5068 44.6998 26.564 44.6998C28.3723 44.6656 30.1692 44.4146 31.9317 43.9469V11.9916C30.1005 11.3299 28.132 10.9648 26.0833 10.9648Z" fill="#FFF4C1"/>
<path d="M25.614 17.1475V44.699C23.7599 44.6648 21.9058 44.391 20.1089 43.9004V17.1475C20.1089 17.079 20.0517 17.022 19.983 17.022H17.1446C17.0531 17.022 16.9844 16.9193 17.0302 16.8394L18.5409 12.721C20.2691 11.8653 22.1576 11.3063 24.149 11.0781L21.5166 16.8394C21.4709 16.9193 21.5395 17.022 21.6311 17.022H25.4881C25.5567 17.022 25.614 17.079 25.614 17.1475Z" fill="#FFF4C1"/>
<path d="M50.8505 32.582C50.1409 35.2288 49.0193 37.7045 47.5543 39.9405H4.61257C3.14761 37.7045 2.026 35.2288 1.31641 32.582H50.8505Z" fill="url(#paint7_linear_232_11328)"/>
<path d="M7.31348 38.4575V33.9512H10.0832V34.9437H8.5152V35.7195H9.99161V36.6892H8.5152V37.4536H10.0832V38.4575H7.31348Z" fill="#FFF4C1"/>
<path d="M13.8027 38.4575V33.9512H15.0388V37.3965H16.5724V38.4461H13.8027V38.4575Z" fill="#FFF4C1"/>
<path d="M20.0635 38.4575V33.9512H22.8332V34.9437H21.2652V35.7195H22.7416V36.6892H21.2652V37.4536H22.8332V38.4575H20.0635Z" fill="#FFF4C1"/>
<path d="M27.8455 38.4575L25.957 33.9512H27.2618L28.1659 36.4725C28.1774 36.4953 28.1888 36.5637 28.2117 36.6664C28.2346 36.7691 28.2689 36.906 28.3147 37.0771C28.349 36.9402 28.3834 36.8147 28.4063 36.7006C28.4406 36.5865 28.452 36.5181 28.4749 36.4725L29.3676 33.9512H30.6724L28.784 38.4575H27.8455Z" fill="#FFF4C1"/>
<path d="M33.9463 38.4575V33.9512H36.716V34.9437H35.148V35.7195H36.6244V36.6892H35.148V37.4536H36.716V38.4575H33.9463Z" fill="#FFF4C1"/>
<path d="M40.4355 38.4575V33.9512H41.6258L43.3311 36.2671C43.3655 36.3127 43.4227 36.404 43.4914 36.5523C43.56 36.7006 43.6516 36.8603 43.7432 37.0657C43.7203 36.8832 43.6974 36.712 43.6859 36.5637C43.6745 36.4154 43.6745 36.2899 43.6745 36.1758V33.9512H44.8533V38.4575H43.6745L41.9692 36.1302C41.9348 36.0846 41.8776 35.9933 41.8089 35.845C41.7288 35.7081 41.6487 35.537 41.5686 35.343C41.5915 35.537 41.6144 35.6967 41.6258 35.845C41.6373 35.9933 41.6373 36.1188 41.6373 36.2329V38.4575H40.4355Z" fill="#FFF4C1"/>
</g>
<defs>
<linearGradient id="paint0_linear_232_11328" x1="26.0852" y1="56.7941" x2="26.0852" y2="-0.992919" gradientUnits="userSpaceOnUse">
<stop stop-color="#FF6416"/>
<stop offset="0.4916" stop-color="#BF843F"/>
<stop offset="1" stop-color="#FFDE6E"/>
</linearGradient>
<linearGradient id="paint1_linear_232_11328" x1="40.0909" y1="56.7944" x2="40.0909" y2="-0.992705" gradientUnits="userSpaceOnUse">
<stop stop-color="#FF6416"/>
<stop offset="0.4916" stop-color="#BF843F"/>
<stop offset="1" stop-color="#FFDE6E"/>
</linearGradient>
<linearGradient id="paint2_linear_232_11328" x1="42.2765" y1="56.7944" x2="42.2765" y2="-0.99266" gradientUnits="userSpaceOnUse">
<stop stop-color="#FF6416"/>
<stop offset="0.4916" stop-color="#BF843F"/>
<stop offset="1" stop-color="#FFDE6E"/>
</linearGradient>
<linearGradient id="paint3_linear_232_11328" x1="44.2897" y1="56.7939" x2="44.2897" y2="-0.993121" gradientUnits="userSpaceOnUse">
<stop stop-color="#FF6416"/>
<stop offset="0.4916" stop-color="#BF843F"/>
<stop offset="1" stop-color="#FFDE6E"/>
</linearGradient>
<linearGradient id="paint4_linear_232_11328" x1="12.0798" y1="56.7944" x2="12.0798" y2="-0.992705" gradientUnits="userSpaceOnUse">
<stop stop-color="#FF6416"/>
<stop offset="0.4916" stop-color="#BF843F"/>
<stop offset="1" stop-color="#FFDE6E"/>
</linearGradient>
<linearGradient id="paint5_linear_232_11328" x1="9.89473" y1="56.7944" x2="9.89473" y2="-0.99266" gradientUnits="userSpaceOnUse">
<stop stop-color="#FF6416"/>
<stop offset="0.4916" stop-color="#BF843F"/>
<stop offset="1" stop-color="#FFDE6E"/>
</linearGradient>
<linearGradient id="paint6_linear_232_11328" x1="7.88167" y1="56.7939" x2="7.88167" y2="-0.993121" gradientUnits="userSpaceOnUse">
<stop stop-color="#FF6416"/>
<stop offset="0.4916" stop-color="#BF843F"/>
<stop offset="1" stop-color="#FFDE6E"/>
</linearGradient>
<linearGradient id="paint7_linear_232_11328" x1="26.086" y1="56.7942" x2="26.086" y2="-0.992902" gradientUnits="userSpaceOnUse">
<stop stop-color="#FF6416"/>
<stop offset="0.4916" stop-color="#BF843F"/>
<stop offset="1" stop-color="#FFDE6E"/>
</linearGradient>
<clipPath id="clip0_232_11328">
<rect width="163" height="52" fill="white"/>
</clipPath>
</defs>
</svg>
