<svg width="144" height="67" viewBox="0 0 144 67" fill="none" xmlns="http://www.w3.org/2000/svg">
<path d="M34.6147 12.4814H21.5324L17.6077 0L13.3811 12.4814H0.5L10.8652 19.9702L6.94054 32.5514L17.6077 24.763L27.9729 32.5514L24.0482 19.9702L34.6147 12.4814Z" fill="#13B57A"/>
<path d="M24.8533 22.766L24.0482 19.9702L17.6077 24.763L24.8533 22.766Z" fill="#055229"/>
<path d="M27.3691 40.3398H0.500007V67H27.3691V40.3398Z" fill="#13B57A"/>
<path d="M56.2509 40.3398H29.3818V67H56.2509V40.3398Z" fill="#13B57A"/>
<path d="M85.3339 40.3398H58.4648V67H85.3339V40.3398Z" fill="#13B57A"/>
<path d="M114.216 40.3398H87.3466V67H114.216V40.3398Z" fill="#13B57A"/>
<path d="M143.299 40.3398H116.43V67H129.864H143.299V40.3398Z" fill="#DCDCE6"/>
<path d="M116.43 40.3398H129.915V67H116.43V40.3398Z" fill="#13B57A"/>
<path d="M13.683 58.1133L17.9096 57.0149L19.6203 62.307L13.683 58.1133ZM23.1425 51.4232H15.8969L13.683 44.7332L11.469 51.4232H4.42471L10.2614 55.617L8.0475 62.307L13.8842 58.1133L17.507 55.617L23.1425 51.4232Z" fill="white"/>
<path d="M42.766 58.1133L46.9926 57.0149L48.7034 62.307L42.766 58.1133ZM52.0243 51.4232H44.7787L42.5647 44.7332L40.3508 51.4232H33.0046L38.8413 55.617L36.6274 62.307L42.4641 58.1133L46.0869 55.617L52.0243 51.4232Z" fill="white"/>
<path d="M71.9505 58.1133L76.177 57.015L77.8878 62.3071L71.9505 58.1133ZM81.2087 51.4233H73.9631L71.7492 44.7333L69.5352 51.4233H62.2897L68.1264 55.6171L66.2143 62.3071L72.0511 58.1133L75.6739 55.6171L81.2087 51.4233Z" fill="white"/>
<path d="M100.831 58.1133L105.057 57.015L106.768 62.3071L100.831 58.1133ZM110.29 51.4233H103.045L100.831 44.7333L98.6167 51.4233H91.3711L97.2078 55.6171L94.9939 62.3071L100.831 58.1133L104.453 55.6171L110.29 51.4233Z" fill="white"/>
<path d="M129.915 58.1133L134.142 57.015L135.853 62.3071L129.915 58.1133ZM139.173 51.4233H131.928L129.714 44.7333L127.802 51.4233H120.556L126.393 55.6171L124.179 62.3071L130.016 58.1133L133.639 55.6171L139.173 51.4233Z" fill="white"/>
<path d="M44.0209 30.0449V15.5596H38.5V12.7416H52.587V15.5596H47.0661V30.0449H44.0209Z" fill="#434343"/>
<path d="M52.2705 30.0449V16.9933H55.2909V19.9348C56.1079 17.9573 57.6181 16.6472 59.9206 16.7461V19.9101H59.7473C57.0982 19.9101 55.2909 21.6157 55.2909 25.0764V30.0449H52.2705Z" fill="#434343"/>
<path d="M65.6664 30.3169C62.6955 30.3169 61.012 28.364 61.012 25.2989V16.9933H64.0077V24.409C64.0077 26.4607 65.0227 27.573 66.8053 27.573C68.563 27.573 69.7514 26.4112 69.7514 24.3596V16.9933H72.7718V30.0449H69.7514V28.018C68.8849 29.2787 67.6718 30.3169 65.6664 30.3169Z" fill="#434343"/>
<path d="M79.6325 30.2921C77.7509 30.2921 75.7456 29.6494 74.0868 28.3393L75.4237 26.3124C76.8844 27.3753 78.3451 27.9191 79.7068 27.9191C80.9941 27.9191 81.7369 27.3753 81.7369 26.5101V26.4607C81.7369 25.4719 80.3504 25.1011 78.8155 24.6315C76.9092 24.1124 74.7305 23.2966 74.7305 20.8247V20.7753C74.7305 18.2787 76.7854 16.7708 79.3849 16.7708C81.0437 16.7708 82.8014 17.3393 84.1878 18.2539L82.9995 20.3798C81.7369 19.6135 80.4 19.1438 79.3106 19.1438C78.147 19.1438 77.4786 19.7124 77.4786 20.4292V20.4787C77.4786 21.418 78.8898 21.8629 80.4247 22.3326C82.3063 22.9258 84.4849 23.791 84.4849 26.1393V26.1888C84.4849 28.9326 82.3558 30.2921 79.6325 30.2921Z" fill="#434343"/>
<path d="M90.3329 30.2674C88.1295 30.2674 86.5698 29.3034 86.5698 26.436V19.564H84.911V16.9933H86.5698V13.409H89.5654V16.9933H93.081V19.564H89.5654V25.9663C89.5654 27.1281 90.1596 27.5978 91.1747 27.5978C91.8183 27.5978 92.4373 27.4494 93.0315 27.1528V29.6C92.264 30.0202 91.4965 30.2674 90.3329 30.2674Z" fill="#434343"/>
<path d="M94.743 34V16.9933H97.7634V19.1685C98.7289 17.809 100.066 16.7213 102.22 16.7213C105.29 16.7213 108.285 19.1438 108.285 23.4944V23.5438C108.285 27.8944 105.314 30.3169 102.22 30.3169C100.041 30.3169 98.6794 29.2292 97.7634 28.018V34H94.743ZM101.502 27.7213C103.557 27.7213 105.24 26.1146 105.24 23.5438V23.4944C105.24 20.973 103.507 19.3169 101.502 19.3169C99.4469 19.3169 97.6891 20.9978 97.6891 23.4944V23.5438C97.6891 26.0405 99.4469 27.7213 101.502 27.7213Z" fill="#434343"/>
<path d="M110.065 14.991V12.1483H113.284V14.991H110.065ZM110.164 30.0449V16.9933H113.185V30.0449H110.164Z" fill="#434343"/>
<path d="M115.887 30.0449V12H118.907V30.0449H115.887Z" fill="#434343"/>
<path d="M127.674 30.3416C123.688 30.3416 120.742 27.3011 120.742 23.5933V23.5438C120.742 19.8112 123.713 16.7213 127.724 16.7213C131.759 16.7213 134.681 19.7618 134.681 23.4944V23.5438C134.681 27.227 131.71 30.3416 127.674 30.3416ZM127.724 27.7213C130.175 27.7213 131.685 25.8427 131.685 23.5933V23.5438C131.685 21.2449 130.026 19.3416 127.674 19.3416C125.273 19.3416 123.738 21.2202 123.738 23.4944V23.5438C123.738 25.818 125.421 27.7213 127.724 27.7213Z" fill="#434343"/>
<path d="M140.752 30.2674C138.549 30.2674 136.989 29.3034 136.989 26.436V19.564H135.33V16.9933H136.989V13.409H139.984V16.9933H143.5V19.564H139.984V25.9663C139.984 27.1281 140.579 27.5978 141.594 27.5978C142.237 27.5978 142.856 27.4494 143.45 27.1528V29.6C142.683 30.0202 141.916 30.2674 140.752 30.2674Z" fill="#434343"/>
</svg>
