<svg width="187" height="82" viewBox="0 0 187 82" fill="none" xmlns="http://www.w3.org/2000/svg">
<path d="M83.657 64.3249C82.2508 64.3249 80.8264 64.0333 79.4568 63.432L50.238 50.4395C45.0152 48.1253 42.6594 41.9844 44.9786 36.7729L57.9993 7.6173C60.3185 2.40574 66.4727 0.0550737 71.6955 2.3693L100.914 15.3617C106.137 17.676 108.493 23.8169 106.174 29.0284L93.1531 58.184C91.4182 62.0471 87.6198 64.3249 83.657 64.3249ZM81.8856 57.9653C84.0952 58.9493 86.6884 57.9471 87.6745 55.7604L100.695 26.6049C101.681 24.4 100.677 21.8124 98.4855 20.8284L69.2485 7.83596C67.0388 6.85196 64.4456 7.85418 63.4595 10.0409L50.4389 39.1964C49.4528 41.4013 50.4572 43.9889 52.6486 44.9729L81.8856 57.9653Z" fill="#089949"/>
<path d="M175.312 64.3426H143.318C137.602 64.3426 132.945 59.6959 132.945 53.9924V22.067C132.945 16.3635 137.602 11.7168 143.318 11.7168H175.312C181.028 11.7168 185.685 16.3635 185.685 22.067V53.9924C185.685 59.6959 181.028 64.3426 175.312 64.3426ZM143.318 17.6937C140.907 17.6937 138.935 19.6617 138.935 22.067V53.9924C138.935 56.3977 140.907 58.3657 143.318 58.3657H175.312C177.723 58.3657 179.695 56.3977 179.695 53.9924V22.067C179.695 19.6617 177.723 17.6937 175.312 17.6937H143.318Z" fill="#F9B21D"/>
<path d="M55.4971 27.9161L51.1873 37.5374C51.1325 37.6468 51.0778 37.7379 51.023 37.829L52.703 48.1792C53.0865 50.5663 51.4613 52.8076 49.0872 53.1903L17.4945 58.2925C16.344 58.4748 15.1752 58.2014 14.2256 57.5272C13.276 56.853 12.6551 55.8325 12.4725 54.6845L7.3592 23.1601C7.17658 22.0121 7.45051 20.8459 8.12619 19.8983C8.80187 18.9508 9.82453 18.3312 10.975 18.149L42.5678 13.0468C42.8052 13.0103 43.0426 12.9921 43.2617 12.9921C45.3618 12.9921 47.2428 14.5228 47.5898 16.673L49.2881 27.0961L53.744 17.1285L53.5066 15.7254C52.5935 10.0948 47.2611 6.24987 41.6182 7.16099L10.0254 12.2632C7.30441 12.6823 4.89387 14.1583 3.28683 16.3997C1.66154 18.641 1.02238 21.3743 1.46066 24.1077L6.57394 55.6321C7.01223 58.3654 8.49142 60.7525 10.7376 62.3743C12.509 63.6681 14.6091 64.3241 16.7822 64.3241C17.3301 64.3241 17.8962 64.2876 18.4623 64.1965L50.0551 59.0943C55.698 58.1832 59.5512 52.8623 58.6381 47.2316L55.4971 27.9161Z" fill="#E42527"/>
<path d="M93.3901 42.9685L98.0285 32.6L96.7137 22.9605C96.5493 21.8125 96.8598 20.6645 97.572 19.7351C98.2842 18.8058 99.3069 18.2045 100.476 18.0587L132.178 13.7582C132.379 13.74 132.58 13.7218 132.781 13.7218C133.73 13.7218 134.643 14.0316 135.429 14.6147C135.575 14.724 135.702 14.8516 135.83 14.9609C137.236 13.4849 139.081 12.428 141.144 11.9725C140.56 11.1707 139.866 10.46 139.044 9.84047C136.835 8.16403 134.114 7.45336 131.374 7.8178L99.6356 12.1182C96.8963 12.4827 94.4493 13.904 92.7874 16.1089C91.1074 18.3138 90.3952 21.0289 90.7604 23.7622L93.3901 42.9685Z" fill="#226DB4"/>
<path d="M147.335 48.3067L143.172 17.6934C140.834 17.7662 138.953 19.6978 138.953 22.0485V31.032L141.418 49.1085C141.583 50.2565 141.272 51.4045 140.56 52.3338C139.848 53.2631 138.825 53.8645 137.657 54.0102L105.954 58.3107C104.804 58.4747 103.653 58.1649 102.722 57.4542C101.791 56.7436 101.188 55.7231 101.042 54.5569L99.5809 43.824L94.9424 54.1925L95.1067 55.3587C95.472 58.092 96.8964 60.5338 99.1061 62.192C100.932 63.5769 103.105 64.3058 105.37 64.3058C105.845 64.3058 106.319 64.2694 106.794 64.2147L138.46 59.9507C141.199 59.5862 143.646 58.1649 145.308 55.96C146.988 53.7551 147.7 51.04 147.335 48.3067Z" fill="#226DB4"/>
<path d="M119.687 75.7306C119.687 72.9973 121.696 71.0293 124.435 71.0293C127.266 71.0293 129.183 72.9609 129.183 75.7489C129.183 78.5733 127.229 80.5231 124.399 80.5231C121.55 80.5231 119.687 78.5733 119.687 75.7306ZM126.992 75.7671C126.992 74.1089 126.189 72.6875 124.381 72.6875C122.554 72.6875 121.861 74.1635 121.861 75.84C121.861 77.4253 122.719 78.8831 124.472 78.8831C126.28 78.8649 126.992 77.316 126.992 75.7671ZM99.4351 71.1751H100.786C100.987 71.1751 101.152 71.3391 101.152 71.5395V74.9289H104.987V71.5395C104.987 71.3391 105.151 71.1751 105.352 71.1751H106.703C106.904 71.1751 107.069 71.3391 107.069 71.5395V80.0129C107.069 80.2133 106.904 80.3773 106.703 80.3773H105.37C105.169 80.3773 105.005 80.2133 105.005 80.0129V76.5871H101.17V80.0129C101.17 80.2133 101.006 80.3773 100.805 80.3773H99.4534C99.2525 80.3773 99.0881 80.2133 99.0881 80.0129V71.5395C99.0699 71.3391 99.2342 71.1751 99.4351 71.1751ZM76.955 75.7306C76.955 72.9973 78.9637 71.0293 81.703 71.0293C84.5336 71.0293 86.451 72.9609 86.451 75.7489C86.451 78.5733 84.497 80.5231 81.6665 80.5231C78.8176 80.5231 76.955 78.5733 76.955 75.7306ZM84.2779 75.7671C84.2779 74.1089 83.4744 72.6875 81.6665 72.6875C79.8403 72.6875 79.1464 74.1635 79.1464 75.84C79.1464 77.4253 80.0047 78.8831 81.7578 78.8831C83.5657 78.8649 84.2779 77.316 84.2779 75.7671ZM57.8897 79.4844L62.4186 72.8151H58.6932C58.4924 72.8151 58.328 72.6511 58.328 72.4506V71.5577C58.328 71.3573 58.4924 71.1933 58.6932 71.1933H64.8109C65.0118 71.1933 65.1761 71.3573 65.1761 71.5577V71.904C65.1761 71.9769 65.1579 72.0497 65.1214 72.1044L60.6838 78.7737H64.6648C64.8657 78.7737 65.0301 78.9377 65.0301 79.1382V80.0311C65.0301 80.2315 64.8657 80.3955 64.6648 80.3955H58.2002C57.9993 80.3955 57.8349 80.2315 57.8349 80.0311V79.7031C57.8167 79.612 57.8532 79.5391 57.8897 79.4844Z" fill="black"/>
</svg>
